<mxfile host="app.diagrams.net" modified="2024-04-30T20:15:01.839Z" agent="Mozilla/5.0 (Windows NT 10.0; Win64; x64) AppleWebKit/537.36 (KHTML, like Gecko) Chrome/124.0.0.0 Safari/537.36 Edg/124.0.0.0" etag="hR-DedCL-lZQh2QccgfS" version="24.2.5" type="device">
  <diagram name="Page-1" id="KhllmZnXgkyR_-uCNWcf">
    <mxGraphModel dx="4158" dy="2135" grid="1" gridSize="10" guides="1" tooltips="1" connect="1" arrows="1" fold="1" page="1" pageScale="1" pageWidth="850" pageHeight="1100" math="0" shadow="0">
      <root>
        <mxCell id="0" />
        <mxCell id="1" parent="0" />
        <mxCell id="5L8FShO72DNKzyxmD7FR-6" value="KLIJENT" style="swimlane;fontStyle=0;childLayout=stackLayout;horizontal=1;startSize=26;horizontalStack=0;resizeParent=1;resizeParentMax=0;resizeLast=0;collapsible=1;marginBottom=0;align=center;fontSize=14;fillColor=#d80073;strokeColor=#A50040;swimlaneFillColor=default;rounded=1;fontColor=#ffffff;" parent="1" vertex="1">
          <mxGeometry x="-640" y="100" width="160" height="296" as="geometry">
            <mxRectangle x="320" y="250" width="130" height="30" as="alternateBounds" />
          </mxGeometry>
        </mxCell>
        <mxCell id="5L8FShO72DNKzyxmD7FR-7" value="&lt;b&gt;&lt;u&gt;ID_klijenta&lt;/u&gt;&lt;/b&gt;" style="text;strokeColor=none;fillColor=none;spacingLeft=4;spacingRight=4;overflow=hidden;rotatable=0;points=[[0,0.5],[1,0.5]];portConstraint=eastwest;fontSize=12;whiteSpace=wrap;html=1;" parent="5L8FShO72DNKzyxmD7FR-6" vertex="1">
          <mxGeometry y="26" width="160" height="30" as="geometry" />
        </mxCell>
        <mxCell id="5L8FShO72DNKzyxmD7FR-8" value="ime" style="text;strokeColor=none;fillColor=none;spacingLeft=4;spacingRight=4;overflow=hidden;rotatable=0;points=[[0,0.5],[1,0.5]];portConstraint=eastwest;fontSize=12;whiteSpace=wrap;html=1;" parent="5L8FShO72DNKzyxmD7FR-6" vertex="1">
          <mxGeometry y="56" width="160" height="30" as="geometry" />
        </mxCell>
        <mxCell id="5L8FShO72DNKzyxmD7FR-9" value="prezime" style="text;strokeColor=none;fillColor=none;spacingLeft=4;spacingRight=4;overflow=hidden;rotatable=0;points=[[0,0.5],[1,0.5]];portConstraint=eastwest;fontSize=12;whiteSpace=wrap;html=1;" parent="5L8FShO72DNKzyxmD7FR-6" vertex="1">
          <mxGeometry y="86" width="160" height="30" as="geometry" />
        </mxCell>
        <mxCell id="Xnj83cRvs6DByZSezMd7-168" value="datum_rodenja" style="text;strokeColor=none;fillColor=none;spacingLeft=4;spacingRight=4;overflow=hidden;rotatable=0;points=[[0,0.5],[1,0.5]];portConstraint=eastwest;fontSize=12;whiteSpace=wrap;html=1;" vertex="1" parent="5L8FShO72DNKzyxmD7FR-6">
          <mxGeometry y="116" width="160" height="30" as="geometry" />
        </mxCell>
        <mxCell id="l63NLzGvEjnrkUhpd7Kd-4" value="spol" style="text;strokeColor=none;fillColor=none;spacingLeft=4;spacingRight=4;overflow=hidden;rotatable=0;points=[[0,0.5],[1,0.5]];portConstraint=eastwest;fontSize=12;whiteSpace=wrap;html=1;" parent="5L8FShO72DNKzyxmD7FR-6" vertex="1">
          <mxGeometry y="146" width="160" height="30" as="geometry" />
        </mxCell>
        <mxCell id="l63NLzGvEjnrkUhpd7Kd-2" value="email" style="text;strokeColor=none;fillColor=none;spacingLeft=4;spacingRight=4;overflow=hidden;rotatable=0;points=[[0,0.5],[1,0.5]];portConstraint=eastwest;fontSize=12;whiteSpace=wrap;html=1;" parent="5L8FShO72DNKzyxmD7FR-6" vertex="1">
          <mxGeometry y="176" width="160" height="30" as="geometry" />
        </mxCell>
        <mxCell id="l63NLzGvEjnrkUhpd7Kd-3" value="broj_telefona" style="text;strokeColor=none;fillColor=none;spacingLeft=4;spacingRight=4;overflow=hidden;rotatable=0;points=[[0,0.5],[1,0.5]];portConstraint=eastwest;fontSize=12;whiteSpace=wrap;html=1;" parent="5L8FShO72DNKzyxmD7FR-6" vertex="1">
          <mxGeometry y="206" width="160" height="30" as="geometry" />
        </mxCell>
        <mxCell id="l63NLzGvEjnrkUhpd7Kd-10" value="visina" style="text;strokeColor=none;fillColor=none;spacingLeft=4;spacingRight=4;overflow=hidden;rotatable=0;points=[[0,0.5],[1,0.5]];portConstraint=eastwest;fontSize=12;whiteSpace=wrap;html=1;" parent="5L8FShO72DNKzyxmD7FR-6" vertex="1">
          <mxGeometry y="236" width="160" height="30" as="geometry" />
        </mxCell>
        <mxCell id="Xnj83cRvs6DByZSezMd7-108" value="cilj" style="text;strokeColor=none;fillColor=none;spacingLeft=4;spacingRight=4;overflow=hidden;rotatable=0;points=[[0,0.5],[1,0.5]];portConstraint=eastwest;fontSize=12;whiteSpace=wrap;html=1;" vertex="1" parent="5L8FShO72DNKzyxmD7FR-6">
          <mxGeometry y="266" width="160" height="30" as="geometry" />
        </mxCell>
        <mxCell id="l63NLzGvEjnrkUhpd7Kd-23" value="n" style="text;html=1;align=center;verticalAlign=middle;resizable=0;points=[];autosize=1;strokeColor=none;fillColor=none;" parent="1" vertex="1">
          <mxGeometry x="-965" y="370.5" width="30" height="30" as="geometry" />
        </mxCell>
        <mxCell id="l63NLzGvEjnrkUhpd7Kd-27" value="pripada" style="rhombus;whiteSpace=wrap;html=1;" parent="1" vertex="1">
          <mxGeometry x="-680" y="-134" width="80" height="80" as="geometry" />
        </mxCell>
        <mxCell id="l63NLzGvEjnrkUhpd7Kd-28" style="edgeStyle=orthogonalEdgeStyle;rounded=0;orthogonalLoop=1;jettySize=auto;html=1;exitX=0;exitY=0.5;exitDx=0;exitDy=0;entryX=1;entryY=0.5;entryDx=0;entryDy=0;endArrow=none;endFill=0;" parent="1" source="5L8FShO72DNKzyxmD7FR-7" target="l63NLzGvEjnrkUhpd7Kd-27" edge="1">
          <mxGeometry relative="1" as="geometry" />
        </mxCell>
        <mxCell id="l63NLzGvEjnrkUhpd7Kd-31" value="1" style="text;html=1;align=center;verticalAlign=middle;resizable=0;points=[];autosize=1;strokeColor=none;fillColor=none;rotation=0;" parent="1" vertex="1">
          <mxGeometry x="-1050" y="126" width="30" height="30" as="geometry" />
        </mxCell>
        <mxCell id="l63NLzGvEjnrkUhpd7Kd-35" value="GRUPA" style="swimlane;fontStyle=0;childLayout=stackLayout;horizontal=1;startSize=26;horizontalStack=0;resizeParent=1;resizeParentMax=0;resizeLast=0;collapsible=1;marginBottom=0;align=center;fontSize=14;fillColor=#d80073;strokeColor=#A50040;swimlaneFillColor=default;rounded=1;fontColor=#ffffff;" parent="1" vertex="1">
          <mxGeometry x="-1125" y="331" width="160" height="176" as="geometry">
            <mxRectangle x="320" y="250" width="130" height="30" as="alternateBounds" />
          </mxGeometry>
        </mxCell>
        <mxCell id="l63NLzGvEjnrkUhpd7Kd-36" value="&lt;u&gt;&lt;b&gt;GRUPA_ID&lt;/b&gt;&lt;/u&gt;" style="text;strokeColor=none;fillColor=none;spacingLeft=4;spacingRight=4;overflow=hidden;rotatable=0;points=[[0,0.5],[1,0.5]];portConstraint=eastwest;fontSize=12;whiteSpace=wrap;html=1;" parent="l63NLzGvEjnrkUhpd7Kd-35" vertex="1">
          <mxGeometry y="26" width="160" height="30" as="geometry" />
        </mxCell>
        <mxCell id="l63NLzGvEjnrkUhpd7Kd-37" value="naziv" style="text;strokeColor=none;fillColor=none;spacingLeft=4;spacingRight=4;overflow=hidden;rotatable=0;points=[[0,0.5],[1,0.5]];portConstraint=eastwest;fontSize=12;whiteSpace=wrap;html=1;" parent="l63NLzGvEjnrkUhpd7Kd-35" vertex="1">
          <mxGeometry y="56" width="160" height="30" as="geometry" />
        </mxCell>
        <mxCell id="Xnj83cRvs6DByZSezMd7-391" value="opis" style="text;strokeColor=none;fillColor=none;spacingLeft=4;spacingRight=4;overflow=hidden;rotatable=0;points=[[0,0.5],[1,0.5]];portConstraint=eastwest;fontSize=12;whiteSpace=wrap;html=1;" vertex="1" parent="l63NLzGvEjnrkUhpd7Kd-35">
          <mxGeometry y="86" width="160" height="30" as="geometry" />
        </mxCell>
        <mxCell id="Xnj83cRvs6DByZSezMd7-504" value="cilj" style="text;strokeColor=none;fillColor=none;spacingLeft=4;spacingRight=4;overflow=hidden;rotatable=0;points=[[0,0.5],[1,0.5]];portConstraint=eastwest;fontSize=12;whiteSpace=wrap;html=1;" vertex="1" parent="l63NLzGvEjnrkUhpd7Kd-35">
          <mxGeometry y="116" width="160" height="30" as="geometry" />
        </mxCell>
        <mxCell id="Xnj83cRvs6DByZSezMd7-508" value="max_broj_polaznika" style="text;strokeColor=none;fillColor=none;spacingLeft=4;spacingRight=4;overflow=hidden;rotatable=0;points=[[0,0.5],[1,0.5]];portConstraint=eastwest;fontSize=12;whiteSpace=wrap;html=1;" vertex="1" parent="l63NLzGvEjnrkUhpd7Kd-35">
          <mxGeometry y="146" width="160" height="30" as="geometry" />
        </mxCell>
        <mxCell id="l63NLzGvEjnrkUhpd7Kd-45" value="RAD_S_GRUPAMA" style="swimlane;fontStyle=0;childLayout=stackLayout;horizontal=1;startSize=26;horizontalStack=0;resizeParent=1;resizeParentMax=0;resizeLast=0;collapsible=1;marginBottom=0;align=center;fontSize=14;fillColor=#d80073;strokeColor=#A50040;swimlaneFillColor=default;rounded=1;fontColor=#ffffff;" parent="1" vertex="1">
          <mxGeometry x="-1440" y="550" width="160" height="242" as="geometry">
            <mxRectangle x="-50" y="670" width="130" height="30" as="alternateBounds" />
          </mxGeometry>
        </mxCell>
        <mxCell id="l63NLzGvEjnrkUhpd7Kd-47" value="&lt;b&gt;&lt;u&gt;datum_odrzavanja&lt;/u&gt;&lt;/b&gt;" style="text;strokeColor=none;fillColor=none;spacingLeft=4;spacingRight=4;overflow=hidden;rotatable=0;points=[[0,0.5],[1,0.5]];portConstraint=eastwest;fontSize=12;whiteSpace=wrap;html=1;" parent="l63NLzGvEjnrkUhpd7Kd-45" vertex="1">
          <mxGeometry y="26" width="160" height="32" as="geometry" />
        </mxCell>
        <mxCell id="l63NLzGvEjnrkUhpd7Kd-48" value="vrijeme_pocetka" style="text;strokeColor=none;fillColor=none;spacingLeft=4;spacingRight=4;overflow=hidden;rotatable=0;points=[[0,0.5],[1,0.5]];portConstraint=eastwest;fontSize=12;whiteSpace=wrap;html=1;" parent="l63NLzGvEjnrkUhpd7Kd-45" vertex="1">
          <mxGeometry y="58" width="160" height="30" as="geometry" />
        </mxCell>
        <mxCell id="Xnj83cRvs6DByZSezMd7-796" value="vrijeme_zavrsetka" style="text;strokeColor=none;fillColor=none;spacingLeft=4;spacingRight=4;overflow=hidden;rotatable=0;points=[[0,0.5],[1,0.5]];portConstraint=eastwest;fontSize=12;whiteSpace=wrap;html=1;" vertex="1" parent="l63NLzGvEjnrkUhpd7Kd-45">
          <mxGeometry y="88" width="160" height="32" as="geometry" />
        </mxCell>
        <mxCell id="Xnj83cRvs6DByZSezMd7-827" value="vrsta_treninga" style="text;strokeColor=none;fillColor=none;spacingLeft=4;spacingRight=4;overflow=hidden;rotatable=0;points=[[0,0.5],[1,0.5]];portConstraint=eastwest;fontSize=12;whiteSpace=wrap;html=1;" vertex="1" parent="l63NLzGvEjnrkUhpd7Kd-45">
          <mxGeometry y="120" width="160" height="32" as="geometry" />
        </mxCell>
        <mxCell id="l63NLzGvEjnrkUhpd7Kd-50" value="broj_polaznika" style="text;strokeColor=none;fillColor=none;spacingLeft=4;spacingRight=4;overflow=hidden;rotatable=0;points=[[0,0.5],[1,0.5]];portConstraint=eastwest;fontSize=12;whiteSpace=wrap;html=1;" parent="l63NLzGvEjnrkUhpd7Kd-45" vertex="1">
          <mxGeometry y="152" width="160" height="30" as="geometry" />
        </mxCell>
        <mxCell id="l63NLzGvEjnrkUhpd7Kd-51" value="ocjena_trenera" style="text;strokeColor=none;fillColor=none;spacingLeft=4;spacingRight=4;overflow=hidden;rotatable=0;points=[[0,0.5],[1,0.5]];portConstraint=eastwest;fontSize=12;whiteSpace=wrap;html=1;" parent="l63NLzGvEjnrkUhpd7Kd-45" vertex="1">
          <mxGeometry y="182" width="160" height="30" as="geometry" />
        </mxCell>
        <mxCell id="Xnj83cRvs6DByZSezMd7-797" value="ocjena_grupe" style="text;strokeColor=none;fillColor=none;spacingLeft=4;spacingRight=4;overflow=hidden;rotatable=0;points=[[0,0.5],[1,0.5]];portConstraint=eastwest;fontSize=12;whiteSpace=wrap;html=1;" vertex="1" parent="l63NLzGvEjnrkUhpd7Kd-45">
          <mxGeometry y="212" width="160" height="30" as="geometry" />
        </mxCell>
        <mxCell id="l63NLzGvEjnrkUhpd7Kd-54" value="ima" style="rhombus;whiteSpace=wrap;html=1;" parent="1" vertex="1">
          <mxGeometry x="-1100" y="178" width="80" height="80" as="geometry" />
        </mxCell>
        <mxCell id="l63NLzGvEjnrkUhpd7Kd-69" style="edgeStyle=orthogonalEdgeStyle;rounded=0;orthogonalLoop=1;jettySize=auto;html=1;entryX=1;entryY=0.5;entryDx=0;entryDy=0;endArrow=none;endFill=0;" parent="1" source="l63NLzGvEjnrkUhpd7Kd-68" target="5L8FShO72DNKzyxmD7FR-7" edge="1">
          <mxGeometry relative="1" as="geometry" />
        </mxCell>
        <mxCell id="l63NLzGvEjnrkUhpd7Kd-68" value="postiže" style="rhombus;whiteSpace=wrap;html=1;" parent="1" vertex="1">
          <mxGeometry x="-445" y="76" width="80" height="80" as="geometry" />
        </mxCell>
        <mxCell id="l63NLzGvEjnrkUhpd7Kd-73" value="PROGRAM" style="swimlane;fontStyle=0;childLayout=stackLayout;horizontal=1;startSize=26;horizontalStack=0;resizeParent=1;resizeParentMax=0;resizeLast=0;collapsible=1;marginBottom=0;align=center;fontSize=14;fillColor=#d80073;strokeColor=#A50040;swimlaneFillColor=default;rounded=1;fontColor=#ffffff;" parent="1" vertex="1">
          <mxGeometry x="-945" y="654" width="200" height="236" as="geometry">
            <mxRectangle x="320" y="250" width="130" height="30" as="alternateBounds" />
          </mxGeometry>
        </mxCell>
        <mxCell id="l63NLzGvEjnrkUhpd7Kd-75" value="&lt;b&gt;&lt;u&gt;ID_programa&lt;/u&gt;&lt;/b&gt;" style="text;strokeColor=none;fillColor=none;spacingLeft=4;spacingRight=4;overflow=hidden;rotatable=0;points=[[0,0.5],[1,0.5]];portConstraint=eastwest;fontSize=12;whiteSpace=wrap;html=1;" parent="l63NLzGvEjnrkUhpd7Kd-73" vertex="1">
          <mxGeometry y="26" width="200" height="30" as="geometry" />
        </mxCell>
        <mxCell id="Xnj83cRvs6DByZSezMd7-453" value="naziv" style="text;strokeColor=none;fillColor=none;spacingLeft=4;spacingRight=4;overflow=hidden;rotatable=0;points=[[0,0.5],[1,0.5]];portConstraint=eastwest;fontSize=12;whiteSpace=wrap;html=1;" vertex="1" parent="l63NLzGvEjnrkUhpd7Kd-73">
          <mxGeometry y="56" width="200" height="30" as="geometry" />
        </mxCell>
        <mxCell id="l63NLzGvEjnrkUhpd7Kd-76" value="datum_kreiranja" style="text;strokeColor=none;fillColor=none;spacingLeft=4;spacingRight=4;overflow=hidden;rotatable=0;points=[[0,0.5],[1,0.5]];portConstraint=eastwest;fontSize=12;whiteSpace=wrap;html=1;" parent="l63NLzGvEjnrkUhpd7Kd-73" vertex="1">
          <mxGeometry y="86" width="200" height="30" as="geometry" />
        </mxCell>
        <mxCell id="l63NLzGvEjnrkUhpd7Kd-422" value="opis" style="text;strokeColor=none;fillColor=none;spacingLeft=4;spacingRight=4;overflow=hidden;rotatable=0;points=[[0,0.5],[1,0.5]];portConstraint=eastwest;fontSize=12;whiteSpace=wrap;html=1;" parent="l63NLzGvEjnrkUhpd7Kd-73" vertex="1">
          <mxGeometry y="116" width="200" height="30" as="geometry" />
        </mxCell>
        <mxCell id="Xnj83cRvs6DByZSezMd7-467" value="nivo_tezine" style="text;strokeColor=none;fillColor=none;spacingLeft=4;spacingRight=4;overflow=hidden;rotatable=0;points=[[0,0.5],[1,0.5]];portConstraint=eastwest;fontSize=12;whiteSpace=wrap;html=1;" vertex="1" parent="l63NLzGvEjnrkUhpd7Kd-73">
          <mxGeometry y="146" width="200" height="30" as="geometry" />
        </mxCell>
        <mxCell id="l63NLzGvEjnrkUhpd7Kd-77" value="trajanje_programa" style="text;strokeColor=none;fillColor=none;spacingLeft=4;spacingRight=4;overflow=hidden;rotatable=0;points=[[0,0.5],[1,0.5]];portConstraint=eastwest;fontSize=12;whiteSpace=wrap;html=1;" parent="l63NLzGvEjnrkUhpd7Kd-73" vertex="1">
          <mxGeometry y="176" width="200" height="30" as="geometry" />
        </mxCell>
        <mxCell id="l63NLzGvEjnrkUhpd7Kd-79" value="cijena" style="text;strokeColor=none;fillColor=none;spacingLeft=4;spacingRight=4;overflow=hidden;rotatable=0;points=[[0,0.5],[1,0.5]];portConstraint=eastwest;fontSize=12;whiteSpace=wrap;html=1;" parent="l63NLzGvEjnrkUhpd7Kd-73" vertex="1">
          <mxGeometry y="206" width="200" height="30" as="geometry" />
        </mxCell>
        <mxCell id="l63NLzGvEjnrkUhpd7Kd-83" value="n" style="text;html=1;align=center;verticalAlign=middle;resizable=0;points=[];autosize=1;strokeColor=none;fillColor=none;" parent="1" vertex="1">
          <mxGeometry x="-685" y="284" width="30" height="30" as="geometry" />
        </mxCell>
        <mxCell id="l63NLzGvEjnrkUhpd7Kd-85" value="n" style="text;html=1;align=center;verticalAlign=middle;resizable=0;points=[];autosize=1;strokeColor=none;fillColor=none;" parent="1" vertex="1">
          <mxGeometry x="-595" y="654" width="30" height="30" as="geometry" />
        </mxCell>
        <mxCell id="l63NLzGvEjnrkUhpd7Kd-89" style="edgeStyle=orthogonalEdgeStyle;rounded=0;orthogonalLoop=1;jettySize=auto;html=1;entryX=0.75;entryY=0;entryDx=0;entryDy=0;endArrow=none;endFill=0;exitX=0.5;exitY=1;exitDx=0;exitDy=0;" parent="1" source="l63NLzGvEjnrkUhpd7Kd-86" target="l63NLzGvEjnrkUhpd7Kd-45" edge="1">
          <mxGeometry relative="1" as="geometry">
            <mxPoint x="-1100" y="671" as="targetPoint" />
          </mxGeometry>
        </mxCell>
        <mxCell id="l63NLzGvEjnrkUhpd7Kd-86" value="radi" style="rhombus;whiteSpace=wrap;html=1;" parent="1" vertex="1">
          <mxGeometry x="-1235" y="440" width="80" height="80" as="geometry" />
        </mxCell>
        <mxCell id="l63NLzGvEjnrkUhpd7Kd-90" value="n" style="text;html=1;align=center;verticalAlign=middle;resizable=0;points=[];autosize=1;strokeColor=none;fillColor=none;" parent="1" vertex="1">
          <mxGeometry x="-1345" y="520" width="30" height="30" as="geometry" />
        </mxCell>
        <mxCell id="l63NLzGvEjnrkUhpd7Kd-95" value="n" style="text;html=1;align=center;verticalAlign=middle;resizable=0;points=[];autosize=1;strokeColor=none;fillColor=none;" parent="1" vertex="1">
          <mxGeometry x="-830" y="618" width="30" height="30" as="geometry" />
        </mxCell>
        <mxCell id="l63NLzGvEjnrkUhpd7Kd-108" value="n" style="text;html=1;align=center;verticalAlign=middle;resizable=0;points=[];autosize=1;strokeColor=none;fillColor=none;" parent="1" vertex="1">
          <mxGeometry x="-690" y="-350" width="30" height="30" as="geometry" />
        </mxCell>
        <mxCell id="l63NLzGvEjnrkUhpd7Kd-144" style="edgeStyle=orthogonalEdgeStyle;rounded=0;orthogonalLoop=1;jettySize=auto;html=1;endArrow=none;endFill=0;entryX=1;entryY=0.5;entryDx=0;entryDy=0;" parent="1" source="l63NLzGvEjnrkUhpd7Kd-143" target="Xnj83cRvs6DByZSezMd7-423" edge="1">
          <mxGeometry relative="1" as="geometry">
            <mxPoint x="-370" y="690" as="targetPoint" />
            <Array as="points">
              <mxPoint x="-385" y="671" />
            </Array>
          </mxGeometry>
        </mxCell>
        <mxCell id="l63NLzGvEjnrkUhpd7Kd-143" value="ima" style="rhombus;whiteSpace=wrap;html=1;" parent="1" vertex="1">
          <mxGeometry x="-425" y="452" width="80" height="80" as="geometry" />
        </mxCell>
        <mxCell id="l63NLzGvEjnrkUhpd7Kd-149" value="ima" style="rhombus;whiteSpace=wrap;html=1;" parent="1" vertex="1">
          <mxGeometry x="-360" y="336" width="80" height="80" as="geometry" />
        </mxCell>
        <mxCell id="l63NLzGvEjnrkUhpd7Kd-150" style="edgeStyle=orthogonalEdgeStyle;rounded=0;orthogonalLoop=1;jettySize=auto;html=1;entryX=0;entryY=0.5;entryDx=0;entryDy=0;endArrow=none;endFill=0;exitX=1;exitY=0.5;exitDx=0;exitDy=0;" parent="1" target="l63NLzGvEjnrkUhpd7Kd-149" edge="1" source="l63NLzGvEjnrkUhpd7Kd-3">
          <mxGeometry relative="1" as="geometry">
            <mxPoint x="-650" y="430" as="sourcePoint" />
          </mxGeometry>
        </mxCell>
        <mxCell id="l63NLzGvEjnrkUhpd7Kd-151" value="1" style="text;html=1;align=center;verticalAlign=middle;resizable=0;points=[];autosize=1;strokeColor=none;fillColor=none;" parent="1" vertex="1">
          <mxGeometry x="-655" y="70" width="30" height="30" as="geometry" />
        </mxCell>
        <mxCell id="l63NLzGvEjnrkUhpd7Kd-154" value="MEV" style="text;html=1;align=center;verticalAlign=middle;resizable=0;points=[];autosize=1;strokeColor=none;fillColor=none;horizontal=1;fontSize=26;fontStyle=5" parent="1" vertex="1">
          <mxGeometry x="-830" y="-580" width="80" height="40" as="geometry" />
        </mxCell>
        <mxCell id="l63NLzGvEjnrkUhpd7Kd-241" value="GRUPE" style="shape=table;startSize=30;container=1;collapsible=1;childLayout=tableLayout;fixedRows=1;rowLines=0;fontStyle=1;align=center;resizeLast=1;html=1;fillColor=#6a00ff;strokeColor=#3700CC;swimlaneFillColor=default;fontColor=#ffffff;" parent="1" vertex="1">
          <mxGeometry x="140" y="131" width="180" height="90" as="geometry" />
        </mxCell>
        <mxCell id="l63NLzGvEjnrkUhpd7Kd-242" value="" style="shape=tableRow;horizontal=0;startSize=0;swimlaneHead=0;swimlaneBody=0;fillColor=none;collapsible=0;dropTarget=0;points=[[0,0.5],[1,0.5]];portConstraint=eastwest;top=0;left=0;right=0;bottom=1;strokeColor=inherit;strokeWidth=0;" parent="l63NLzGvEjnrkUhpd7Kd-241" vertex="1">
          <mxGeometry y="30" width="180" height="30" as="geometry" />
        </mxCell>
        <mxCell id="l63NLzGvEjnrkUhpd7Kd-243" value="PK,FK" style="shape=partialRectangle;connectable=0;fillColor=none;top=0;left=0;bottom=0;right=0;fontStyle=1;overflow=hidden;whiteSpace=wrap;html=1;" parent="l63NLzGvEjnrkUhpd7Kd-242" vertex="1">
          <mxGeometry width="50.00000000000023" height="30" as="geometry">
            <mxRectangle width="50.00000000000023" height="30" as="alternateBounds" />
          </mxGeometry>
        </mxCell>
        <mxCell id="l63NLzGvEjnrkUhpd7Kd-244" value="*GRUPA_ID" style="shape=partialRectangle;connectable=0;fillColor=none;top=0;left=0;bottom=0;right=0;align=left;spacingLeft=6;fontStyle=5;overflow=hidden;whiteSpace=wrap;html=1;" parent="l63NLzGvEjnrkUhpd7Kd-242" vertex="1">
          <mxGeometry x="50.00000000000023" width="129.99999999999977" height="30" as="geometry">
            <mxRectangle width="129.99999999999977" height="30" as="alternateBounds" />
          </mxGeometry>
        </mxCell>
        <mxCell id="l63NLzGvEjnrkUhpd7Kd-283" value="" style="shape=tableRow;horizontal=0;startSize=0;swimlaneHead=0;swimlaneBody=0;fillColor=none;collapsible=0;dropTarget=0;points=[[0,0.5],[1,0.5]];portConstraint=eastwest;top=0;left=0;right=0;bottom=1;" parent="l63NLzGvEjnrkUhpd7Kd-241" vertex="1">
          <mxGeometry y="60" width="180" height="30" as="geometry" />
        </mxCell>
        <mxCell id="l63NLzGvEjnrkUhpd7Kd-284" value="PK,FK" style="shape=partialRectangle;connectable=0;fillColor=none;top=0;left=0;bottom=0;right=0;fontStyle=1;overflow=hidden;whiteSpace=wrap;html=1;" parent="l63NLzGvEjnrkUhpd7Kd-283" vertex="1">
          <mxGeometry width="50.00000000000023" height="30" as="geometry">
            <mxRectangle width="50.00000000000023" height="30" as="alternateBounds" />
          </mxGeometry>
        </mxCell>
        <mxCell id="l63NLzGvEjnrkUhpd7Kd-285" value="*ID_klijenta" style="shape=partialRectangle;connectable=0;fillColor=none;top=0;left=0;bottom=0;right=0;align=left;spacingLeft=6;fontStyle=5;overflow=hidden;whiteSpace=wrap;html=1;" parent="l63NLzGvEjnrkUhpd7Kd-283" vertex="1">
          <mxGeometry x="50.00000000000023" width="129.99999999999977" height="30" as="geometry">
            <mxRectangle width="129.99999999999977" height="30" as="alternateBounds" />
          </mxGeometry>
        </mxCell>
        <mxCell id="l63NLzGvEjnrkUhpd7Kd-286" value="PROGRAM" style="shape=table;startSize=30;container=1;collapsible=1;childLayout=tableLayout;fixedRows=1;rowLines=0;fontStyle=1;align=center;resizeLast=1;html=1;fillColor=#6a00ff;strokeColor=#3700CC;swimlaneFillColor=default;fontColor=#ffffff;" parent="1" vertex="1">
          <mxGeometry x="830" y="88" width="180.00000000000023" height="270" as="geometry" />
        </mxCell>
        <mxCell id="l63NLzGvEjnrkUhpd7Kd-287" value="" style="shape=tableRow;horizontal=0;startSize=0;swimlaneHead=0;swimlaneBody=0;fillColor=none;collapsible=0;dropTarget=0;points=[[0,0.5],[1,0.5]];portConstraint=eastwest;top=0;left=0;right=0;bottom=1;" parent="l63NLzGvEjnrkUhpd7Kd-286" vertex="1">
          <mxGeometry y="30" width="180.00000000000023" height="30" as="geometry" />
        </mxCell>
        <mxCell id="l63NLzGvEjnrkUhpd7Kd-288" value="PK" style="shape=partialRectangle;connectable=0;fillColor=none;top=0;left=0;bottom=0;right=0;fontStyle=1;overflow=hidden;whiteSpace=wrap;html=1;" parent="l63NLzGvEjnrkUhpd7Kd-287" vertex="1">
          <mxGeometry width="30" height="30" as="geometry">
            <mxRectangle width="30" height="30" as="alternateBounds" />
          </mxGeometry>
        </mxCell>
        <mxCell id="l63NLzGvEjnrkUhpd7Kd-289" value="*&lt;b&gt;&lt;u&gt;ID_programa&lt;/u&gt;&lt;/b&gt;" style="shape=partialRectangle;connectable=0;fillColor=none;top=0;left=0;bottom=0;right=0;align=left;spacingLeft=6;fontStyle=5;overflow=hidden;whiteSpace=wrap;html=1;" parent="l63NLzGvEjnrkUhpd7Kd-287" vertex="1">
          <mxGeometry x="30" width="150.00000000000023" height="30" as="geometry">
            <mxRectangle width="150.00000000000023" height="30" as="alternateBounds" />
          </mxGeometry>
        </mxCell>
        <mxCell id="l63NLzGvEjnrkUhpd7Kd-290" value="" style="shape=tableRow;horizontal=0;startSize=0;swimlaneHead=0;swimlaneBody=0;fillColor=none;collapsible=0;dropTarget=0;points=[[0,0.5],[1,0.5]];portConstraint=eastwest;top=0;left=0;right=0;bottom=0;" parent="l63NLzGvEjnrkUhpd7Kd-286" vertex="1">
          <mxGeometry y="60" width="180.00000000000023" height="30" as="geometry" />
        </mxCell>
        <mxCell id="l63NLzGvEjnrkUhpd7Kd-291" value="" style="shape=partialRectangle;connectable=0;fillColor=none;top=0;left=0;bottom=0;right=0;editable=1;overflow=hidden;whiteSpace=wrap;html=1;" parent="l63NLzGvEjnrkUhpd7Kd-290" vertex="1">
          <mxGeometry width="30" height="30" as="geometry">
            <mxRectangle width="30" height="30" as="alternateBounds" />
          </mxGeometry>
        </mxCell>
        <mxCell id="l63NLzGvEjnrkUhpd7Kd-292" value="* naziv" style="shape=partialRectangle;connectable=0;fillColor=none;top=0;left=0;bottom=0;right=0;align=left;spacingLeft=6;overflow=hidden;whiteSpace=wrap;html=1;" parent="l63NLzGvEjnrkUhpd7Kd-290" vertex="1">
          <mxGeometry x="30" width="150.00000000000023" height="30" as="geometry">
            <mxRectangle width="150.00000000000023" height="30" as="alternateBounds" />
          </mxGeometry>
        </mxCell>
        <mxCell id="l63NLzGvEjnrkUhpd7Kd-293" value="" style="shape=tableRow;horizontal=0;startSize=0;swimlaneHead=0;swimlaneBody=0;fillColor=none;collapsible=0;dropTarget=0;points=[[0,0.5],[1,0.5]];portConstraint=eastwest;top=0;left=0;right=0;bottom=0;" parent="l63NLzGvEjnrkUhpd7Kd-286" vertex="1">
          <mxGeometry y="90" width="180.00000000000023" height="30" as="geometry" />
        </mxCell>
        <mxCell id="l63NLzGvEjnrkUhpd7Kd-294" value="" style="shape=partialRectangle;connectable=0;fillColor=none;top=0;left=0;bottom=0;right=0;editable=1;overflow=hidden;whiteSpace=wrap;html=1;" parent="l63NLzGvEjnrkUhpd7Kd-293" vertex="1">
          <mxGeometry width="30" height="30" as="geometry">
            <mxRectangle width="30" height="30" as="alternateBounds" />
          </mxGeometry>
        </mxCell>
        <mxCell id="l63NLzGvEjnrkUhpd7Kd-295" value="*datum_kreiranja" style="shape=partialRectangle;connectable=0;fillColor=none;top=0;left=0;bottom=0;right=0;align=left;spacingLeft=6;overflow=hidden;whiteSpace=wrap;html=1;" parent="l63NLzGvEjnrkUhpd7Kd-293" vertex="1">
          <mxGeometry x="30" width="150.00000000000023" height="30" as="geometry">
            <mxRectangle width="150.00000000000023" height="30" as="alternateBounds" />
          </mxGeometry>
        </mxCell>
        <mxCell id="l63NLzGvEjnrkUhpd7Kd-305" value="" style="shape=tableRow;horizontal=0;startSize=0;swimlaneHead=0;swimlaneBody=0;fillColor=none;collapsible=0;dropTarget=0;points=[[0,0.5],[1,0.5]];portConstraint=eastwest;top=0;left=0;right=0;bottom=0;" parent="l63NLzGvEjnrkUhpd7Kd-286" vertex="1">
          <mxGeometry y="120" width="180.00000000000023" height="30" as="geometry" />
        </mxCell>
        <mxCell id="l63NLzGvEjnrkUhpd7Kd-306" value="" style="shape=partialRectangle;connectable=0;fillColor=none;top=0;left=0;bottom=0;right=0;editable=1;overflow=hidden;whiteSpace=wrap;html=1;" parent="l63NLzGvEjnrkUhpd7Kd-305" vertex="1">
          <mxGeometry width="30" height="30" as="geometry">
            <mxRectangle width="30" height="30" as="alternateBounds" />
          </mxGeometry>
        </mxCell>
        <mxCell id="l63NLzGvEjnrkUhpd7Kd-307" value="* opis" style="shape=partialRectangle;connectable=0;fillColor=none;top=0;left=0;bottom=0;right=0;align=left;spacingLeft=6;overflow=hidden;whiteSpace=wrap;html=1;" parent="l63NLzGvEjnrkUhpd7Kd-305" vertex="1">
          <mxGeometry x="30" width="150.00000000000023" height="30" as="geometry">
            <mxRectangle width="150.00000000000023" height="30" as="alternateBounds" />
          </mxGeometry>
        </mxCell>
        <mxCell id="Xnj83cRvs6DByZSezMd7-468" value="" style="shape=tableRow;horizontal=0;startSize=0;swimlaneHead=0;swimlaneBody=0;fillColor=none;collapsible=0;dropTarget=0;points=[[0,0.5],[1,0.5]];portConstraint=eastwest;top=0;left=0;right=0;bottom=0;" vertex="1" parent="l63NLzGvEjnrkUhpd7Kd-286">
          <mxGeometry y="150" width="180.00000000000023" height="30" as="geometry" />
        </mxCell>
        <mxCell id="Xnj83cRvs6DByZSezMd7-469" value="" style="shape=partialRectangle;connectable=0;fillColor=none;top=0;left=0;bottom=0;right=0;editable=1;overflow=hidden;whiteSpace=wrap;html=1;" vertex="1" parent="Xnj83cRvs6DByZSezMd7-468">
          <mxGeometry width="30" height="30" as="geometry">
            <mxRectangle width="30" height="30" as="alternateBounds" />
          </mxGeometry>
        </mxCell>
        <mxCell id="Xnj83cRvs6DByZSezMd7-470" value="*nivo_tezine" style="shape=partialRectangle;connectable=0;fillColor=none;top=0;left=0;bottom=0;right=0;align=left;spacingLeft=6;overflow=hidden;whiteSpace=wrap;html=1;" vertex="1" parent="Xnj83cRvs6DByZSezMd7-468">
          <mxGeometry x="30" width="150.00000000000023" height="30" as="geometry">
            <mxRectangle width="150.00000000000023" height="30" as="alternateBounds" />
          </mxGeometry>
        </mxCell>
        <mxCell id="l63NLzGvEjnrkUhpd7Kd-296" value="" style="shape=tableRow;horizontal=0;startSize=0;swimlaneHead=0;swimlaneBody=0;fillColor=none;collapsible=0;dropTarget=0;points=[[0,0.5],[1,0.5]];portConstraint=eastwest;top=0;left=0;right=0;bottom=0;" parent="l63NLzGvEjnrkUhpd7Kd-286" vertex="1">
          <mxGeometry y="180" width="180.00000000000023" height="30" as="geometry" />
        </mxCell>
        <mxCell id="l63NLzGvEjnrkUhpd7Kd-297" value="" style="shape=partialRectangle;connectable=0;fillColor=none;top=0;left=0;bottom=0;right=0;editable=1;overflow=hidden;whiteSpace=wrap;html=1;" parent="l63NLzGvEjnrkUhpd7Kd-296" vertex="1">
          <mxGeometry width="30" height="30" as="geometry">
            <mxRectangle width="30" height="30" as="alternateBounds" />
          </mxGeometry>
        </mxCell>
        <mxCell id="l63NLzGvEjnrkUhpd7Kd-298" value="*trajanje_programa" style="shape=partialRectangle;connectable=0;fillColor=none;top=0;left=0;bottom=0;right=0;align=left;spacingLeft=6;overflow=hidden;whiteSpace=wrap;html=1;" parent="l63NLzGvEjnrkUhpd7Kd-296" vertex="1">
          <mxGeometry x="30" width="150.00000000000023" height="30" as="geometry">
            <mxRectangle width="150.00000000000023" height="30" as="alternateBounds" />
          </mxGeometry>
        </mxCell>
        <mxCell id="l63NLzGvEjnrkUhpd7Kd-302" value="" style="shape=tableRow;horizontal=0;startSize=0;swimlaneHead=0;swimlaneBody=0;fillColor=none;collapsible=0;dropTarget=0;points=[[0,0.5],[1,0.5]];portConstraint=eastwest;top=0;left=0;right=0;bottom=0;" parent="l63NLzGvEjnrkUhpd7Kd-286" vertex="1">
          <mxGeometry y="210" width="180.00000000000023" height="30" as="geometry" />
        </mxCell>
        <mxCell id="l63NLzGvEjnrkUhpd7Kd-303" value="" style="shape=partialRectangle;connectable=0;fillColor=none;top=0;left=0;bottom=0;right=0;editable=1;overflow=hidden;whiteSpace=wrap;html=1;" parent="l63NLzGvEjnrkUhpd7Kd-302" vertex="1">
          <mxGeometry width="30" height="30" as="geometry">
            <mxRectangle width="30" height="30" as="alternateBounds" />
          </mxGeometry>
        </mxCell>
        <mxCell id="l63NLzGvEjnrkUhpd7Kd-304" value="* cijena" style="shape=partialRectangle;connectable=0;fillColor=none;top=0;left=0;bottom=0;right=0;align=left;spacingLeft=6;overflow=hidden;whiteSpace=wrap;html=1;" parent="l63NLzGvEjnrkUhpd7Kd-302" vertex="1">
          <mxGeometry x="30" width="150.00000000000023" height="30" as="geometry">
            <mxRectangle width="150.00000000000023" height="30" as="alternateBounds" />
          </mxGeometry>
        </mxCell>
        <mxCell id="l63NLzGvEjnrkUhpd7Kd-311" value="" style="shape=tableRow;horizontal=0;startSize=0;swimlaneHead=0;swimlaneBody=0;fillColor=none;collapsible=0;dropTarget=0;points=[[0,0.5],[1,0.5]];portConstraint=eastwest;top=0;left=0;right=0;bottom=0;" parent="l63NLzGvEjnrkUhpd7Kd-286" vertex="1">
          <mxGeometry y="240" width="180.00000000000023" height="30" as="geometry" />
        </mxCell>
        <mxCell id="l63NLzGvEjnrkUhpd7Kd-312" value="FK" style="shape=partialRectangle;connectable=0;fillColor=none;top=0;left=0;bottom=0;right=0;editable=1;overflow=hidden;whiteSpace=wrap;html=1;" parent="l63NLzGvEjnrkUhpd7Kd-311" vertex="1">
          <mxGeometry width="30" height="30" as="geometry">
            <mxRectangle width="30" height="30" as="alternateBounds" />
          </mxGeometry>
        </mxCell>
        <mxCell id="l63NLzGvEjnrkUhpd7Kd-313" value="*kreator_trener_ID" style="shape=partialRectangle;connectable=0;fillColor=none;top=0;left=0;bottom=0;right=0;align=left;spacingLeft=6;overflow=hidden;whiteSpace=wrap;html=1;" parent="l63NLzGvEjnrkUhpd7Kd-311" vertex="1">
          <mxGeometry x="30" width="150.00000000000023" height="30" as="geometry">
            <mxRectangle width="150.00000000000023" height="30" as="alternateBounds" />
          </mxGeometry>
        </mxCell>
        <mxCell id="l63NLzGvEjnrkUhpd7Kd-351" value="UZIVO" style="shape=table;startSize=30;container=1;collapsible=1;childLayout=tableLayout;fixedRows=1;rowLines=0;fontStyle=1;align=center;resizeLast=1;html=1;fillColor=#6a00ff;strokeColor=#3700CC;swimlaneFillColor=default;fontColor=#ffffff;" parent="1" vertex="1">
          <mxGeometry x="880" y="387" width="190" height="90" as="geometry" />
        </mxCell>
        <mxCell id="l63NLzGvEjnrkUhpd7Kd-352" value="" style="shape=tableRow;horizontal=0;startSize=0;swimlaneHead=0;swimlaneBody=0;fillColor=none;collapsible=0;dropTarget=0;points=[[0,0.5],[1,0.5]];portConstraint=eastwest;top=0;left=0;right=0;bottom=1;" parent="l63NLzGvEjnrkUhpd7Kd-351" vertex="1">
          <mxGeometry y="30" width="190" height="30" as="geometry" />
        </mxCell>
        <mxCell id="l63NLzGvEjnrkUhpd7Kd-353" value="PK, FK" style="shape=partialRectangle;connectable=0;fillColor=none;top=0;left=0;bottom=0;right=0;fontStyle=1;overflow=hidden;whiteSpace=wrap;html=1;" parent="l63NLzGvEjnrkUhpd7Kd-352" vertex="1">
          <mxGeometry width="50" height="30" as="geometry">
            <mxRectangle width="50" height="30" as="alternateBounds" />
          </mxGeometry>
        </mxCell>
        <mxCell id="l63NLzGvEjnrkUhpd7Kd-354" value="*ID_uzivo_programa" style="shape=partialRectangle;connectable=0;fillColor=none;top=0;left=0;bottom=0;right=0;align=left;spacingLeft=6;fontStyle=5;overflow=hidden;whiteSpace=wrap;html=1;" parent="l63NLzGvEjnrkUhpd7Kd-352" vertex="1">
          <mxGeometry x="50" width="140" height="30" as="geometry">
            <mxRectangle width="140" height="30" as="alternateBounds" />
          </mxGeometry>
        </mxCell>
        <mxCell id="l63NLzGvEjnrkUhpd7Kd-355" value="" style="shape=tableRow;horizontal=0;startSize=0;swimlaneHead=0;swimlaneBody=0;fillColor=none;collapsible=0;dropTarget=0;points=[[0,0.5],[1,0.5]];portConstraint=eastwest;top=0;left=0;right=0;bottom=0;" parent="l63NLzGvEjnrkUhpd7Kd-351" vertex="1">
          <mxGeometry y="60" width="190" height="30" as="geometry" />
        </mxCell>
        <mxCell id="l63NLzGvEjnrkUhpd7Kd-356" value="" style="shape=partialRectangle;connectable=0;fillColor=none;top=0;left=0;bottom=0;right=0;editable=1;overflow=hidden;whiteSpace=wrap;html=1;" parent="l63NLzGvEjnrkUhpd7Kd-355" vertex="1">
          <mxGeometry width="50" height="30" as="geometry">
            <mxRectangle width="50" height="30" as="alternateBounds" />
          </mxGeometry>
        </mxCell>
        <mxCell id="l63NLzGvEjnrkUhpd7Kd-357" value="*lokacija" style="shape=partialRectangle;connectable=0;fillColor=none;top=0;left=0;bottom=0;right=0;align=left;spacingLeft=6;overflow=hidden;whiteSpace=wrap;html=1;" parent="l63NLzGvEjnrkUhpd7Kd-355" vertex="1">
          <mxGeometry x="50" width="140" height="30" as="geometry">
            <mxRectangle width="140" height="30" as="alternateBounds" />
          </mxGeometry>
        </mxCell>
        <mxCell id="l63NLzGvEjnrkUhpd7Kd-399" value="WORKLOG" style="shape=table;startSize=30;container=1;collapsible=1;childLayout=tableLayout;fixedRows=1;rowLines=0;fontStyle=1;align=center;resizeLast=1;html=1;fillColor=#6a00ff;strokeColor=#3700CC;swimlaneFillColor=default;fontColor=#ffffff;" parent="1" vertex="1">
          <mxGeometry x="1330" y="51" width="180" height="180" as="geometry" />
        </mxCell>
        <mxCell id="l63NLzGvEjnrkUhpd7Kd-400" value="" style="shape=tableRow;horizontal=0;startSize=0;swimlaneHead=0;swimlaneBody=0;fillColor=none;collapsible=0;dropTarget=0;points=[[0,0.5],[1,0.5]];portConstraint=eastwest;top=0;left=0;right=0;bottom=1;strokeColor=default;swimlaneLine=1;swimlaneFillColor=none;strokeWidth=0;" parent="l63NLzGvEjnrkUhpd7Kd-399" vertex="1">
          <mxGeometry y="30" width="180" height="30" as="geometry" />
        </mxCell>
        <mxCell id="l63NLzGvEjnrkUhpd7Kd-401" value="PK,FK" style="shape=partialRectangle;connectable=0;fillColor=none;top=0;left=0;bottom=0;right=0;fontStyle=1;overflow=hidden;whiteSpace=wrap;html=1;" parent="l63NLzGvEjnrkUhpd7Kd-400" vertex="1">
          <mxGeometry width="40" height="30" as="geometry">
            <mxRectangle width="40" height="30" as="alternateBounds" />
          </mxGeometry>
        </mxCell>
        <mxCell id="l63NLzGvEjnrkUhpd7Kd-402" value="*id_ZADATKA" style="shape=partialRectangle;connectable=0;fillColor=none;top=0;left=0;bottom=0;right=0;align=left;spacingLeft=6;fontStyle=5;overflow=hidden;whiteSpace=wrap;html=1;" parent="l63NLzGvEjnrkUhpd7Kd-400" vertex="1">
          <mxGeometry x="40" width="140" height="30" as="geometry">
            <mxRectangle width="140" height="30" as="alternateBounds" />
          </mxGeometry>
        </mxCell>
        <mxCell id="l63NLzGvEjnrkUhpd7Kd-412" value="" style="shape=tableRow;horizontal=0;startSize=0;swimlaneHead=0;swimlaneBody=0;fillColor=none;collapsible=0;dropTarget=0;points=[[0,0.5],[1,0.5]];portConstraint=eastwest;top=0;left=0;right=0;bottom=1;" parent="l63NLzGvEjnrkUhpd7Kd-399" vertex="1">
          <mxGeometry y="60" width="180" height="30" as="geometry" />
        </mxCell>
        <mxCell id="l63NLzGvEjnrkUhpd7Kd-413" value="PK,FK" style="shape=partialRectangle;connectable=0;fillColor=none;top=0;left=0;bottom=0;right=0;fontStyle=1;overflow=hidden;whiteSpace=wrap;html=1;" parent="l63NLzGvEjnrkUhpd7Kd-412" vertex="1">
          <mxGeometry width="40" height="30" as="geometry">
            <mxRectangle width="40" height="30" as="alternateBounds" />
          </mxGeometry>
        </mxCell>
        <mxCell id="l63NLzGvEjnrkUhpd7Kd-414" value="*ID_klijenta" style="shape=partialRectangle;connectable=0;fillColor=none;top=0;left=0;bottom=0;right=0;align=left;spacingLeft=6;fontStyle=5;overflow=hidden;whiteSpace=wrap;html=1;" parent="l63NLzGvEjnrkUhpd7Kd-412" vertex="1">
          <mxGeometry x="40" width="140" height="30" as="geometry">
            <mxRectangle width="140" height="30" as="alternateBounds" />
          </mxGeometry>
        </mxCell>
        <mxCell id="l63NLzGvEjnrkUhpd7Kd-403" value="" style="shape=tableRow;horizontal=0;startSize=0;swimlaneHead=0;swimlaneBody=0;fillColor=none;collapsible=0;dropTarget=0;points=[[0,0.5],[1,0.5]];portConstraint=eastwest;top=0;left=0;right=0;bottom=0;" parent="l63NLzGvEjnrkUhpd7Kd-399" vertex="1">
          <mxGeometry y="90" width="180" height="30" as="geometry" />
        </mxCell>
        <mxCell id="l63NLzGvEjnrkUhpd7Kd-404" value="" style="shape=partialRectangle;connectable=0;fillColor=none;top=0;left=0;bottom=0;right=0;editable=1;overflow=hidden;whiteSpace=wrap;html=1;" parent="l63NLzGvEjnrkUhpd7Kd-403" vertex="1">
          <mxGeometry width="40" height="30" as="geometry">
            <mxRectangle width="40" height="30" as="alternateBounds" />
          </mxGeometry>
        </mxCell>
        <mxCell id="l63NLzGvEjnrkUhpd7Kd-405" value="*vrijeme_kreiranja" style="shape=partialRectangle;connectable=0;fillColor=none;top=0;left=0;bottom=0;right=0;align=left;spacingLeft=6;overflow=hidden;whiteSpace=wrap;html=1;" parent="l63NLzGvEjnrkUhpd7Kd-403" vertex="1">
          <mxGeometry x="40" width="140" height="30" as="geometry">
            <mxRectangle width="140" height="30" as="alternateBounds" />
          </mxGeometry>
        </mxCell>
        <mxCell id="l63NLzGvEjnrkUhpd7Kd-406" value="" style="shape=tableRow;horizontal=0;startSize=0;swimlaneHead=0;swimlaneBody=0;fillColor=none;collapsible=0;dropTarget=0;points=[[0,0.5],[1,0.5]];portConstraint=eastwest;top=0;left=0;right=0;bottom=0;" parent="l63NLzGvEjnrkUhpd7Kd-399" vertex="1">
          <mxGeometry y="120" width="180" height="30" as="geometry" />
        </mxCell>
        <mxCell id="l63NLzGvEjnrkUhpd7Kd-407" value="" style="shape=partialRectangle;connectable=0;fillColor=none;top=0;left=0;bottom=0;right=0;editable=1;overflow=hidden;whiteSpace=wrap;html=1;" parent="l63NLzGvEjnrkUhpd7Kd-406" vertex="1">
          <mxGeometry width="40" height="30" as="geometry">
            <mxRectangle width="40" height="30" as="alternateBounds" />
          </mxGeometry>
        </mxCell>
        <mxCell id="l63NLzGvEjnrkUhpd7Kd-408" value="*komentar" style="shape=partialRectangle;connectable=0;fillColor=none;top=0;left=0;bottom=0;right=0;align=left;spacingLeft=6;overflow=hidden;whiteSpace=wrap;html=1;" parent="l63NLzGvEjnrkUhpd7Kd-406" vertex="1">
          <mxGeometry x="40" width="140" height="30" as="geometry">
            <mxRectangle width="140" height="30" as="alternateBounds" />
          </mxGeometry>
        </mxCell>
        <mxCell id="l63NLzGvEjnrkUhpd7Kd-409" value="" style="shape=tableRow;horizontal=0;startSize=0;swimlaneHead=0;swimlaneBody=0;fillColor=none;collapsible=0;dropTarget=0;points=[[0,0.5],[1,0.5]];portConstraint=eastwest;top=0;left=0;right=0;bottom=0;" parent="l63NLzGvEjnrkUhpd7Kd-399" vertex="1">
          <mxGeometry y="150" width="180" height="30" as="geometry" />
        </mxCell>
        <mxCell id="l63NLzGvEjnrkUhpd7Kd-410" value="" style="shape=partialRectangle;connectable=0;fillColor=none;top=0;left=0;bottom=0;right=0;editable=1;overflow=hidden;whiteSpace=wrap;html=1;" parent="l63NLzGvEjnrkUhpd7Kd-409" vertex="1">
          <mxGeometry width="40" height="30" as="geometry">
            <mxRectangle width="40" height="30" as="alternateBounds" />
          </mxGeometry>
        </mxCell>
        <mxCell id="l63NLzGvEjnrkUhpd7Kd-411" value="*&lt;span style=&quot;text-align: center;&quot;&gt;opis_odradenog_posla&lt;/span&gt;" style="shape=partialRectangle;connectable=0;fillColor=none;top=0;left=0;bottom=0;right=0;align=left;spacingLeft=6;overflow=hidden;whiteSpace=wrap;html=1;" parent="l63NLzGvEjnrkUhpd7Kd-409" vertex="1">
          <mxGeometry x="40" width="140" height="30" as="geometry">
            <mxRectangle width="140" height="30" as="alternateBounds" />
          </mxGeometry>
        </mxCell>
        <mxCell id="l63NLzGvEjnrkUhpd7Kd-415" value="RELACIJSKI MODEL" style="text;html=1;align=center;verticalAlign=middle;resizable=0;points=[];autosize=1;strokeColor=none;fillColor=none;horizontal=1;fontSize=26;fontStyle=5" parent="1" vertex="1">
          <mxGeometry x="750" y="-570" width="270" height="40" as="geometry" />
        </mxCell>
        <mxCell id="l63NLzGvEjnrkUhpd7Kd-423" value="RAD_S_GRUPAMA" style="shape=table;startSize=30;container=1;collapsible=1;childLayout=tableLayout;fixedRows=1;rowLines=0;fontStyle=1;align=center;resizeLast=1;html=1;fillColor=#6a00ff;strokeColor=#3700CC;swimlaneFillColor=default;fontColor=#ffffff;" parent="1" vertex="1">
          <mxGeometry x="160" y="-220" width="180" height="312" as="geometry" />
        </mxCell>
        <mxCell id="l63NLzGvEjnrkUhpd7Kd-424" value="" style="shape=tableRow;horizontal=0;startSize=0;swimlaneHead=0;swimlaneBody=0;fillColor=none;collapsible=0;dropTarget=0;points=[[0,0.5],[1,0.5]];portConstraint=eastwest;top=0;left=0;right=0;bottom=1;strokeWidth=0;" parent="l63NLzGvEjnrkUhpd7Kd-423" vertex="1">
          <mxGeometry y="30" width="180" height="30" as="geometry" />
        </mxCell>
        <mxCell id="l63NLzGvEjnrkUhpd7Kd-425" value="PK,FK" style="shape=partialRectangle;connectable=0;fillColor=none;top=0;left=0;bottom=0;right=0;fontStyle=1;overflow=hidden;whiteSpace=wrap;html=1;" parent="l63NLzGvEjnrkUhpd7Kd-424" vertex="1">
          <mxGeometry width="40" height="30" as="geometry">
            <mxRectangle width="40" height="30" as="alternateBounds" />
          </mxGeometry>
        </mxCell>
        <mxCell id="l63NLzGvEjnrkUhpd7Kd-426" value="*ID_trenera" style="shape=partialRectangle;connectable=0;fillColor=none;top=0;left=0;bottom=0;right=0;align=left;spacingLeft=6;fontStyle=5;overflow=hidden;whiteSpace=wrap;html=1;" parent="l63NLzGvEjnrkUhpd7Kd-424" vertex="1">
          <mxGeometry x="40" width="140" height="30" as="geometry">
            <mxRectangle width="140" height="30" as="alternateBounds" />
          </mxGeometry>
        </mxCell>
        <mxCell id="Xnj83cRvs6DByZSezMd7-820" value="" style="shape=tableRow;horizontal=0;startSize=0;swimlaneHead=0;swimlaneBody=0;fillColor=none;collapsible=0;dropTarget=0;points=[[0,0.5],[1,0.5]];portConstraint=eastwest;top=0;left=0;right=0;bottom=1;strokeWidth=0;" vertex="1" parent="l63NLzGvEjnrkUhpd7Kd-423">
          <mxGeometry y="60" width="180" height="30" as="geometry" />
        </mxCell>
        <mxCell id="Xnj83cRvs6DByZSezMd7-821" value="PK,FK" style="shape=partialRectangle;connectable=0;fillColor=none;top=0;left=0;bottom=0;right=0;fontStyle=1;overflow=hidden;whiteSpace=wrap;html=1;" vertex="1" parent="Xnj83cRvs6DByZSezMd7-820">
          <mxGeometry width="40" height="30" as="geometry">
            <mxRectangle width="40" height="30" as="alternateBounds" />
          </mxGeometry>
        </mxCell>
        <mxCell id="Xnj83cRvs6DByZSezMd7-822" value="*GRUPA_ID" style="shape=partialRectangle;connectable=0;fillColor=none;top=0;left=0;bottom=0;right=0;align=left;spacingLeft=6;fontStyle=5;overflow=hidden;whiteSpace=wrap;html=1;" vertex="1" parent="Xnj83cRvs6DByZSezMd7-820">
          <mxGeometry x="40" width="140" height="30" as="geometry">
            <mxRectangle width="140" height="30" as="alternateBounds" />
          </mxGeometry>
        </mxCell>
        <mxCell id="l63NLzGvEjnrkUhpd7Kd-436" value="" style="shape=tableRow;horizontal=0;startSize=0;swimlaneHead=0;swimlaneBody=0;fillColor=none;collapsible=0;dropTarget=0;points=[[0,0.5],[1,0.5]];portConstraint=eastwest;top=0;left=0;right=0;bottom=1;" parent="l63NLzGvEjnrkUhpd7Kd-423" vertex="1">
          <mxGeometry y="90" width="180" height="30" as="geometry" />
        </mxCell>
        <mxCell id="l63NLzGvEjnrkUhpd7Kd-437" value="PK" style="shape=partialRectangle;connectable=0;fillColor=none;top=0;left=0;bottom=0;right=0;fontStyle=1;overflow=hidden;whiteSpace=wrap;html=1;" parent="l63NLzGvEjnrkUhpd7Kd-436" vertex="1">
          <mxGeometry width="40" height="30" as="geometry">
            <mxRectangle width="40" height="30" as="alternateBounds" />
          </mxGeometry>
        </mxCell>
        <mxCell id="l63NLzGvEjnrkUhpd7Kd-438" value="*datum_odrzavanja" style="shape=partialRectangle;connectable=0;fillColor=none;top=0;left=0;bottom=0;right=0;align=left;spacingLeft=6;fontStyle=5;overflow=hidden;whiteSpace=wrap;html=1;" parent="l63NLzGvEjnrkUhpd7Kd-436" vertex="1">
          <mxGeometry x="40" width="140" height="30" as="geometry">
            <mxRectangle width="140" height="30" as="alternateBounds" />
          </mxGeometry>
        </mxCell>
        <mxCell id="l63NLzGvEjnrkUhpd7Kd-430" value="" style="shape=tableRow;horizontal=0;startSize=0;swimlaneHead=0;swimlaneBody=0;fillColor=none;collapsible=0;dropTarget=0;points=[[0,0.5],[1,0.5]];portConstraint=eastwest;top=0;left=0;right=0;bottom=0;" parent="l63NLzGvEjnrkUhpd7Kd-423" vertex="1">
          <mxGeometry y="120" width="180" height="32" as="geometry" />
        </mxCell>
        <mxCell id="l63NLzGvEjnrkUhpd7Kd-431" value="" style="shape=partialRectangle;connectable=0;fillColor=none;top=0;left=0;bottom=0;right=0;editable=1;overflow=hidden;whiteSpace=wrap;html=1;" parent="l63NLzGvEjnrkUhpd7Kd-430" vertex="1">
          <mxGeometry width="40" height="32" as="geometry">
            <mxRectangle width="40" height="32" as="alternateBounds" />
          </mxGeometry>
        </mxCell>
        <mxCell id="l63NLzGvEjnrkUhpd7Kd-432" value="*vrijeme_pocetka" style="shape=partialRectangle;connectable=0;fillColor=none;top=0;left=0;bottom=0;right=0;align=left;spacingLeft=6;overflow=hidden;whiteSpace=wrap;html=1;" parent="l63NLzGvEjnrkUhpd7Kd-430" vertex="1">
          <mxGeometry x="40" width="140" height="32" as="geometry">
            <mxRectangle width="140" height="32" as="alternateBounds" />
          </mxGeometry>
        </mxCell>
        <mxCell id="Xnj83cRvs6DByZSezMd7-798" value="" style="shape=tableRow;horizontal=0;startSize=0;swimlaneHead=0;swimlaneBody=0;fillColor=none;collapsible=0;dropTarget=0;points=[[0,0.5],[1,0.5]];portConstraint=eastwest;top=0;left=0;right=0;bottom=0;" vertex="1" parent="l63NLzGvEjnrkUhpd7Kd-423">
          <mxGeometry y="152" width="180" height="32" as="geometry" />
        </mxCell>
        <mxCell id="Xnj83cRvs6DByZSezMd7-799" value="" style="shape=partialRectangle;connectable=0;fillColor=none;top=0;left=0;bottom=0;right=0;editable=1;overflow=hidden;whiteSpace=wrap;html=1;" vertex="1" parent="Xnj83cRvs6DByZSezMd7-798">
          <mxGeometry width="40" height="32" as="geometry">
            <mxRectangle width="40" height="32" as="alternateBounds" />
          </mxGeometry>
        </mxCell>
        <mxCell id="Xnj83cRvs6DByZSezMd7-800" value="*vrijeme_zavrsetka" style="shape=partialRectangle;connectable=0;fillColor=none;top=0;left=0;bottom=0;right=0;align=left;spacingLeft=6;overflow=hidden;whiteSpace=wrap;html=1;" vertex="1" parent="Xnj83cRvs6DByZSezMd7-798">
          <mxGeometry x="40" width="140" height="32" as="geometry">
            <mxRectangle width="140" height="32" as="alternateBounds" />
          </mxGeometry>
        </mxCell>
        <mxCell id="Xnj83cRvs6DByZSezMd7-828" value="" style="shape=tableRow;horizontal=0;startSize=0;swimlaneHead=0;swimlaneBody=0;fillColor=none;collapsible=0;dropTarget=0;points=[[0,0.5],[1,0.5]];portConstraint=eastwest;top=0;left=0;right=0;bottom=0;" vertex="1" parent="l63NLzGvEjnrkUhpd7Kd-423">
          <mxGeometry y="184" width="180" height="32" as="geometry" />
        </mxCell>
        <mxCell id="Xnj83cRvs6DByZSezMd7-829" value="" style="shape=partialRectangle;connectable=0;fillColor=none;top=0;left=0;bottom=0;right=0;editable=1;overflow=hidden;whiteSpace=wrap;html=1;" vertex="1" parent="Xnj83cRvs6DByZSezMd7-828">
          <mxGeometry width="40" height="32" as="geometry">
            <mxRectangle width="40" height="32" as="alternateBounds" />
          </mxGeometry>
        </mxCell>
        <mxCell id="Xnj83cRvs6DByZSezMd7-830" value="*vrsta_treninga" style="shape=partialRectangle;connectable=0;fillColor=none;top=0;left=0;bottom=0;right=0;align=left;spacingLeft=6;overflow=hidden;whiteSpace=wrap;html=1;" vertex="1" parent="Xnj83cRvs6DByZSezMd7-828">
          <mxGeometry x="40" width="140" height="32" as="geometry">
            <mxRectangle width="140" height="32" as="alternateBounds" />
          </mxGeometry>
        </mxCell>
        <mxCell id="Xnj83cRvs6DByZSezMd7-814" value="" style="shape=tableRow;horizontal=0;startSize=0;swimlaneHead=0;swimlaneBody=0;fillColor=none;collapsible=0;dropTarget=0;points=[[0,0.5],[1,0.5]];portConstraint=eastwest;top=0;left=0;right=0;bottom=0;" vertex="1" parent="l63NLzGvEjnrkUhpd7Kd-423">
          <mxGeometry y="216" width="180" height="32" as="geometry" />
        </mxCell>
        <mxCell id="Xnj83cRvs6DByZSezMd7-815" value="" style="shape=partialRectangle;connectable=0;fillColor=none;top=0;left=0;bottom=0;right=0;editable=1;overflow=hidden;whiteSpace=wrap;html=1;" vertex="1" parent="Xnj83cRvs6DByZSezMd7-814">
          <mxGeometry width="40" height="32" as="geometry">
            <mxRectangle width="40" height="32" as="alternateBounds" />
          </mxGeometry>
        </mxCell>
        <mxCell id="Xnj83cRvs6DByZSezMd7-816" value="*broj_polaznika" style="shape=partialRectangle;connectable=0;fillColor=none;top=0;left=0;bottom=0;right=0;align=left;spacingLeft=6;overflow=hidden;whiteSpace=wrap;html=1;" vertex="1" parent="Xnj83cRvs6DByZSezMd7-814">
          <mxGeometry x="40" width="140" height="32" as="geometry">
            <mxRectangle width="140" height="32" as="alternateBounds" />
          </mxGeometry>
        </mxCell>
        <mxCell id="Xnj83cRvs6DByZSezMd7-817" value="" style="shape=tableRow;horizontal=0;startSize=0;swimlaneHead=0;swimlaneBody=0;fillColor=none;collapsible=0;dropTarget=0;points=[[0,0.5],[1,0.5]];portConstraint=eastwest;top=0;left=0;right=0;bottom=0;" vertex="1" parent="l63NLzGvEjnrkUhpd7Kd-423">
          <mxGeometry y="248" width="180" height="32" as="geometry" />
        </mxCell>
        <mxCell id="Xnj83cRvs6DByZSezMd7-818" value="" style="shape=partialRectangle;connectable=0;fillColor=none;top=0;left=0;bottom=0;right=0;editable=1;overflow=hidden;whiteSpace=wrap;html=1;" vertex="1" parent="Xnj83cRvs6DByZSezMd7-817">
          <mxGeometry width="40" height="32" as="geometry">
            <mxRectangle width="40" height="32" as="alternateBounds" />
          </mxGeometry>
        </mxCell>
        <mxCell id="Xnj83cRvs6DByZSezMd7-819" value="*ocjena_trenera" style="shape=partialRectangle;connectable=0;fillColor=none;top=0;left=0;bottom=0;right=0;align=left;spacingLeft=6;overflow=hidden;whiteSpace=wrap;html=1;" vertex="1" parent="Xnj83cRvs6DByZSezMd7-817">
          <mxGeometry x="40" width="140" height="32" as="geometry">
            <mxRectangle width="140" height="32" as="alternateBounds" />
          </mxGeometry>
        </mxCell>
        <mxCell id="Xnj83cRvs6DByZSezMd7-823" value="" style="shape=tableRow;horizontal=0;startSize=0;swimlaneHead=0;swimlaneBody=0;fillColor=none;collapsible=0;dropTarget=0;points=[[0,0.5],[1,0.5]];portConstraint=eastwest;top=0;left=0;right=0;bottom=0;" vertex="1" parent="l63NLzGvEjnrkUhpd7Kd-423">
          <mxGeometry y="280" width="180" height="32" as="geometry" />
        </mxCell>
        <mxCell id="Xnj83cRvs6DByZSezMd7-824" value="" style="shape=partialRectangle;connectable=0;fillColor=none;top=0;left=0;bottom=0;right=0;editable=1;overflow=hidden;whiteSpace=wrap;html=1;" vertex="1" parent="Xnj83cRvs6DByZSezMd7-823">
          <mxGeometry width="40" height="32" as="geometry">
            <mxRectangle width="40" height="32" as="alternateBounds" />
          </mxGeometry>
        </mxCell>
        <mxCell id="Xnj83cRvs6DByZSezMd7-825" value="ocjena_grupe" style="shape=partialRectangle;connectable=0;fillColor=none;top=0;left=0;bottom=0;right=0;align=left;spacingLeft=6;overflow=hidden;whiteSpace=wrap;html=1;" vertex="1" parent="Xnj83cRvs6DByZSezMd7-823">
          <mxGeometry x="40" width="140" height="32" as="geometry">
            <mxRectangle width="140" height="32" as="alternateBounds" />
          </mxGeometry>
        </mxCell>
        <mxCell id="l63NLzGvEjnrkUhpd7Kd-439" value="pripada" style="rhombus;whiteSpace=wrap;html=1;" parent="1" vertex="1">
          <mxGeometry x="-850" y="278" width="90" height="80" as="geometry" />
        </mxCell>
        <mxCell id="l63NLzGvEjnrkUhpd7Kd-441" value="n" style="text;html=1;align=center;verticalAlign=middle;resizable=0;points=[];autosize=1;strokeColor=none;fillColor=none;" parent="1" vertex="1">
          <mxGeometry x="-1075" y="290" width="30" height="30" as="geometry" />
        </mxCell>
        <mxCell id="fb7B25jU6JOEQ9ZOqQDt-6" value="OSOBNI_NAPREDAK" style="rounded=0;whiteSpace=wrap;html=1;fillColor=#d80073;fontColor=#ffffff;strokeColor=#A50040;" parent="1" vertex="1">
          <mxGeometry x="-300" y="156" width="120" height="60" as="geometry" />
        </mxCell>
        <mxCell id="fb7B25jU6JOEQ9ZOqQDt-7" value="&lt;b&gt;&lt;u&gt;ID_napretka&lt;/u&gt;&lt;/b&gt;" style="ellipse;whiteSpace=wrap;html=1;" parent="1" vertex="1">
          <mxGeometry x="-350" y="50" width="100" height="70" as="geometry" />
        </mxCell>
        <mxCell id="fb7B25jU6JOEQ9ZOqQDt-8" value="&lt;b&gt;&lt;u&gt;ID_klijenta&lt;/u&gt;&lt;/b&gt;" style="ellipse;whiteSpace=wrap;html=1;" parent="1" vertex="1">
          <mxGeometry x="-230" y="10" width="90" height="70" as="geometry" />
        </mxCell>
        <mxCell id="fb7B25jU6JOEQ9ZOqQDt-9" value="težina" style="ellipse;whiteSpace=wrap;html=1;" parent="1" vertex="1">
          <mxGeometry x="-135" y="198" width="90" height="60" as="geometry" />
        </mxCell>
        <mxCell id="fb7B25jU6JOEQ9ZOqQDt-10" value="postotak_masti" style="ellipse;whiteSpace=wrap;html=1;" parent="1" vertex="1">
          <mxGeometry x="-210" y="250" width="100" height="70" as="geometry" />
        </mxCell>
        <mxCell id="fb7B25jU6JOEQ9ZOqQDt-14" value="" style="endArrow=none;html=1;rounded=0;exitX=0.5;exitY=0;exitDx=0;exitDy=0;entryX=0;entryY=1;entryDx=0;entryDy=0;" parent="1" source="fb7B25jU6JOEQ9ZOqQDt-6" target="fb7B25jU6JOEQ9ZOqQDt-8" edge="1">
          <mxGeometry width="50" height="50" relative="1" as="geometry">
            <mxPoint x="-480" y="220" as="sourcePoint" />
            <mxPoint x="-430" y="170" as="targetPoint" />
          </mxGeometry>
        </mxCell>
        <mxCell id="fb7B25jU6JOEQ9ZOqQDt-15" value="" style="endArrow=none;html=1;rounded=0;entryX=0.25;entryY=0;entryDx=0;entryDy=0;exitX=0.5;exitY=1;exitDx=0;exitDy=0;" parent="1" source="fb7B25jU6JOEQ9ZOqQDt-7" target="fb7B25jU6JOEQ9ZOqQDt-6" edge="1">
          <mxGeometry width="50" height="50" relative="1" as="geometry">
            <mxPoint x="-870" y="280" as="sourcePoint" />
            <mxPoint x="-820" y="230" as="targetPoint" />
          </mxGeometry>
        </mxCell>
        <mxCell id="fb7B25jU6JOEQ9ZOqQDt-16" value="" style="endArrow=none;html=1;rounded=0;entryX=0.75;entryY=1;entryDx=0;entryDy=0;exitX=0.5;exitY=0;exitDx=0;exitDy=0;" parent="1" source="fb7B25jU6JOEQ9ZOqQDt-10" target="fb7B25jU6JOEQ9ZOqQDt-6" edge="1">
          <mxGeometry width="50" height="50" relative="1" as="geometry">
            <mxPoint x="-870" y="280" as="sourcePoint" />
            <mxPoint x="-820" y="230" as="targetPoint" />
          </mxGeometry>
        </mxCell>
        <mxCell id="fb7B25jU6JOEQ9ZOqQDt-17" value="" style="endArrow=none;html=1;rounded=0;entryX=1;entryY=0.75;entryDx=0;entryDy=0;exitX=0;exitY=0;exitDx=0;exitDy=0;" parent="1" source="fb7B25jU6JOEQ9ZOqQDt-9" target="fb7B25jU6JOEQ9ZOqQDt-6" edge="1">
          <mxGeometry width="50" height="50" relative="1" as="geometry">
            <mxPoint x="-870" y="280" as="sourcePoint" />
            <mxPoint x="-820" y="230" as="targetPoint" />
          </mxGeometry>
        </mxCell>
        <mxCell id="fb7B25jU6JOEQ9ZOqQDt-19" value="" style="endArrow=classic;html=1;rounded=0;exitX=1;exitY=0.5;exitDx=0;exitDy=0;entryX=0;entryY=0.5;entryDx=0;entryDy=0;" parent="1" source="l63NLzGvEjnrkUhpd7Kd-68" target="fb7B25jU6JOEQ9ZOqQDt-6" edge="1">
          <mxGeometry width="50" height="50" relative="1" as="geometry">
            <mxPoint x="-890" y="370" as="sourcePoint" />
            <mxPoint x="-840" y="320" as="targetPoint" />
          </mxGeometry>
        </mxCell>
        <mxCell id="fb7B25jU6JOEQ9ZOqQDt-22" value="WORK_LOG" style="rounded=0;whiteSpace=wrap;html=1;fillColor=#d80073;fontColor=#ffffff;strokeColor=#A50040;" parent="1" vertex="1">
          <mxGeometry x="-300" y="460" width="120" height="60" as="geometry" />
        </mxCell>
        <mxCell id="fb7B25jU6JOEQ9ZOqQDt-23" value="&lt;b&gt;&lt;u&gt;ID_klijenta&lt;/u&gt;&lt;/b&gt;" style="ellipse;whiteSpace=wrap;html=1;" parent="1" vertex="1">
          <mxGeometry x="-275" y="530" width="110" height="71" as="geometry" />
        </mxCell>
        <mxCell id="fb7B25jU6JOEQ9ZOqQDt-24" value="komentar" style="ellipse;whiteSpace=wrap;html=1;" parent="1" vertex="1">
          <mxGeometry x="-100" y="440" width="100" height="70" as="geometry" />
        </mxCell>
        <mxCell id="fb7B25jU6JOEQ9ZOqQDt-25" value="opis_odradenog_posla" style="ellipse;whiteSpace=wrap;html=1;" parent="1" vertex="1">
          <mxGeometry x="-90" y="340" width="150" height="81" as="geometry" />
        </mxCell>
        <mxCell id="fb7B25jU6JOEQ9ZOqQDt-26" value="vrijeme_kreiranja" style="ellipse;whiteSpace=wrap;html=1;" parent="1" vertex="1">
          <mxGeometry x="-160" y="530" width="100" height="64" as="geometry" />
        </mxCell>
        <mxCell id="fb7B25jU6JOEQ9ZOqQDt-27" value="" style="endArrow=none;html=1;rounded=0;entryX=0.5;entryY=0;entryDx=0;entryDy=0;exitX=0.5;exitY=1;exitDx=0;exitDy=0;" parent="1" source="fb7B25jU6JOEQ9ZOqQDt-22" target="fb7B25jU6JOEQ9ZOqQDt-26" edge="1">
          <mxGeometry width="50" height="50" relative="1" as="geometry">
            <mxPoint x="-600" y="910" as="sourcePoint" />
            <mxPoint x="-550" y="860" as="targetPoint" />
          </mxGeometry>
        </mxCell>
        <mxCell id="fb7B25jU6JOEQ9ZOqQDt-28" value="" style="endArrow=none;html=1;rounded=0;entryX=0;entryY=0.5;entryDx=0;entryDy=0;exitX=1;exitY=1;exitDx=0;exitDy=0;" parent="1" source="fb7B25jU6JOEQ9ZOqQDt-22" target="fb7B25jU6JOEQ9ZOqQDt-24" edge="1">
          <mxGeometry width="50" height="50" relative="1" as="geometry">
            <mxPoint x="-600" y="910" as="sourcePoint" />
            <mxPoint x="-550" y="860" as="targetPoint" />
          </mxGeometry>
        </mxCell>
        <mxCell id="fb7B25jU6JOEQ9ZOqQDt-29" value="" style="endArrow=none;html=1;rounded=0;entryX=0;entryY=0.5;entryDx=0;entryDy=0;exitX=1;exitY=0.5;exitDx=0;exitDy=0;" parent="1" source="fb7B25jU6JOEQ9ZOqQDt-22" target="fb7B25jU6JOEQ9ZOqQDt-25" edge="1">
          <mxGeometry width="50" height="50" relative="1" as="geometry">
            <mxPoint x="-600" y="910" as="sourcePoint" />
            <mxPoint x="-550" y="860" as="targetPoint" />
          </mxGeometry>
        </mxCell>
        <mxCell id="fb7B25jU6JOEQ9ZOqQDt-30" value="" style="endArrow=none;html=1;rounded=0;entryX=0;entryY=1;entryDx=0;entryDy=0;" parent="1" source="fb7B25jU6JOEQ9ZOqQDt-23" target="fb7B25jU6JOEQ9ZOqQDt-22" edge="1">
          <mxGeometry width="50" height="50" relative="1" as="geometry">
            <mxPoint x="-600" y="910" as="sourcePoint" />
            <mxPoint x="-550" y="860" as="targetPoint" />
          </mxGeometry>
        </mxCell>
        <mxCell id="fb7B25jU6JOEQ9ZOqQDt-31" value="&#xa;&lt;b style=&quot;color: rgb(0, 0, 0); font-family: Helvetica; font-size: 12px; font-style: normal; font-variant-ligatures: normal; font-variant-caps: normal; letter-spacing: normal; orphans: 2; text-align: left; text-indent: 0px; text-transform: none; widows: 2; word-spacing: 0px; -webkit-text-stroke-width: 0px; white-space: normal; background-color: rgb(251, 251, 251); text-decoration-thickness: initial; text-decoration-style: initial; text-decoration-color: initial;&quot;&gt;&lt;u&gt;id_ZADATKA&lt;/u&gt;&lt;/b&gt;&#xa;&#xa;" style="ellipse;whiteSpace=wrap;html=1;" parent="1" vertex="1">
          <mxGeometry x="-210" y="361" width="95" height="60" as="geometry" />
        </mxCell>
        <mxCell id="fb7B25jU6JOEQ9ZOqQDt-32" value="" style="endArrow=none;html=1;rounded=0;entryX=0.5;entryY=1;entryDx=0;entryDy=0;exitX=1;exitY=0;exitDx=0;exitDy=0;" parent="1" source="fb7B25jU6JOEQ9ZOqQDt-22" target="fb7B25jU6JOEQ9ZOqQDt-31" edge="1">
          <mxGeometry width="50" height="50" relative="1" as="geometry">
            <mxPoint x="-520" y="490" as="sourcePoint" />
            <mxPoint x="-470" y="440" as="targetPoint" />
          </mxGeometry>
        </mxCell>
        <mxCell id="Xnj83cRvs6DByZSezMd7-5" value="TRENER" style="swimlane;fontStyle=0;childLayout=stackLayout;horizontal=1;startSize=26;horizontalStack=0;resizeParent=1;resizeParentMax=0;resizeLast=0;collapsible=1;marginBottom=0;align=center;fontSize=14;fillColor=#d80073;strokeColor=#A50040;swimlaneFillColor=default;rounded=1;fontColor=#ffffff;" vertex="1" parent="1">
          <mxGeometry x="-1020" y="-78" width="160" height="266" as="geometry">
            <mxRectangle x="320" y="250" width="130" height="30" as="alternateBounds" />
          </mxGeometry>
        </mxCell>
        <mxCell id="Xnj83cRvs6DByZSezMd7-6" value="&lt;b&gt;&lt;u&gt;ID_trenera&lt;/u&gt;&lt;/b&gt;" style="text;strokeColor=none;fillColor=none;spacingLeft=4;spacingRight=4;overflow=hidden;rotatable=0;points=[[0,0.5],[1,0.5]];portConstraint=eastwest;fontSize=12;whiteSpace=wrap;html=1;" vertex="1" parent="Xnj83cRvs6DByZSezMd7-5">
          <mxGeometry y="26" width="160" height="30" as="geometry" />
        </mxCell>
        <mxCell id="Xnj83cRvs6DByZSezMd7-7" value="ime" style="text;strokeColor=none;fillColor=none;spacingLeft=4;spacingRight=4;overflow=hidden;rotatable=0;points=[[0,0.5],[1,0.5]];portConstraint=eastwest;fontSize=12;whiteSpace=wrap;html=1;" vertex="1" parent="Xnj83cRvs6DByZSezMd7-5">
          <mxGeometry y="56" width="160" height="30" as="geometry" />
        </mxCell>
        <mxCell id="Xnj83cRvs6DByZSezMd7-8" value="prezime" style="text;strokeColor=none;fillColor=none;spacingLeft=4;spacingRight=4;overflow=hidden;rotatable=0;points=[[0,0.5],[1,0.5]];portConstraint=eastwest;fontSize=12;whiteSpace=wrap;html=1;" vertex="1" parent="Xnj83cRvs6DByZSezMd7-5">
          <mxGeometry y="86" width="160" height="30" as="geometry" />
        </mxCell>
        <mxCell id="Xnj83cRvs6DByZSezMd7-11" value="datum_rodenja" style="text;strokeColor=none;fillColor=none;spacingLeft=4;spacingRight=4;overflow=hidden;rotatable=0;points=[[0,0.5],[1,0.5]];portConstraint=eastwest;fontSize=12;whiteSpace=wrap;html=1;" vertex="1" parent="Xnj83cRvs6DByZSezMd7-5">
          <mxGeometry y="116" width="160" height="30" as="geometry" />
        </mxCell>
        <mxCell id="Xnj83cRvs6DByZSezMd7-105" value="spol" style="text;strokeColor=none;fillColor=none;spacingLeft=4;spacingRight=4;overflow=hidden;rotatable=0;points=[[0,0.5],[1,0.5]];portConstraint=eastwest;fontSize=12;whiteSpace=wrap;html=1;" vertex="1" parent="Xnj83cRvs6DByZSezMd7-5">
          <mxGeometry y="146" width="160" height="30" as="geometry" />
        </mxCell>
        <mxCell id="Xnj83cRvs6DByZSezMd7-9" value="email" style="text;strokeColor=none;fillColor=none;spacingLeft=4;spacingRight=4;overflow=hidden;rotatable=0;points=[[0,0.5],[1,0.5]];portConstraint=eastwest;fontSize=12;whiteSpace=wrap;html=1;" vertex="1" parent="Xnj83cRvs6DByZSezMd7-5">
          <mxGeometry y="176" width="160" height="30" as="geometry" />
        </mxCell>
        <mxCell id="Xnj83cRvs6DByZSezMd7-10" value="broj telefona" style="text;strokeColor=none;fillColor=none;spacingLeft=4;spacingRight=4;overflow=hidden;rotatable=0;points=[[0,0.5],[1,0.5]];portConstraint=eastwest;fontSize=12;whiteSpace=wrap;html=1;" vertex="1" parent="Xnj83cRvs6DByZSezMd7-5">
          <mxGeometry y="206" width="160" height="30" as="geometry" />
        </mxCell>
        <mxCell id="Xnj83cRvs6DByZSezMd7-103" value="specijalizacija" style="text;strokeColor=none;fillColor=none;spacingLeft=4;spacingRight=4;overflow=hidden;rotatable=0;points=[[0,0.5],[1,0.5]];portConstraint=eastwest;fontSize=12;whiteSpace=wrap;html=1;" vertex="1" parent="Xnj83cRvs6DByZSezMd7-5">
          <mxGeometry y="236" width="160" height="30" as="geometry" />
        </mxCell>
        <mxCell id="Xnj83cRvs6DByZSezMd7-28" value="SURADNJA" style="swimlane;fontStyle=0;childLayout=stackLayout;horizontal=1;startSize=26;horizontalStack=0;resizeParent=1;resizeParentMax=0;resizeLast=0;collapsible=1;marginBottom=0;align=center;fontSize=14;fillColor=#d80073;strokeColor=#A50040;swimlaneFillColor=default;rounded=1;fontColor=#ffffff;" vertex="1" parent="1">
          <mxGeometry x="-850" y="-390" width="160" height="206" as="geometry">
            <mxRectangle x="320" y="250" width="130" height="30" as="alternateBounds" />
          </mxGeometry>
        </mxCell>
        <mxCell id="Xnj83cRvs6DByZSezMd7-30" value="datum_pocetka" style="text;strokeColor=none;fillColor=none;spacingLeft=4;spacingRight=4;overflow=hidden;rotatable=0;points=[[0,0.5],[1,0.5]];portConstraint=eastwest;fontSize=12;whiteSpace=wrap;html=1;" vertex="1" parent="Xnj83cRvs6DByZSezMd7-28">
          <mxGeometry y="26" width="160" height="30" as="geometry" />
        </mxCell>
        <mxCell id="Xnj83cRvs6DByZSezMd7-31" value="datum_zavrsetka" style="text;strokeColor=none;fillColor=none;spacingLeft=4;spacingRight=4;overflow=hidden;rotatable=0;points=[[0,0.5],[1,0.5]];portConstraint=eastwest;fontSize=12;whiteSpace=wrap;html=1;" vertex="1" parent="Xnj83cRvs6DByZSezMd7-28">
          <mxGeometry y="56" width="160" height="30" as="geometry" />
        </mxCell>
        <mxCell id="Xnj83cRvs6DByZSezMd7-500" value="vrsta_suradnje" style="text;strokeColor=none;fillColor=none;spacingLeft=4;spacingRight=4;overflow=hidden;rotatable=0;points=[[0,0.5],[1,0.5]];portConstraint=eastwest;fontSize=12;whiteSpace=wrap;html=1;" vertex="1" parent="Xnj83cRvs6DByZSezMd7-28">
          <mxGeometry y="86" width="160" height="30" as="geometry" />
        </mxCell>
        <mxCell id="Xnj83cRvs6DByZSezMd7-752" value="status" style="text;strokeColor=none;fillColor=none;spacingLeft=4;spacingRight=4;overflow=hidden;rotatable=0;points=[[0,0.5],[1,0.5]];portConstraint=eastwest;fontSize=12;whiteSpace=wrap;html=1;" vertex="1" parent="Xnj83cRvs6DByZSezMd7-28">
          <mxGeometry y="116" width="160" height="30" as="geometry" />
        </mxCell>
        <mxCell id="Xnj83cRvs6DByZSezMd7-759" value="dodatne_biljeske" style="text;strokeColor=none;fillColor=none;spacingLeft=4;spacingRight=4;overflow=hidden;rotatable=0;points=[[0,0.5],[1,0.5]];portConstraint=eastwest;fontSize=12;whiteSpace=wrap;html=1;" vertex="1" parent="Xnj83cRvs6DByZSezMd7-28">
          <mxGeometry y="146" width="160" height="30" as="geometry" />
        </mxCell>
        <mxCell id="Xnj83cRvs6DByZSezMd7-760" value="napredak" style="text;strokeColor=none;fillColor=none;spacingLeft=4;spacingRight=4;overflow=hidden;rotatable=0;points=[[0,0.5],[1,0.5]];portConstraint=eastwest;fontSize=12;whiteSpace=wrap;html=1;" vertex="1" parent="Xnj83cRvs6DByZSezMd7-28">
          <mxGeometry y="176" width="160" height="30" as="geometry" />
        </mxCell>
        <mxCell id="Xnj83cRvs6DByZSezMd7-37" value="ima" style="rhombus;whiteSpace=wrap;html=1;" vertex="1" parent="1">
          <mxGeometry x="-440" y="880" width="80" height="80" as="geometry" />
        </mxCell>
        <mxCell id="Xnj83cRvs6DByZSezMd7-38" value="POVIJEST_CIJENA" style="rounded=0;whiteSpace=wrap;html=1;fillColor=#d80073;fontColor=#ffffff;strokeColor=#A50040;" vertex="1" parent="1">
          <mxGeometry x="-290" y="940" width="120" height="60" as="geometry" />
        </mxCell>
        <mxCell id="Xnj83cRvs6DByZSezMd7-39" value="&lt;b&gt;&lt;u&gt;ID_programa&lt;/u&gt;&lt;/b&gt;" style="ellipse;whiteSpace=wrap;html=1;" vertex="1" parent="1">
          <mxGeometry x="-160" y="760" width="100" height="70" as="geometry" />
        </mxCell>
        <mxCell id="Xnj83cRvs6DByZSezMd7-40" value="datum_promjene" style="ellipse;whiteSpace=wrap;html=1;" vertex="1" parent="1">
          <mxGeometry x="-80" y="870" width="90" height="70" as="geometry" />
        </mxCell>
        <mxCell id="Xnj83cRvs6DByZSezMd7-41" value="nova_cijena" style="ellipse;whiteSpace=wrap;html=1;" vertex="1" parent="1">
          <mxGeometry x="-50" y="1050" width="90" height="60" as="geometry" />
        </mxCell>
        <mxCell id="Xnj83cRvs6DByZSezMd7-42" value="" style="endArrow=none;html=1;rounded=0;exitX=1;exitY=0.25;exitDx=0;exitDy=0;entryX=0;entryY=1;entryDx=0;entryDy=0;" edge="1" parent="1" source="Xnj83cRvs6DByZSezMd7-38" target="Xnj83cRvs6DByZSezMd7-40">
          <mxGeometry width="50" height="50" relative="1" as="geometry">
            <mxPoint x="-605" y="1000" as="sourcePoint" />
            <mxPoint x="-555" y="950" as="targetPoint" />
          </mxGeometry>
        </mxCell>
        <mxCell id="Xnj83cRvs6DByZSezMd7-43" value="" style="endArrow=none;html=1;rounded=0;entryX=0.75;entryY=0;entryDx=0;entryDy=0;exitX=0.5;exitY=1;exitDx=0;exitDy=0;" edge="1" parent="1" source="Xnj83cRvs6DByZSezMd7-39" target="Xnj83cRvs6DByZSezMd7-38">
          <mxGeometry width="50" height="50" relative="1" as="geometry">
            <mxPoint x="-995" y="1060" as="sourcePoint" />
            <mxPoint x="-945" y="1010" as="targetPoint" />
          </mxGeometry>
        </mxCell>
        <mxCell id="Xnj83cRvs6DByZSezMd7-45" value="" style="endArrow=none;html=1;rounded=0;entryX=0.75;entryY=1;entryDx=0;entryDy=0;exitX=0;exitY=0;exitDx=0;exitDy=0;" edge="1" parent="1" source="Xnj83cRvs6DByZSezMd7-41" target="Xnj83cRvs6DByZSezMd7-38">
          <mxGeometry width="50" height="50" relative="1" as="geometry">
            <mxPoint x="-995" y="1060" as="sourcePoint" />
            <mxPoint x="-945" y="1010" as="targetPoint" />
          </mxGeometry>
        </mxCell>
        <mxCell id="Xnj83cRvs6DByZSezMd7-46" value="" style="endArrow=classic;html=1;rounded=0;exitX=0.5;exitY=1;exitDx=0;exitDy=0;entryX=0;entryY=0.5;entryDx=0;entryDy=0;" edge="1" parent="1" source="Xnj83cRvs6DByZSezMd7-37" target="Xnj83cRvs6DByZSezMd7-38">
          <mxGeometry width="50" height="50" relative="1" as="geometry">
            <mxPoint x="-1015" y="1150" as="sourcePoint" />
            <mxPoint x="-965" y="1100" as="targetPoint" />
          </mxGeometry>
        </mxCell>
        <mxCell id="Xnj83cRvs6DByZSezMd7-68" value="pripada" style="rhombus;whiteSpace=wrap;html=1;" vertex="1" parent="1">
          <mxGeometry x="-960" y="-220" width="80" height="80" as="geometry" />
        </mxCell>
        <mxCell id="Xnj83cRvs6DByZSezMd7-69" value="" style="endArrow=none;html=1;rounded=0;entryX=0.5;entryY=1;entryDx=0;entryDy=0;exitX=0.5;exitY=0;exitDx=0;exitDy=0;" edge="1" parent="1" source="Xnj83cRvs6DByZSezMd7-5" target="Xnj83cRvs6DByZSezMd7-68">
          <mxGeometry width="50" height="50" relative="1" as="geometry">
            <mxPoint x="-1020" y="60" as="sourcePoint" />
            <mxPoint x="-970" y="10" as="targetPoint" />
          </mxGeometry>
        </mxCell>
        <mxCell id="Xnj83cRvs6DByZSezMd7-81" style="rounded=0;orthogonalLoop=1;jettySize=auto;html=1;endArrow=halfCircle;endFill=0;" edge="1" parent="1">
          <mxGeometry relative="1" as="geometry">
            <mxPoint x="-460" y="1190" as="targetPoint" />
            <mxPoint x="-360" y="1250" as="sourcePoint" />
          </mxGeometry>
        </mxCell>
        <mxCell id="Xnj83cRvs6DByZSezMd7-82" value="ONLINE" style="swimlane;fontStyle=0;childLayout=stackLayout;horizontal=1;startSize=26;horizontalStack=0;resizeParent=1;resizeParentMax=0;resizeLast=0;collapsible=1;marginBottom=0;align=center;fontSize=14;fillColor=#d80073;strokeColor=#A50040;swimlaneFillColor=default;rounded=1;fontColor=#ffffff;" vertex="1" parent="1">
          <mxGeometry x="-440" y="1250" width="160" height="116" as="geometry">
            <mxRectangle x="320" y="250" width="130" height="30" as="alternateBounds" />
          </mxGeometry>
        </mxCell>
        <mxCell id="Xnj83cRvs6DByZSezMd7-83" value="link_za_pristup" style="text;strokeColor=none;fillColor=none;spacingLeft=4;spacingRight=4;overflow=hidden;rotatable=0;points=[[0,0.5],[1,0.5]];portConstraint=eastwest;fontSize=12;whiteSpace=wrap;html=1;" vertex="1" parent="Xnj83cRvs6DByZSezMd7-82">
          <mxGeometry y="26" width="160" height="30" as="geometry" />
        </mxCell>
        <mxCell id="Xnj83cRvs6DByZSezMd7-488" value="izazovi" style="text;strokeColor=none;fillColor=none;spacingLeft=4;spacingRight=4;overflow=hidden;rotatable=0;points=[[0,0.5],[1,0.5]];portConstraint=eastwest;fontSize=12;whiteSpace=wrap;html=1;" vertex="1" parent="Xnj83cRvs6DByZSezMd7-82">
          <mxGeometry y="56" width="160" height="30" as="geometry" />
        </mxCell>
        <mxCell id="Xnj83cRvs6DByZSezMd7-492" value="upozorenja" style="text;strokeColor=none;fillColor=none;spacingLeft=4;spacingRight=4;overflow=hidden;rotatable=0;points=[[0,0.5],[1,0.5]];portConstraint=eastwest;fontSize=12;whiteSpace=wrap;html=1;" vertex="1" parent="Xnj83cRvs6DByZSezMd7-82">
          <mxGeometry y="86" width="160" height="30" as="geometry" />
        </mxCell>
        <mxCell id="Xnj83cRvs6DByZSezMd7-85" style="rounded=0;orthogonalLoop=1;jettySize=auto;html=1;endArrow=halfCircle;endFill=0;exitX=0.438;exitY=0.017;exitDx=0;exitDy=0;exitPerimeter=0;" edge="1" source="Xnj83cRvs6DByZSezMd7-86" parent="1">
          <mxGeometry relative="1" as="geometry">
            <mxPoint x="-630" y="1198" as="targetPoint" />
            <Array as="points">
              <mxPoint x="-630" y="1198" />
            </Array>
            <mxPoint x="-710" y="1238" as="sourcePoint" />
          </mxGeometry>
        </mxCell>
        <mxCell id="Xnj83cRvs6DByZSezMd7-86" value="UZIVO" style="swimlane;fontStyle=0;childLayout=stackLayout;horizontal=1;startSize=26;horizontalStack=0;resizeParent=1;resizeParentMax=0;resizeLast=0;collapsible=1;marginBottom=0;align=center;fontSize=14;fillColor=#d80073;strokeColor=#A50040;swimlaneFillColor=default;rounded=1;fontColor=#ffffff;" vertex="1" parent="1">
          <mxGeometry x="-770" y="1264" width="160" height="56" as="geometry">
            <mxRectangle x="320" y="250" width="130" height="30" as="alternateBounds" />
          </mxGeometry>
        </mxCell>
        <mxCell id="Xnj83cRvs6DByZSezMd7-87" value="lokacija" style="text;strokeColor=none;fillColor=none;spacingLeft=4;spacingRight=4;overflow=hidden;rotatable=0;points=[[0,0.5],[1,0.5]];portConstraint=eastwest;fontSize=12;whiteSpace=wrap;html=1;" vertex="1" parent="Xnj83cRvs6DByZSezMd7-86">
          <mxGeometry y="26" width="160" height="30" as="geometry" />
        </mxCell>
        <mxCell id="Xnj83cRvs6DByZSezMd7-90" style="rounded=0;orthogonalLoop=1;jettySize=auto;html=1;exitX=0;exitY=0.5;exitDx=0;exitDy=0;endArrow=none;endFill=0;" edge="1" source="Xnj83cRvs6DByZSezMd7-93" parent="1">
          <mxGeometry relative="1" as="geometry">
            <mxPoint x="-640" y="1210" as="targetPoint" />
          </mxGeometry>
        </mxCell>
        <mxCell id="Xnj83cRvs6DByZSezMd7-92" style="rounded=0;orthogonalLoop=1;jettySize=auto;html=1;exitX=1;exitY=0.5;exitDx=0;exitDy=0;endArrow=none;endFill=0;" edge="1" source="Xnj83cRvs6DByZSezMd7-93" parent="1">
          <mxGeometry relative="1" as="geometry">
            <mxPoint x="-450" y="1200" as="targetPoint" />
          </mxGeometry>
        </mxCell>
        <mxCell id="Xnj83cRvs6DByZSezMd7-93" value="d" style="ellipse;whiteSpace=wrap;html=1;aspect=fixed;" vertex="1" parent="1">
          <mxGeometry x="-550" y="950" width="20" height="20" as="geometry" />
        </mxCell>
        <mxCell id="Xnj83cRvs6DByZSezMd7-97" value="" style="endArrow=none;html=1;rounded=0;entryX=1;entryY=0.5;entryDx=0;entryDy=0;exitX=0.5;exitY=0;exitDx=0;exitDy=0;" edge="1" parent="1" source="Xnj83cRvs6DByZSezMd7-37" target="l63NLzGvEjnrkUhpd7Kd-422">
          <mxGeometry width="50" height="50" relative="1" as="geometry">
            <mxPoint x="-150" y="900" as="sourcePoint" />
            <mxPoint x="-100" y="850" as="targetPoint" />
          </mxGeometry>
        </mxCell>
        <mxCell id="Xnj83cRvs6DByZSezMd7-101" value="" style="endArrow=none;html=1;rounded=0;entryX=1;entryY=0.5;entryDx=0;entryDy=0;exitX=0.5;exitY=0;exitDx=0;exitDy=0;" edge="1" parent="1" source="Xnj83cRvs6DByZSezMd7-93" target="l63NLzGvEjnrkUhpd7Kd-79">
          <mxGeometry width="50" height="50" relative="1" as="geometry">
            <mxPoint x="-360" y="920" as="sourcePoint" />
            <mxPoint x="-310" y="870" as="targetPoint" />
          </mxGeometry>
        </mxCell>
        <mxCell id="Xnj83cRvs6DByZSezMd7-107" value="" style="endArrow=none;html=1;rounded=0;entryX=0;entryY=0.5;entryDx=0;entryDy=0;exitX=0.5;exitY=0;exitDx=0;exitDy=0;" edge="1" parent="1" source="l63NLzGvEjnrkUhpd7Kd-54" target="Xnj83cRvs6DByZSezMd7-10">
          <mxGeometry width="50" height="50" relative="1" as="geometry">
            <mxPoint x="-1080" y="80" as="sourcePoint" />
            <mxPoint x="-1020" y="81" as="targetPoint" />
          </mxGeometry>
        </mxCell>
        <mxCell id="l63NLzGvEjnrkUhpd7Kd-169" value="KLIJENT" style="shape=table;startSize=30;container=1;collapsible=1;childLayout=tableLayout;fixedRows=1;rowLines=0;fontStyle=1;align=center;resizeLast=1;html=1;fillColor=#6a00ff;strokeColor=#3700CC;swimlaneFillColor=default;fontColor=#ffffff;" parent="1" vertex="1">
          <mxGeometry x="810" y="-254" width="180" height="300" as="geometry" />
        </mxCell>
        <mxCell id="l63NLzGvEjnrkUhpd7Kd-170" value="" style="shape=tableRow;horizontal=0;startSize=0;swimlaneHead=0;swimlaneBody=0;fillColor=none;collapsible=0;dropTarget=0;points=[[0,0.5],[1,0.5]];portConstraint=eastwest;top=0;left=0;right=0;bottom=1;" parent="l63NLzGvEjnrkUhpd7Kd-169" vertex="1">
          <mxGeometry y="30" width="180" height="30" as="geometry" />
        </mxCell>
        <mxCell id="l63NLzGvEjnrkUhpd7Kd-171" value="PK" style="shape=partialRectangle;connectable=0;fillColor=none;top=0;left=0;bottom=0;right=0;fontStyle=1;overflow=hidden;whiteSpace=wrap;html=1;" parent="l63NLzGvEjnrkUhpd7Kd-170" vertex="1">
          <mxGeometry width="30" height="30" as="geometry">
            <mxRectangle width="30" height="30" as="alternateBounds" />
          </mxGeometry>
        </mxCell>
        <mxCell id="l63NLzGvEjnrkUhpd7Kd-172" value="ID_klijenta" style="shape=partialRectangle;connectable=0;fillColor=none;top=0;left=0;bottom=0;right=0;align=left;spacingLeft=6;fontStyle=5;overflow=hidden;whiteSpace=wrap;html=1;" parent="l63NLzGvEjnrkUhpd7Kd-170" vertex="1">
          <mxGeometry x="30" width="150" height="30" as="geometry">
            <mxRectangle width="150" height="30" as="alternateBounds" />
          </mxGeometry>
        </mxCell>
        <mxCell id="l63NLzGvEjnrkUhpd7Kd-173" value="" style="shape=tableRow;horizontal=0;startSize=0;swimlaneHead=0;swimlaneBody=0;fillColor=none;collapsible=0;dropTarget=0;points=[[0,0.5],[1,0.5]];portConstraint=eastwest;top=0;left=0;right=0;bottom=0;" parent="l63NLzGvEjnrkUhpd7Kd-169" vertex="1">
          <mxGeometry y="60" width="180" height="30" as="geometry" />
        </mxCell>
        <mxCell id="l63NLzGvEjnrkUhpd7Kd-174" value="" style="shape=partialRectangle;connectable=0;fillColor=none;top=0;left=0;bottom=0;right=0;editable=1;overflow=hidden;whiteSpace=wrap;html=1;" parent="l63NLzGvEjnrkUhpd7Kd-173" vertex="1">
          <mxGeometry width="30" height="30" as="geometry">
            <mxRectangle width="30" height="30" as="alternateBounds" />
          </mxGeometry>
        </mxCell>
        <mxCell id="l63NLzGvEjnrkUhpd7Kd-175" value="* ime" style="shape=partialRectangle;connectable=0;fillColor=none;top=0;left=0;bottom=0;right=0;align=left;spacingLeft=6;overflow=hidden;whiteSpace=wrap;html=1;" parent="l63NLzGvEjnrkUhpd7Kd-173" vertex="1">
          <mxGeometry x="30" width="150" height="30" as="geometry">
            <mxRectangle width="150" height="30" as="alternateBounds" />
          </mxGeometry>
        </mxCell>
        <mxCell id="l63NLzGvEjnrkUhpd7Kd-176" value="" style="shape=tableRow;horizontal=0;startSize=0;swimlaneHead=0;swimlaneBody=0;fillColor=none;collapsible=0;dropTarget=0;points=[[0,0.5],[1,0.5]];portConstraint=eastwest;top=0;left=0;right=0;bottom=0;" parent="l63NLzGvEjnrkUhpd7Kd-169" vertex="1">
          <mxGeometry y="90" width="180" height="30" as="geometry" />
        </mxCell>
        <mxCell id="l63NLzGvEjnrkUhpd7Kd-177" value="" style="shape=partialRectangle;connectable=0;fillColor=none;top=0;left=0;bottom=0;right=0;editable=1;overflow=hidden;whiteSpace=wrap;html=1;" parent="l63NLzGvEjnrkUhpd7Kd-176" vertex="1">
          <mxGeometry width="30" height="30" as="geometry">
            <mxRectangle width="30" height="30" as="alternateBounds" />
          </mxGeometry>
        </mxCell>
        <mxCell id="l63NLzGvEjnrkUhpd7Kd-178" value="* prezime" style="shape=partialRectangle;connectable=0;fillColor=none;top=0;left=0;bottom=0;right=0;align=left;spacingLeft=6;overflow=hidden;whiteSpace=wrap;html=1;" parent="l63NLzGvEjnrkUhpd7Kd-176" vertex="1">
          <mxGeometry x="30" width="150" height="30" as="geometry">
            <mxRectangle width="150" height="30" as="alternateBounds" />
          </mxGeometry>
        </mxCell>
        <mxCell id="l63NLzGvEjnrkUhpd7Kd-179" value="" style="shape=tableRow;horizontal=0;startSize=0;swimlaneHead=0;swimlaneBody=0;fillColor=none;collapsible=0;dropTarget=0;points=[[0,0.5],[1,0.5]];portConstraint=eastwest;top=0;left=0;right=0;bottom=0;" parent="l63NLzGvEjnrkUhpd7Kd-169" vertex="1">
          <mxGeometry y="120" width="180" height="30" as="geometry" />
        </mxCell>
        <mxCell id="l63NLzGvEjnrkUhpd7Kd-180" value="" style="shape=partialRectangle;connectable=0;fillColor=none;top=0;left=0;bottom=0;right=0;editable=1;overflow=hidden;whiteSpace=wrap;html=1;" parent="l63NLzGvEjnrkUhpd7Kd-179" vertex="1">
          <mxGeometry width="30" height="30" as="geometry">
            <mxRectangle width="30" height="30" as="alternateBounds" />
          </mxGeometry>
        </mxCell>
        <mxCell id="l63NLzGvEjnrkUhpd7Kd-181" value="*datum_rodjenja" style="shape=partialRectangle;connectable=0;fillColor=none;top=0;left=0;bottom=0;right=0;align=left;spacingLeft=6;overflow=hidden;whiteSpace=wrap;html=1;" parent="l63NLzGvEjnrkUhpd7Kd-179" vertex="1">
          <mxGeometry x="30" width="150" height="30" as="geometry">
            <mxRectangle width="150" height="30" as="alternateBounds" />
          </mxGeometry>
        </mxCell>
        <mxCell id="l63NLzGvEjnrkUhpd7Kd-182" value="" style="shape=tableRow;horizontal=0;startSize=0;swimlaneHead=0;swimlaneBody=0;fillColor=none;collapsible=0;dropTarget=0;points=[[0,0.5],[1,0.5]];portConstraint=eastwest;top=0;left=0;right=0;bottom=0;" parent="l63NLzGvEjnrkUhpd7Kd-169" vertex="1">
          <mxGeometry y="150" width="180" height="30" as="geometry" />
        </mxCell>
        <mxCell id="l63NLzGvEjnrkUhpd7Kd-183" value="" style="shape=partialRectangle;connectable=0;fillColor=none;top=0;left=0;bottom=0;right=0;editable=1;overflow=hidden;whiteSpace=wrap;html=1;" parent="l63NLzGvEjnrkUhpd7Kd-182" vertex="1">
          <mxGeometry width="30" height="30" as="geometry">
            <mxRectangle width="30" height="30" as="alternateBounds" />
          </mxGeometry>
        </mxCell>
        <mxCell id="l63NLzGvEjnrkUhpd7Kd-184" value="*spol" style="shape=partialRectangle;connectable=0;fillColor=none;top=0;left=0;bottom=0;right=0;align=left;spacingLeft=6;overflow=hidden;whiteSpace=wrap;html=1;" parent="l63NLzGvEjnrkUhpd7Kd-182" vertex="1">
          <mxGeometry x="30" width="150" height="30" as="geometry">
            <mxRectangle width="150" height="30" as="alternateBounds" />
          </mxGeometry>
        </mxCell>
        <mxCell id="l63NLzGvEjnrkUhpd7Kd-185" value="" style="shape=tableRow;horizontal=0;startSize=0;swimlaneHead=0;swimlaneBody=0;fillColor=none;collapsible=0;dropTarget=0;points=[[0,0.5],[1,0.5]];portConstraint=eastwest;top=0;left=0;right=0;bottom=0;" parent="l63NLzGvEjnrkUhpd7Kd-169" vertex="1">
          <mxGeometry y="180" width="180" height="30" as="geometry" />
        </mxCell>
        <mxCell id="l63NLzGvEjnrkUhpd7Kd-186" value="" style="shape=partialRectangle;connectable=0;fillColor=none;top=0;left=0;bottom=0;right=0;editable=1;overflow=hidden;whiteSpace=wrap;html=1;" parent="l63NLzGvEjnrkUhpd7Kd-185" vertex="1">
          <mxGeometry width="30" height="30" as="geometry">
            <mxRectangle width="30" height="30" as="alternateBounds" />
          </mxGeometry>
        </mxCell>
        <mxCell id="l63NLzGvEjnrkUhpd7Kd-187" value="* email" style="shape=partialRectangle;connectable=0;fillColor=none;top=0;left=0;bottom=0;right=0;align=left;spacingLeft=6;overflow=hidden;whiteSpace=wrap;html=1;" parent="l63NLzGvEjnrkUhpd7Kd-185" vertex="1">
          <mxGeometry x="30" width="150" height="30" as="geometry">
            <mxRectangle width="150" height="30" as="alternateBounds" />
          </mxGeometry>
        </mxCell>
        <mxCell id="l63NLzGvEjnrkUhpd7Kd-188" value="" style="shape=tableRow;horizontal=0;startSize=0;swimlaneHead=0;swimlaneBody=0;fillColor=none;collapsible=0;dropTarget=0;points=[[0,0.5],[1,0.5]];portConstraint=eastwest;top=0;left=0;right=0;bottom=0;" parent="l63NLzGvEjnrkUhpd7Kd-169" vertex="1">
          <mxGeometry y="210" width="180" height="30" as="geometry" />
        </mxCell>
        <mxCell id="l63NLzGvEjnrkUhpd7Kd-189" value="" style="shape=partialRectangle;connectable=0;fillColor=none;top=0;left=0;bottom=0;right=0;editable=1;overflow=hidden;whiteSpace=wrap;html=1;" parent="l63NLzGvEjnrkUhpd7Kd-188" vertex="1">
          <mxGeometry width="30" height="30" as="geometry">
            <mxRectangle width="30" height="30" as="alternateBounds" />
          </mxGeometry>
        </mxCell>
        <mxCell id="l63NLzGvEjnrkUhpd7Kd-190" value="*broj_telefona" style="shape=partialRectangle;connectable=0;fillColor=none;top=0;left=0;bottom=0;right=0;align=left;spacingLeft=6;overflow=hidden;whiteSpace=wrap;html=1;" parent="l63NLzGvEjnrkUhpd7Kd-188" vertex="1">
          <mxGeometry x="30" width="150" height="30" as="geometry">
            <mxRectangle width="150" height="30" as="alternateBounds" />
          </mxGeometry>
        </mxCell>
        <mxCell id="l63NLzGvEjnrkUhpd7Kd-191" value="" style="shape=tableRow;horizontal=0;startSize=0;swimlaneHead=0;swimlaneBody=0;fillColor=none;collapsible=0;dropTarget=0;points=[[0,0.5],[1,0.5]];portConstraint=eastwest;top=0;left=0;right=0;bottom=0;" parent="l63NLzGvEjnrkUhpd7Kd-169" vertex="1">
          <mxGeometry y="240" width="180" height="30" as="geometry" />
        </mxCell>
        <mxCell id="l63NLzGvEjnrkUhpd7Kd-192" value="" style="shape=partialRectangle;connectable=0;fillColor=none;top=0;left=0;bottom=0;right=0;editable=1;overflow=hidden;whiteSpace=wrap;html=1;" parent="l63NLzGvEjnrkUhpd7Kd-191" vertex="1">
          <mxGeometry width="30" height="30" as="geometry">
            <mxRectangle width="30" height="30" as="alternateBounds" />
          </mxGeometry>
        </mxCell>
        <mxCell id="l63NLzGvEjnrkUhpd7Kd-193" value="*visina" style="shape=partialRectangle;connectable=0;fillColor=none;top=0;left=0;bottom=0;right=0;align=left;spacingLeft=6;overflow=hidden;whiteSpace=wrap;html=1;" parent="l63NLzGvEjnrkUhpd7Kd-191" vertex="1">
          <mxGeometry x="30" width="150" height="30" as="geometry">
            <mxRectangle width="150" height="30" as="alternateBounds" />
          </mxGeometry>
        </mxCell>
        <mxCell id="l63NLzGvEjnrkUhpd7Kd-194" value="" style="shape=tableRow;horizontal=0;startSize=0;swimlaneHead=0;swimlaneBody=0;fillColor=none;collapsible=0;dropTarget=0;points=[[0,0.5],[1,0.5]];portConstraint=eastwest;top=0;left=0;right=0;bottom=0;" parent="l63NLzGvEjnrkUhpd7Kd-169" vertex="1">
          <mxGeometry y="270" width="180" height="30" as="geometry" />
        </mxCell>
        <mxCell id="l63NLzGvEjnrkUhpd7Kd-195" value="" style="shape=partialRectangle;connectable=0;fillColor=none;top=0;left=0;bottom=0;right=0;editable=1;overflow=hidden;whiteSpace=wrap;html=1;" parent="l63NLzGvEjnrkUhpd7Kd-194" vertex="1">
          <mxGeometry width="30" height="30" as="geometry">
            <mxRectangle width="30" height="30" as="alternateBounds" />
          </mxGeometry>
        </mxCell>
        <mxCell id="l63NLzGvEjnrkUhpd7Kd-196" value="*cilj" style="shape=partialRectangle;connectable=0;fillColor=none;top=0;left=0;bottom=0;right=0;align=left;spacingLeft=6;overflow=hidden;whiteSpace=wrap;html=1;" parent="l63NLzGvEjnrkUhpd7Kd-194" vertex="1">
          <mxGeometry x="30" width="150" height="30" as="geometry">
            <mxRectangle width="150" height="30" as="alternateBounds" />
          </mxGeometry>
        </mxCell>
        <mxCell id="Xnj83cRvs6DByZSezMd7-231" value="TRENER" style="shape=table;startSize=30;container=1;collapsible=1;childLayout=tableLayout;fixedRows=1;rowLines=0;fontStyle=1;align=center;resizeLast=1;html=1;fillColor=#6a00ff;strokeColor=#3700CC;swimlaneFillColor=default;fontColor=#ffffff;" vertex="1" parent="1">
          <mxGeometry x="380" y="-254" width="180" height="270" as="geometry" />
        </mxCell>
        <mxCell id="Xnj83cRvs6DByZSezMd7-232" value="" style="shape=tableRow;horizontal=0;startSize=0;swimlaneHead=0;swimlaneBody=0;fillColor=none;collapsible=0;dropTarget=0;points=[[0,0.5],[1,0.5]];portConstraint=eastwest;top=0;left=0;right=0;bottom=1;" vertex="1" parent="Xnj83cRvs6DByZSezMd7-231">
          <mxGeometry y="30" width="180" height="30" as="geometry" />
        </mxCell>
        <mxCell id="Xnj83cRvs6DByZSezMd7-233" value="PK" style="shape=partialRectangle;connectable=0;fillColor=none;top=0;left=0;bottom=0;right=0;fontStyle=1;overflow=hidden;whiteSpace=wrap;html=1;" vertex="1" parent="Xnj83cRvs6DByZSezMd7-232">
          <mxGeometry width="30" height="30" as="geometry">
            <mxRectangle width="30" height="30" as="alternateBounds" />
          </mxGeometry>
        </mxCell>
        <mxCell id="Xnj83cRvs6DByZSezMd7-234" value="ID_trenera" style="shape=partialRectangle;connectable=0;fillColor=none;top=0;left=0;bottom=0;right=0;align=left;spacingLeft=6;fontStyle=5;overflow=hidden;whiteSpace=wrap;html=1;" vertex="1" parent="Xnj83cRvs6DByZSezMd7-232">
          <mxGeometry x="30" width="150" height="30" as="geometry">
            <mxRectangle width="150" height="30" as="alternateBounds" />
          </mxGeometry>
        </mxCell>
        <mxCell id="Xnj83cRvs6DByZSezMd7-235" value="" style="shape=tableRow;horizontal=0;startSize=0;swimlaneHead=0;swimlaneBody=0;fillColor=none;collapsible=0;dropTarget=0;points=[[0,0.5],[1,0.5]];portConstraint=eastwest;top=0;left=0;right=0;bottom=0;" vertex="1" parent="Xnj83cRvs6DByZSezMd7-231">
          <mxGeometry y="60" width="180" height="30" as="geometry" />
        </mxCell>
        <mxCell id="Xnj83cRvs6DByZSezMd7-236" value="" style="shape=partialRectangle;connectable=0;fillColor=none;top=0;left=0;bottom=0;right=0;editable=1;overflow=hidden;whiteSpace=wrap;html=1;" vertex="1" parent="Xnj83cRvs6DByZSezMd7-235">
          <mxGeometry width="30" height="30" as="geometry">
            <mxRectangle width="30" height="30" as="alternateBounds" />
          </mxGeometry>
        </mxCell>
        <mxCell id="Xnj83cRvs6DByZSezMd7-237" value="* ime" style="shape=partialRectangle;connectable=0;fillColor=none;top=0;left=0;bottom=0;right=0;align=left;spacingLeft=6;overflow=hidden;whiteSpace=wrap;html=1;" vertex="1" parent="Xnj83cRvs6DByZSezMd7-235">
          <mxGeometry x="30" width="150" height="30" as="geometry">
            <mxRectangle width="150" height="30" as="alternateBounds" />
          </mxGeometry>
        </mxCell>
        <mxCell id="Xnj83cRvs6DByZSezMd7-238" value="" style="shape=tableRow;horizontal=0;startSize=0;swimlaneHead=0;swimlaneBody=0;fillColor=none;collapsible=0;dropTarget=0;points=[[0,0.5],[1,0.5]];portConstraint=eastwest;top=0;left=0;right=0;bottom=0;" vertex="1" parent="Xnj83cRvs6DByZSezMd7-231">
          <mxGeometry y="90" width="180" height="30" as="geometry" />
        </mxCell>
        <mxCell id="Xnj83cRvs6DByZSezMd7-239" value="" style="shape=partialRectangle;connectable=0;fillColor=none;top=0;left=0;bottom=0;right=0;editable=1;overflow=hidden;whiteSpace=wrap;html=1;" vertex="1" parent="Xnj83cRvs6DByZSezMd7-238">
          <mxGeometry width="30" height="30" as="geometry">
            <mxRectangle width="30" height="30" as="alternateBounds" />
          </mxGeometry>
        </mxCell>
        <mxCell id="Xnj83cRvs6DByZSezMd7-240" value="* prezime" style="shape=partialRectangle;connectable=0;fillColor=none;top=0;left=0;bottom=0;right=0;align=left;spacingLeft=6;overflow=hidden;whiteSpace=wrap;html=1;" vertex="1" parent="Xnj83cRvs6DByZSezMd7-238">
          <mxGeometry x="30" width="150" height="30" as="geometry">
            <mxRectangle width="150" height="30" as="alternateBounds" />
          </mxGeometry>
        </mxCell>
        <mxCell id="Xnj83cRvs6DByZSezMd7-241" value="" style="shape=tableRow;horizontal=0;startSize=0;swimlaneHead=0;swimlaneBody=0;fillColor=none;collapsible=0;dropTarget=0;points=[[0,0.5],[1,0.5]];portConstraint=eastwest;top=0;left=0;right=0;bottom=0;" vertex="1" parent="Xnj83cRvs6DByZSezMd7-231">
          <mxGeometry y="120" width="180" height="30" as="geometry" />
        </mxCell>
        <mxCell id="Xnj83cRvs6DByZSezMd7-242" value="" style="shape=partialRectangle;connectable=0;fillColor=none;top=0;left=0;bottom=0;right=0;editable=1;overflow=hidden;whiteSpace=wrap;html=1;" vertex="1" parent="Xnj83cRvs6DByZSezMd7-241">
          <mxGeometry width="30" height="30" as="geometry">
            <mxRectangle width="30" height="30" as="alternateBounds" />
          </mxGeometry>
        </mxCell>
        <mxCell id="Xnj83cRvs6DByZSezMd7-243" value="*datum_rodjenja" style="shape=partialRectangle;connectable=0;fillColor=none;top=0;left=0;bottom=0;right=0;align=left;spacingLeft=6;overflow=hidden;whiteSpace=wrap;html=1;" vertex="1" parent="Xnj83cRvs6DByZSezMd7-241">
          <mxGeometry x="30" width="150" height="30" as="geometry">
            <mxRectangle width="150" height="30" as="alternateBounds" />
          </mxGeometry>
        </mxCell>
        <mxCell id="Xnj83cRvs6DByZSezMd7-244" value="" style="shape=tableRow;horizontal=0;startSize=0;swimlaneHead=0;swimlaneBody=0;fillColor=none;collapsible=0;dropTarget=0;points=[[0,0.5],[1,0.5]];portConstraint=eastwest;top=0;left=0;right=0;bottom=0;" vertex="1" parent="Xnj83cRvs6DByZSezMd7-231">
          <mxGeometry y="150" width="180" height="30" as="geometry" />
        </mxCell>
        <mxCell id="Xnj83cRvs6DByZSezMd7-245" value="" style="shape=partialRectangle;connectable=0;fillColor=none;top=0;left=0;bottom=0;right=0;editable=1;overflow=hidden;whiteSpace=wrap;html=1;" vertex="1" parent="Xnj83cRvs6DByZSezMd7-244">
          <mxGeometry width="30" height="30" as="geometry">
            <mxRectangle width="30" height="30" as="alternateBounds" />
          </mxGeometry>
        </mxCell>
        <mxCell id="Xnj83cRvs6DByZSezMd7-246" value="*spol" style="shape=partialRectangle;connectable=0;fillColor=none;top=0;left=0;bottom=0;right=0;align=left;spacingLeft=6;overflow=hidden;whiteSpace=wrap;html=1;" vertex="1" parent="Xnj83cRvs6DByZSezMd7-244">
          <mxGeometry x="30" width="150" height="30" as="geometry">
            <mxRectangle width="150" height="30" as="alternateBounds" />
          </mxGeometry>
        </mxCell>
        <mxCell id="Xnj83cRvs6DByZSezMd7-247" value="" style="shape=tableRow;horizontal=0;startSize=0;swimlaneHead=0;swimlaneBody=0;fillColor=none;collapsible=0;dropTarget=0;points=[[0,0.5],[1,0.5]];portConstraint=eastwest;top=0;left=0;right=0;bottom=0;" vertex="1" parent="Xnj83cRvs6DByZSezMd7-231">
          <mxGeometry y="180" width="180" height="30" as="geometry" />
        </mxCell>
        <mxCell id="Xnj83cRvs6DByZSezMd7-248" value="" style="shape=partialRectangle;connectable=0;fillColor=none;top=0;left=0;bottom=0;right=0;editable=1;overflow=hidden;whiteSpace=wrap;html=1;" vertex="1" parent="Xnj83cRvs6DByZSezMd7-247">
          <mxGeometry width="30" height="30" as="geometry">
            <mxRectangle width="30" height="30" as="alternateBounds" />
          </mxGeometry>
        </mxCell>
        <mxCell id="Xnj83cRvs6DByZSezMd7-249" value="* email" style="shape=partialRectangle;connectable=0;fillColor=none;top=0;left=0;bottom=0;right=0;align=left;spacingLeft=6;overflow=hidden;whiteSpace=wrap;html=1;" vertex="1" parent="Xnj83cRvs6DByZSezMd7-247">
          <mxGeometry x="30" width="150" height="30" as="geometry">
            <mxRectangle width="150" height="30" as="alternateBounds" />
          </mxGeometry>
        </mxCell>
        <mxCell id="Xnj83cRvs6DByZSezMd7-250" value="" style="shape=tableRow;horizontal=0;startSize=0;swimlaneHead=0;swimlaneBody=0;fillColor=none;collapsible=0;dropTarget=0;points=[[0,0.5],[1,0.5]];portConstraint=eastwest;top=0;left=0;right=0;bottom=0;" vertex="1" parent="Xnj83cRvs6DByZSezMd7-231">
          <mxGeometry y="210" width="180" height="30" as="geometry" />
        </mxCell>
        <mxCell id="Xnj83cRvs6DByZSezMd7-251" value="" style="shape=partialRectangle;connectable=0;fillColor=none;top=0;left=0;bottom=0;right=0;editable=1;overflow=hidden;whiteSpace=wrap;html=1;" vertex="1" parent="Xnj83cRvs6DByZSezMd7-250">
          <mxGeometry width="30" height="30" as="geometry">
            <mxRectangle width="30" height="30" as="alternateBounds" />
          </mxGeometry>
        </mxCell>
        <mxCell id="Xnj83cRvs6DByZSezMd7-252" value="*broj_telefona" style="shape=partialRectangle;connectable=0;fillColor=none;top=0;left=0;bottom=0;right=0;align=left;spacingLeft=6;overflow=hidden;whiteSpace=wrap;html=1;" vertex="1" parent="Xnj83cRvs6DByZSezMd7-250">
          <mxGeometry x="30" width="150" height="30" as="geometry">
            <mxRectangle width="150" height="30" as="alternateBounds" />
          </mxGeometry>
        </mxCell>
        <mxCell id="Xnj83cRvs6DByZSezMd7-253" value="" style="shape=tableRow;horizontal=0;startSize=0;swimlaneHead=0;swimlaneBody=0;fillColor=none;collapsible=0;dropTarget=0;points=[[0,0.5],[1,0.5]];portConstraint=eastwest;top=0;left=0;right=0;bottom=0;" vertex="1" parent="Xnj83cRvs6DByZSezMd7-231">
          <mxGeometry y="240" width="180" height="30" as="geometry" />
        </mxCell>
        <mxCell id="Xnj83cRvs6DByZSezMd7-254" value="" style="shape=partialRectangle;connectable=0;fillColor=none;top=0;left=0;bottom=0;right=0;editable=1;overflow=hidden;whiteSpace=wrap;html=1;" vertex="1" parent="Xnj83cRvs6DByZSezMd7-253">
          <mxGeometry width="30" height="30" as="geometry">
            <mxRectangle width="30" height="30" as="alternateBounds" />
          </mxGeometry>
        </mxCell>
        <mxCell id="Xnj83cRvs6DByZSezMd7-255" value="*specijalizacija" style="shape=partialRectangle;connectable=0;fillColor=none;top=0;left=0;bottom=0;right=0;align=left;spacingLeft=6;overflow=hidden;whiteSpace=wrap;html=1;" vertex="1" parent="Xnj83cRvs6DByZSezMd7-253">
          <mxGeometry x="30" width="150" height="30" as="geometry">
            <mxRectangle width="150" height="30" as="alternateBounds" />
          </mxGeometry>
        </mxCell>
        <mxCell id="Xnj83cRvs6DByZSezMd7-263" value="stara_cijena" style="ellipse;whiteSpace=wrap;html=1;" vertex="1" parent="1">
          <mxGeometry x="-220" y="1070" width="90" height="60" as="geometry" />
        </mxCell>
        <mxCell id="Xnj83cRvs6DByZSezMd7-265" value="" style="endArrow=none;html=1;rounded=0;entryX=0.25;entryY=1;entryDx=0;entryDy=0;exitX=0.5;exitY=0;exitDx=0;exitDy=0;" edge="1" parent="1" source="Xnj83cRvs6DByZSezMd7-263" target="Xnj83cRvs6DByZSezMd7-38">
          <mxGeometry width="50" height="50" relative="1" as="geometry">
            <mxPoint x="-27" y="1069" as="sourcePoint" />
            <mxPoint x="-175" y="1020" as="targetPoint" />
          </mxGeometry>
        </mxCell>
        <mxCell id="Xnj83cRvs6DByZSezMd7-266" value="&lt;b&gt;&lt;u&gt;ID_povijesti&lt;/u&gt;&lt;/b&gt;" style="ellipse;whiteSpace=wrap;html=1;" vertex="1" parent="1">
          <mxGeometry x="-250" y="700" width="100" height="70" as="geometry" />
        </mxCell>
        <mxCell id="Xnj83cRvs6DByZSezMd7-268" value="" style="endArrow=none;html=1;rounded=0;entryX=0.25;entryY=0;entryDx=0;entryDy=0;exitX=0.5;exitY=1;exitDx=0;exitDy=0;" edge="1" source="Xnj83cRvs6DByZSezMd7-266" parent="1" target="Xnj83cRvs6DByZSezMd7-38">
          <mxGeometry width="50" height="50" relative="1" as="geometry">
            <mxPoint x="-1208" y="1110" as="sourcePoint" />
            <mxPoint x="-458" y="1000" as="targetPoint" />
          </mxGeometry>
        </mxCell>
        <mxCell id="Xnj83cRvs6DByZSezMd7-269" value="datum_mjerenja" style="ellipse;whiteSpace=wrap;html=1;" vertex="1" parent="1">
          <mxGeometry x="-115" y="116" width="90" height="70" as="geometry" />
        </mxCell>
        <mxCell id="Xnj83cRvs6DByZSezMd7-270" value="" style="endArrow=none;html=1;rounded=0;exitX=1;exitY=0.25;exitDx=0;exitDy=0;entryX=0;entryY=1;entryDx=0;entryDy=0;" edge="1" target="Xnj83cRvs6DByZSezMd7-269" parent="1" source="fb7B25jU6JOEQ9ZOqQDt-6">
          <mxGeometry width="50" height="50" relative="1" as="geometry">
            <mxPoint x="-220" y="205" as="sourcePoint" />
            <mxPoint x="-350" y="200" as="targetPoint" />
          </mxGeometry>
        </mxCell>
        <mxCell id="Xnj83cRvs6DByZSezMd7-272" value="obujam_bokova" style="ellipse;whiteSpace=wrap;html=1;" vertex="1" parent="1">
          <mxGeometry x="-445" y="188" width="90" height="70" as="geometry" />
        </mxCell>
        <mxCell id="Xnj83cRvs6DByZSezMd7-273" value="" style="endArrow=none;html=1;rounded=0;exitX=0;exitY=0.75;exitDx=0;exitDy=0;entryX=1;entryY=0.5;entryDx=0;entryDy=0;" edge="1" target="Xnj83cRvs6DByZSezMd7-272" parent="1" source="fb7B25jU6JOEQ9ZOqQDt-6">
          <mxGeometry width="50" height="50" relative="1" as="geometry">
            <mxPoint x="-525" y="313" as="sourcePoint" />
            <mxPoint x="-705" y="310" as="targetPoint" />
          </mxGeometry>
        </mxCell>
        <mxCell id="Xnj83cRvs6DByZSezMd7-274" value="obujam_struka" style="ellipse;whiteSpace=wrap;html=1;" vertex="1" parent="1">
          <mxGeometry x="-390" y="256" width="90" height="70" as="geometry" />
        </mxCell>
        <mxCell id="Xnj83cRvs6DByZSezMd7-275" value="" style="endArrow=none;html=1;rounded=0;exitX=0;exitY=1;exitDx=0;exitDy=0;entryX=0.5;entryY=0;entryDx=0;entryDy=0;" edge="1" target="Xnj83cRvs6DByZSezMd7-274" parent="1" source="fb7B25jU6JOEQ9ZOqQDt-6">
          <mxGeometry width="50" height="50" relative="1" as="geometry">
            <mxPoint x="-495" y="328" as="sourcePoint" />
            <mxPoint x="-625" y="340" as="targetPoint" />
          </mxGeometry>
        </mxCell>
        <mxCell id="Xnj83cRvs6DByZSezMd7-276" value="obujam_prsa" style="ellipse;whiteSpace=wrap;html=1;" vertex="1" parent="1">
          <mxGeometry x="-290" y="284" width="80" height="66" as="geometry" />
        </mxCell>
        <mxCell id="Xnj83cRvs6DByZSezMd7-277" value="" style="endArrow=none;html=1;rounded=0;exitX=0.5;exitY=1;exitDx=0;exitDy=0;entryX=0.5;entryY=0;entryDx=0;entryDy=0;" edge="1" target="Xnj83cRvs6DByZSezMd7-276" parent="1" source="fb7B25jU6JOEQ9ZOqQDt-6">
          <mxGeometry width="50" height="50" relative="1" as="geometry">
            <mxPoint x="-280" y="370" as="sourcePoint" />
            <mxPoint x="-250" y="280" as="targetPoint" />
          </mxGeometry>
        </mxCell>
        <mxCell id="Xnj83cRvs6DByZSezMd7-278" value="n" style="text;html=1;align=center;verticalAlign=middle;resizable=0;points=[];autosize=1;strokeColor=none;fillColor=none;" vertex="1" parent="1">
          <mxGeometry x="-890" y="-302" width="30" height="30" as="geometry" />
        </mxCell>
        <mxCell id="Xnj83cRvs6DByZSezMd7-279" value="1" style="text;html=1;align=center;verticalAlign=middle;resizable=0;points=[];autosize=1;strokeColor=none;fillColor=none;" vertex="1" parent="1">
          <mxGeometry x="-965" y="-109" width="30" height="30" as="geometry" />
        </mxCell>
        <mxCell id="Xnj83cRvs6DByZSezMd7-356" value="1" style="text;html=1;align=center;verticalAlign=middle;resizable=0;points=[];autosize=1;strokeColor=none;fillColor=none;" vertex="1" parent="1">
          <mxGeometry x="-475" y="86" width="30" height="30" as="geometry" />
        </mxCell>
        <mxCell id="Xnj83cRvs6DByZSezMd7-357" value="n" style="text;html=1;align=center;verticalAlign=middle;resizable=0;points=[];autosize=1;strokeColor=none;fillColor=none;" vertex="1" parent="1">
          <mxGeometry x="-350" y="156" width="30" height="30" as="geometry" />
        </mxCell>
        <mxCell id="Xnj83cRvs6DByZSezMd7-362" value="POVIJEST_CIJENA" style="shape=table;startSize=30;container=1;collapsible=1;childLayout=tableLayout;fixedRows=1;rowLines=0;fontStyle=1;align=center;resizeLast=1;html=1;fillColor=#6a00ff;strokeColor=#3700CC;swimlaneFillColor=default;fontColor=#ffffff;" vertex="1" parent="1">
          <mxGeometry x="1110" y="361" width="190" height="182" as="geometry" />
        </mxCell>
        <mxCell id="Xnj83cRvs6DByZSezMd7-363" value="" style="shape=tableRow;horizontal=0;startSize=0;swimlaneHead=0;swimlaneBody=0;fillColor=none;collapsible=0;dropTarget=0;points=[[0,0.5],[1,0.5]];portConstraint=eastwest;top=0;left=0;right=0;bottom=1;" vertex="1" parent="Xnj83cRvs6DByZSezMd7-362">
          <mxGeometry y="30" width="190" height="30" as="geometry" />
        </mxCell>
        <mxCell id="Xnj83cRvs6DByZSezMd7-364" value="PK, FK" style="shape=partialRectangle;connectable=0;fillColor=none;top=0;left=0;bottom=0;right=0;fontStyle=1;overflow=hidden;whiteSpace=wrap;html=1;" vertex="1" parent="Xnj83cRvs6DByZSezMd7-363">
          <mxGeometry width="50" height="30" as="geometry">
            <mxRectangle width="50" height="30" as="alternateBounds" />
          </mxGeometry>
        </mxCell>
        <mxCell id="Xnj83cRvs6DByZSezMd7-365" value="ID_programa" style="shape=partialRectangle;connectable=0;fillColor=none;top=0;left=0;bottom=0;right=0;align=left;spacingLeft=6;fontStyle=5;overflow=hidden;whiteSpace=wrap;html=1;" vertex="1" parent="Xnj83cRvs6DByZSezMd7-363">
          <mxGeometry x="50" width="140" height="30" as="geometry">
            <mxRectangle width="140" height="30" as="alternateBounds" />
          </mxGeometry>
        </mxCell>
        <mxCell id="Xnj83cRvs6DByZSezMd7-366" value="" style="shape=tableRow;horizontal=0;startSize=0;swimlaneHead=0;swimlaneBody=0;fillColor=none;collapsible=0;dropTarget=0;points=[[0,0.5],[1,0.5]];portConstraint=eastwest;top=0;left=0;right=0;bottom=1;" vertex="1" parent="Xnj83cRvs6DByZSezMd7-362">
          <mxGeometry y="60" width="190" height="30" as="geometry" />
        </mxCell>
        <mxCell id="Xnj83cRvs6DByZSezMd7-367" value="PK" style="shape=partialRectangle;connectable=0;fillColor=none;top=0;left=0;bottom=0;right=0;fontStyle=1;overflow=hidden;whiteSpace=wrap;html=1;" vertex="1" parent="Xnj83cRvs6DByZSezMd7-366">
          <mxGeometry width="50" height="30" as="geometry">
            <mxRectangle width="50" height="30" as="alternateBounds" />
          </mxGeometry>
        </mxCell>
        <mxCell id="Xnj83cRvs6DByZSezMd7-368" value="ID_povijesti" style="shape=partialRectangle;connectable=0;fillColor=none;top=0;left=0;bottom=0;right=0;align=left;spacingLeft=6;fontStyle=5;overflow=hidden;whiteSpace=wrap;html=1;" vertex="1" parent="Xnj83cRvs6DByZSezMd7-366">
          <mxGeometry x="50" width="140" height="30" as="geometry">
            <mxRectangle width="140" height="30" as="alternateBounds" />
          </mxGeometry>
        </mxCell>
        <mxCell id="Xnj83cRvs6DByZSezMd7-369" value="" style="shape=tableRow;horizontal=0;startSize=0;swimlaneHead=0;swimlaneBody=0;fillColor=none;collapsible=0;dropTarget=0;points=[[0,0.5],[1,0.5]];portConstraint=eastwest;top=0;left=0;right=0;bottom=0;" vertex="1" parent="Xnj83cRvs6DByZSezMd7-362">
          <mxGeometry y="90" width="190" height="30" as="geometry" />
        </mxCell>
        <mxCell id="Xnj83cRvs6DByZSezMd7-370" value="" style="shape=partialRectangle;connectable=0;fillColor=none;top=0;left=0;bottom=0;right=0;editable=1;overflow=hidden;whiteSpace=wrap;html=1;" vertex="1" parent="Xnj83cRvs6DByZSezMd7-369">
          <mxGeometry width="50" height="30" as="geometry">
            <mxRectangle width="50" height="30" as="alternateBounds" />
          </mxGeometry>
        </mxCell>
        <mxCell id="Xnj83cRvs6DByZSezMd7-371" value="*datum_promjene" style="shape=partialRectangle;connectable=0;fillColor=none;top=0;left=0;bottom=0;right=0;align=left;spacingLeft=6;overflow=hidden;whiteSpace=wrap;html=1;" vertex="1" parent="Xnj83cRvs6DByZSezMd7-369">
          <mxGeometry x="50" width="140" height="30" as="geometry">
            <mxRectangle width="140" height="30" as="alternateBounds" />
          </mxGeometry>
        </mxCell>
        <mxCell id="Xnj83cRvs6DByZSezMd7-372" value="" style="shape=tableRow;horizontal=0;startSize=0;swimlaneHead=0;swimlaneBody=0;fillColor=none;collapsible=0;dropTarget=0;points=[[0,0.5],[1,0.5]];portConstraint=eastwest;top=0;left=0;right=0;bottom=0;" vertex="1" parent="Xnj83cRvs6DByZSezMd7-362">
          <mxGeometry y="120" width="190" height="30" as="geometry" />
        </mxCell>
        <mxCell id="Xnj83cRvs6DByZSezMd7-373" value="" style="shape=partialRectangle;connectable=0;fillColor=none;top=0;left=0;bottom=0;right=0;editable=1;overflow=hidden;whiteSpace=wrap;html=1;" vertex="1" parent="Xnj83cRvs6DByZSezMd7-372">
          <mxGeometry width="50" height="30" as="geometry">
            <mxRectangle width="50" height="30" as="alternateBounds" />
          </mxGeometry>
        </mxCell>
        <mxCell id="Xnj83cRvs6DByZSezMd7-374" value="*stara_cijena" style="shape=partialRectangle;connectable=0;fillColor=none;top=0;left=0;bottom=0;right=0;align=left;spacingLeft=6;overflow=hidden;whiteSpace=wrap;html=1;" vertex="1" parent="Xnj83cRvs6DByZSezMd7-372">
          <mxGeometry x="50" width="140" height="30" as="geometry">
            <mxRectangle width="140" height="30" as="alternateBounds" />
          </mxGeometry>
        </mxCell>
        <mxCell id="Xnj83cRvs6DByZSezMd7-375" value="" style="shape=tableRow;horizontal=0;startSize=0;swimlaneHead=0;swimlaneBody=0;fillColor=none;collapsible=0;dropTarget=0;points=[[0,0.5],[1,0.5]];portConstraint=eastwest;top=0;left=0;right=0;bottom=0;" vertex="1" parent="Xnj83cRvs6DByZSezMd7-362">
          <mxGeometry y="150" width="190" height="30" as="geometry" />
        </mxCell>
        <mxCell id="Xnj83cRvs6DByZSezMd7-376" value="" style="shape=partialRectangle;connectable=0;fillColor=none;top=0;left=0;bottom=0;right=0;editable=1;overflow=hidden;whiteSpace=wrap;html=1;" vertex="1" parent="Xnj83cRvs6DByZSezMd7-375">
          <mxGeometry width="50" height="30" as="geometry">
            <mxRectangle width="50" height="30" as="alternateBounds" />
          </mxGeometry>
        </mxCell>
        <mxCell id="Xnj83cRvs6DByZSezMd7-377" value="*nova_cijena" style="shape=partialRectangle;connectable=0;fillColor=none;top=0;left=0;bottom=0;right=0;align=left;spacingLeft=6;overflow=hidden;whiteSpace=wrap;html=1;" vertex="1" parent="Xnj83cRvs6DByZSezMd7-375">
          <mxGeometry x="50" width="140" height="30" as="geometry">
            <mxRectangle width="140" height="30" as="alternateBounds" />
          </mxGeometry>
        </mxCell>
        <mxCell id="Xnj83cRvs6DByZSezMd7-387" value="n" style="text;html=1;align=center;verticalAlign=middle;resizable=0;points=[];autosize=1;strokeColor=none;fillColor=none;" vertex="1" parent="1">
          <mxGeometry x="-335" y="930" width="30" height="30" as="geometry" />
        </mxCell>
        <mxCell id="Xnj83cRvs6DByZSezMd7-388" value="1" style="text;html=1;align=center;verticalAlign=middle;resizable=0;points=[];autosize=1;strokeColor=none;fillColor=none;" vertex="1" parent="1">
          <mxGeometry x="-385" y="618" width="30" height="30" as="geometry" />
        </mxCell>
        <mxCell id="Xnj83cRvs6DByZSezMd7-389" value="" style="endArrow=none;html=1;rounded=0;entryX=0;entryY=0.5;entryDx=0;entryDy=0;exitX=1;exitY=0.5;exitDx=0;exitDy=0;" edge="1" parent="1" source="l63NLzGvEjnrkUhpd7Kd-439" target="l63NLzGvEjnrkUhpd7Kd-3">
          <mxGeometry width="50" height="50" relative="1" as="geometry">
            <mxPoint x="-550" y="480" as="sourcePoint" />
            <mxPoint x="-500" y="430" as="targetPoint" />
          </mxGeometry>
        </mxCell>
        <mxCell id="Xnj83cRvs6DByZSezMd7-396" value="sastavio" style="rhombus;whiteSpace=wrap;html=1;" vertex="1" parent="1">
          <mxGeometry x="-915" y="430" width="80" height="80" as="geometry" />
        </mxCell>
        <mxCell id="Xnj83cRvs6DByZSezMd7-397" value="" style="endArrow=none;html=1;rounded=0;entryX=1;entryY=0.5;entryDx=0;entryDy=0;exitX=0.5;exitY=0;exitDx=0;exitDy=0;" edge="1" source="Xnj83cRvs6DByZSezMd7-396" parent="1" target="Xnj83cRvs6DByZSezMd7-103">
          <mxGeometry width="50" height="50" relative="1" as="geometry">
            <mxPoint x="-775" y="327" as="sourcePoint" />
            <mxPoint x="-695" y="388" as="targetPoint" />
          </mxGeometry>
        </mxCell>
        <mxCell id="Xnj83cRvs6DByZSezMd7-398" value="" style="endArrow=none;html=1;rounded=0;entryX=0.5;entryY=1;entryDx=0;entryDy=0;exitX=0.25;exitY=0;exitDx=0;exitDy=0;" edge="1" parent="1" source="l63NLzGvEjnrkUhpd7Kd-73" target="Xnj83cRvs6DByZSezMd7-396">
          <mxGeometry width="50" height="50" relative="1" as="geometry">
            <mxPoint x="-745" y="435" as="sourcePoint" />
            <mxPoint x="-830" y="181" as="targetPoint" />
          </mxGeometry>
        </mxCell>
        <mxCell id="Xnj83cRvs6DByZSezMd7-400" value="1" style="text;html=1;align=center;verticalAlign=middle;resizable=0;points=[];autosize=1;strokeColor=none;fillColor=none;" vertex="1" parent="1">
          <mxGeometry x="-860" y="186" width="30" height="30" as="geometry" />
        </mxCell>
        <mxCell id="Xnj83cRvs6DByZSezMd7-401" value="&lt;span style=&quot;font-weight: 700; text-align: left; text-decoration-line: underline;&quot;&gt;ID_odradenog_programa&lt;/span&gt;" style="ellipse;whiteSpace=wrap;html=1;" vertex="1" parent="1">
          <mxGeometry x="-115" y="4" width="175" height="76" as="geometry" />
        </mxCell>
        <mxCell id="Xnj83cRvs6DByZSezMd7-402" value="" style="endArrow=none;html=1;rounded=0;exitX=0.75;exitY=0;exitDx=0;exitDy=0;entryX=0;entryY=0.5;entryDx=0;entryDy=0;" edge="1" parent="1" source="fb7B25jU6JOEQ9ZOqQDt-6" target="Xnj83cRvs6DByZSezMd7-401">
          <mxGeometry width="50" height="50" relative="1" as="geometry">
            <mxPoint x="-230" y="166" as="sourcePoint" />
            <mxPoint x="-207" y="80" as="targetPoint" />
          </mxGeometry>
        </mxCell>
        <mxCell id="Xnj83cRvs6DByZSezMd7-416" value="1" style="text;html=1;align=center;verticalAlign=middle;resizable=0;points=[];autosize=1;strokeColor=none;fillColor=none;" vertex="1" parent="1">
          <mxGeometry x="-1160" y="398" width="30" height="30" as="geometry" />
        </mxCell>
        <mxCell id="Xnj83cRvs6DByZSezMd7-418" value="" style="endArrow=none;html=1;rounded=0;entryX=0;entryY=0.5;entryDx=0;entryDy=0;exitX=0.5;exitY=0;exitDx=0;exitDy=0;" edge="1" parent="1" source="l63NLzGvEjnrkUhpd7Kd-86" target="Xnj83cRvs6DByZSezMd7-391">
          <mxGeometry width="50" height="50" relative="1" as="geometry">
            <mxPoint x="-880" y="730" as="sourcePoint" />
            <mxPoint x="-830" y="680" as="targetPoint" />
          </mxGeometry>
        </mxCell>
        <mxCell id="Xnj83cRvs6DByZSezMd7-421" value="TRENING" style="swimlane;fontStyle=0;childLayout=stackLayout;horizontal=1;startSize=26;horizontalStack=0;resizeParent=1;resizeParentMax=0;resizeLast=0;collapsible=1;marginBottom=0;align=center;fontSize=14;fillColor=#d80073;strokeColor=#A50040;swimlaneFillColor=default;rounded=1;fontColor=#ffffff;" vertex="1" parent="1">
          <mxGeometry x="-560" y="600" width="160" height="206" as="geometry">
            <mxRectangle x="320" y="250" width="130" height="30" as="alternateBounds" />
          </mxGeometry>
        </mxCell>
        <mxCell id="Xnj83cRvs6DByZSezMd7-422" value="&lt;u&gt;&lt;b&gt;ID_treninga&lt;/b&gt;&lt;/u&gt;" style="text;strokeColor=none;fillColor=none;spacingLeft=4;spacingRight=4;overflow=hidden;rotatable=0;points=[[0,0.5],[1,0.5]];portConstraint=eastwest;fontSize=12;whiteSpace=wrap;html=1;" vertex="1" parent="Xnj83cRvs6DByZSezMd7-421">
          <mxGeometry y="26" width="160" height="30" as="geometry" />
        </mxCell>
        <mxCell id="Xnj83cRvs6DByZSezMd7-423" value="naziv" style="text;strokeColor=none;fillColor=none;spacingLeft=4;spacingRight=4;overflow=hidden;rotatable=0;points=[[0,0.5],[1,0.5]];portConstraint=eastwest;fontSize=12;whiteSpace=wrap;html=1;" vertex="1" parent="Xnj83cRvs6DByZSezMd7-421">
          <mxGeometry y="56" width="160" height="30" as="geometry" />
        </mxCell>
        <mxCell id="Xnj83cRvs6DByZSezMd7-424" value="opis" style="text;strokeColor=none;fillColor=none;spacingLeft=4;spacingRight=4;overflow=hidden;rotatable=0;points=[[0,0.5],[1,0.5]];portConstraint=eastwest;fontSize=12;whiteSpace=wrap;html=1;" vertex="1" parent="Xnj83cRvs6DByZSezMd7-421">
          <mxGeometry y="86" width="160" height="30" as="geometry" />
        </mxCell>
        <mxCell id="Xnj83cRvs6DByZSezMd7-613" value="nivo_tezine" style="text;strokeColor=none;fillColor=none;spacingLeft=4;spacingRight=4;overflow=hidden;rotatable=0;points=[[0,0.5],[1,0.5]];portConstraint=eastwest;fontSize=12;whiteSpace=wrap;html=1;" vertex="1" parent="Xnj83cRvs6DByZSezMd7-421">
          <mxGeometry y="116" width="160" height="30" as="geometry" />
        </mxCell>
        <mxCell id="Xnj83cRvs6DByZSezMd7-529" value="trajanje" style="text;strokeColor=none;fillColor=none;spacingLeft=4;spacingRight=4;overflow=hidden;rotatable=0;points=[[0,0.5],[1,0.5]];portConstraint=eastwest;fontSize=12;whiteSpace=wrap;html=1;" vertex="1" parent="Xnj83cRvs6DByZSezMd7-421">
          <mxGeometry y="146" width="160" height="30" as="geometry" />
        </mxCell>
        <mxCell id="Xnj83cRvs6DByZSezMd7-614" value="potrebni_rekviziti" style="text;strokeColor=none;fillColor=none;spacingLeft=4;spacingRight=4;overflow=hidden;rotatable=0;points=[[0,0.5],[1,0.5]];portConstraint=eastwest;fontSize=12;whiteSpace=wrap;html=1;" vertex="1" parent="Xnj83cRvs6DByZSezMd7-421">
          <mxGeometry y="176" width="160" height="30" as="geometry" />
        </mxCell>
        <mxCell id="Xnj83cRvs6DByZSezMd7-427" value="sadrži" style="rhombus;whiteSpace=wrap;html=1;" vertex="1" parent="1">
          <mxGeometry x="-690" y="630" width="90" height="80" as="geometry" />
        </mxCell>
        <mxCell id="Xnj83cRvs6DByZSezMd7-428" value="" style="endArrow=none;html=1;rounded=0;entryX=0;entryY=0.5;entryDx=0;entryDy=0;exitX=1;exitY=0.5;exitDx=0;exitDy=0;" edge="1" parent="1" source="Xnj83cRvs6DByZSezMd7-427" target="Xnj83cRvs6DByZSezMd7-424">
          <mxGeometry width="50" height="50" relative="1" as="geometry">
            <mxPoint x="-870" y="600" as="sourcePoint" />
            <mxPoint x="-820" y="550" as="targetPoint" />
          </mxGeometry>
        </mxCell>
        <mxCell id="Xnj83cRvs6DByZSezMd7-429" value="" style="endArrow=none;html=1;rounded=0;entryX=0;entryY=0.5;entryDx=0;entryDy=0;exitX=1;exitY=0.5;exitDx=0;exitDy=0;" edge="1" parent="1" source="l63NLzGvEjnrkUhpd7Kd-75" target="Xnj83cRvs6DByZSezMd7-427">
          <mxGeometry width="50" height="50" relative="1" as="geometry">
            <mxPoint x="-870" y="600" as="sourcePoint" />
            <mxPoint x="-820" y="550" as="targetPoint" />
          </mxGeometry>
        </mxCell>
        <mxCell id="Xnj83cRvs6DByZSezMd7-430" value="n" style="text;html=1;align=center;verticalAlign=middle;resizable=0;points=[];autosize=1;strokeColor=none;fillColor=none;" vertex="1" parent="1">
          <mxGeometry x="-920" y="618" width="30" height="30" as="geometry" />
        </mxCell>
        <mxCell id="Xnj83cRvs6DByZSezMd7-431" value="radi" style="rhombus;whiteSpace=wrap;html=1;" vertex="1" parent="1">
          <mxGeometry x="-1315" y="233" width="80" height="80" as="geometry" />
        </mxCell>
        <mxCell id="Xnj83cRvs6DByZSezMd7-432" value="" style="endArrow=none;html=1;rounded=0;entryX=0;entryY=0.5;entryDx=0;entryDy=0;exitX=0.5;exitY=0;exitDx=0;exitDy=0;" edge="1" parent="1" source="Xnj83cRvs6DByZSezMd7-431" target="Xnj83cRvs6DByZSezMd7-105">
          <mxGeometry width="50" height="50" relative="1" as="geometry">
            <mxPoint x="-870" y="340" as="sourcePoint" />
            <mxPoint x="-820" y="290" as="targetPoint" />
          </mxGeometry>
        </mxCell>
        <mxCell id="Xnj83cRvs6DByZSezMd7-433" value="" style="endArrow=none;html=1;rounded=0;entryX=0.5;entryY=1;entryDx=0;entryDy=0;exitX=0.25;exitY=0;exitDx=0;exitDy=0;" edge="1" parent="1" source="l63NLzGvEjnrkUhpd7Kd-45" target="Xnj83cRvs6DByZSezMd7-431">
          <mxGeometry width="50" height="50" relative="1" as="geometry">
            <mxPoint x="-870" y="340" as="sourcePoint" />
            <mxPoint x="-820" y="290" as="targetPoint" />
          </mxGeometry>
        </mxCell>
        <mxCell id="Xnj83cRvs6DByZSezMd7-434" value="n" style="text;html=1;align=center;verticalAlign=middle;resizable=0;points=[];autosize=1;strokeColor=none;fillColor=none;" vertex="1" parent="1">
          <mxGeometry x="-1420" y="520" width="30" height="30" as="geometry" />
        </mxCell>
        <mxCell id="Xnj83cRvs6DByZSezMd7-435" value="1" style="text;html=1;align=center;verticalAlign=middle;resizable=0;points=[];autosize=1;strokeColor=none;fillColor=none;" vertex="1" parent="1">
          <mxGeometry x="-1050" y="58" width="30" height="30" as="geometry" />
        </mxCell>
        <mxCell id="Xnj83cRvs6DByZSezMd7-436" value="n" style="text;html=1;align=center;verticalAlign=middle;resizable=0;points=[];autosize=1;strokeColor=none;fillColor=none;" vertex="1" parent="1">
          <mxGeometry x="-740" y="648" width="30" height="30" as="geometry" />
        </mxCell>
        <mxCell id="Xnj83cRvs6DByZSezMd7-437" value="1" style="text;html=1;align=center;verticalAlign=middle;resizable=0;points=[];autosize=1;strokeColor=none;fillColor=none;" vertex="1" parent="1">
          <mxGeometry x="-740" y="740" width="30" height="30" as="geometry" />
        </mxCell>
        <mxCell id="Xnj83cRvs6DByZSezMd7-438" value="1" style="text;html=1;align=center;verticalAlign=middle;resizable=0;points=[];autosize=1;strokeColor=none;fillColor=none;" vertex="1" parent="1">
          <mxGeometry x="-475" y="290" width="30" height="30" as="geometry" />
        </mxCell>
        <mxCell id="Xnj83cRvs6DByZSezMd7-439" value="n" style="text;html=1;align=center;verticalAlign=middle;resizable=0;points=[];autosize=1;strokeColor=none;fillColor=none;" vertex="1" parent="1">
          <mxGeometry x="-250" y="410" width="30" height="30" as="geometry" />
        </mxCell>
        <mxCell id="Xnj83cRvs6DByZSezMd7-442" value="n" style="text;html=1;align=center;verticalAlign=middle;resizable=0;points=[];autosize=1;strokeColor=none;fillColor=none;" vertex="1" parent="1">
          <mxGeometry x="-345" y="502" width="30" height="30" as="geometry" />
        </mxCell>
        <mxCell id="Xnj83cRvs6DByZSezMd7-451" value="&amp;nbsp;" style="text;html=1;align=center;verticalAlign=middle;resizable=0;points=[];autosize=1;strokeColor=none;fillColor=none;" vertex="1" parent="1">
          <mxGeometry x="-670" y="-420" width="30" height="30" as="geometry" />
        </mxCell>
        <mxCell id="Xnj83cRvs6DByZSezMd7-454" value="ONLINE" style="shape=table;startSize=30;container=1;collapsible=1;childLayout=tableLayout;fixedRows=1;rowLines=0;fontStyle=1;align=center;resizeLast=1;html=1;fillColor=#6a00ff;strokeColor=#3700CC;swimlaneFillColor=default;fontColor=#ffffff;" vertex="1" parent="1">
          <mxGeometry x="680" y="387" width="180" height="150" as="geometry" />
        </mxCell>
        <mxCell id="Xnj83cRvs6DByZSezMd7-455" value="" style="shape=tableRow;horizontal=0;startSize=0;swimlaneHead=0;swimlaneBody=0;fillColor=none;collapsible=0;dropTarget=0;points=[[0,0.5],[1,0.5]];portConstraint=eastwest;top=0;left=0;right=0;bottom=1;" vertex="1" parent="Xnj83cRvs6DByZSezMd7-454">
          <mxGeometry y="30" width="180" height="30" as="geometry" />
        </mxCell>
        <mxCell id="Xnj83cRvs6DByZSezMd7-456" value="PK, FK" style="shape=partialRectangle;connectable=0;fillColor=none;top=0;left=0;bottom=0;right=0;fontStyle=1;overflow=hidden;whiteSpace=wrap;html=1;" vertex="1" parent="Xnj83cRvs6DByZSezMd7-455">
          <mxGeometry width="50" height="30" as="geometry">
            <mxRectangle width="50" height="30" as="alternateBounds" />
          </mxGeometry>
        </mxCell>
        <mxCell id="Xnj83cRvs6DByZSezMd7-457" value="*ID_online_programa" style="shape=partialRectangle;connectable=0;fillColor=none;top=0;left=0;bottom=0;right=0;align=left;spacingLeft=6;fontStyle=5;overflow=hidden;whiteSpace=wrap;html=1;" vertex="1" parent="Xnj83cRvs6DByZSezMd7-455">
          <mxGeometry x="50" width="130" height="30" as="geometry">
            <mxRectangle width="130" height="30" as="alternateBounds" />
          </mxGeometry>
        </mxCell>
        <mxCell id="Xnj83cRvs6DByZSezMd7-458" value="" style="shape=tableRow;horizontal=0;startSize=0;swimlaneHead=0;swimlaneBody=0;fillColor=none;collapsible=0;dropTarget=0;points=[[0,0.5],[1,0.5]];portConstraint=eastwest;top=0;left=0;right=0;bottom=0;" vertex="1" parent="Xnj83cRvs6DByZSezMd7-454">
          <mxGeometry y="60" width="180" height="30" as="geometry" />
        </mxCell>
        <mxCell id="Xnj83cRvs6DByZSezMd7-459" value="" style="shape=partialRectangle;connectable=0;fillColor=none;top=0;left=0;bottom=0;right=0;editable=1;overflow=hidden;whiteSpace=wrap;html=1;" vertex="1" parent="Xnj83cRvs6DByZSezMd7-458">
          <mxGeometry width="50" height="30" as="geometry">
            <mxRectangle width="50" height="30" as="alternateBounds" />
          </mxGeometry>
        </mxCell>
        <mxCell id="Xnj83cRvs6DByZSezMd7-460" value="*link_za_pristup" style="shape=partialRectangle;connectable=0;fillColor=none;top=0;left=0;bottom=0;right=0;align=left;spacingLeft=6;overflow=hidden;whiteSpace=wrap;html=1;" vertex="1" parent="Xnj83cRvs6DByZSezMd7-458">
          <mxGeometry x="50" width="130" height="30" as="geometry">
            <mxRectangle width="130" height="30" as="alternateBounds" />
          </mxGeometry>
        </mxCell>
        <mxCell id="Xnj83cRvs6DByZSezMd7-606" value="" style="shape=tableRow;horizontal=0;startSize=0;swimlaneHead=0;swimlaneBody=0;fillColor=none;collapsible=0;dropTarget=0;points=[[0,0.5],[1,0.5]];portConstraint=eastwest;top=0;left=0;right=0;bottom=0;" vertex="1" parent="Xnj83cRvs6DByZSezMd7-454">
          <mxGeometry y="90" width="180" height="30" as="geometry" />
        </mxCell>
        <mxCell id="Xnj83cRvs6DByZSezMd7-607" value="" style="shape=partialRectangle;connectable=0;fillColor=none;top=0;left=0;bottom=0;right=0;editable=1;overflow=hidden;whiteSpace=wrap;html=1;" vertex="1" parent="Xnj83cRvs6DByZSezMd7-606">
          <mxGeometry width="50" height="30" as="geometry">
            <mxRectangle width="50" height="30" as="alternateBounds" />
          </mxGeometry>
        </mxCell>
        <mxCell id="Xnj83cRvs6DByZSezMd7-608" value="° izazovi" style="shape=partialRectangle;connectable=0;fillColor=none;top=0;left=0;bottom=0;right=0;align=left;spacingLeft=6;overflow=hidden;whiteSpace=wrap;html=1;" vertex="1" parent="Xnj83cRvs6DByZSezMd7-606">
          <mxGeometry x="50" width="130" height="30" as="geometry">
            <mxRectangle width="130" height="30" as="alternateBounds" />
          </mxGeometry>
        </mxCell>
        <mxCell id="Xnj83cRvs6DByZSezMd7-609" value="" style="shape=tableRow;horizontal=0;startSize=0;swimlaneHead=0;swimlaneBody=0;fillColor=none;collapsible=0;dropTarget=0;points=[[0,0.5],[1,0.5]];portConstraint=eastwest;top=0;left=0;right=0;bottom=0;" vertex="1" parent="Xnj83cRvs6DByZSezMd7-454">
          <mxGeometry y="120" width="180" height="30" as="geometry" />
        </mxCell>
        <mxCell id="Xnj83cRvs6DByZSezMd7-610" value="" style="shape=partialRectangle;connectable=0;fillColor=none;top=0;left=0;bottom=0;right=0;editable=1;overflow=hidden;whiteSpace=wrap;html=1;" vertex="1" parent="Xnj83cRvs6DByZSezMd7-609">
          <mxGeometry width="50" height="30" as="geometry">
            <mxRectangle width="50" height="30" as="alternateBounds" />
          </mxGeometry>
        </mxCell>
        <mxCell id="Xnj83cRvs6DByZSezMd7-611" value="° upozorenja" style="shape=partialRectangle;connectable=0;fillColor=none;top=0;left=0;bottom=0;right=0;align=left;spacingLeft=6;overflow=hidden;whiteSpace=wrap;html=1;" vertex="1" parent="Xnj83cRvs6DByZSezMd7-609">
          <mxGeometry x="50" width="130" height="30" as="geometry">
            <mxRectangle width="130" height="30" as="alternateBounds" />
          </mxGeometry>
        </mxCell>
        <mxCell id="Xnj83cRvs6DByZSezMd7-483" style="edgeStyle=orthogonalEdgeStyle;rounded=0;orthogonalLoop=1;jettySize=auto;html=1;entryX=0;entryY=0.5;entryDx=0;entryDy=0;endArrow=none;endFill=0;dashed=1;exitX=1;exitY=0.5;exitDx=0;exitDy=0;" edge="1" parent="1" source="l63NLzGvEjnrkUhpd7Kd-37" target="l63NLzGvEjnrkUhpd7Kd-439">
          <mxGeometry relative="1" as="geometry">
            <mxPoint x="-945" y="288" as="targetPoint" />
            <mxPoint x="-900" y="440" as="sourcePoint" />
            <Array as="points">
              <mxPoint x="-900" y="402" />
              <mxPoint x="-900" y="353" />
            </Array>
          </mxGeometry>
        </mxCell>
        <mxCell id="Xnj83cRvs6DByZSezMd7-484" style="edgeStyle=orthogonalEdgeStyle;rounded=0;orthogonalLoop=1;jettySize=auto;html=1;entryX=0.5;entryY=0;entryDx=0;entryDy=0;endArrow=none;endFill=0;dashed=1;" edge="1" parent="1" target="l63NLzGvEjnrkUhpd7Kd-35">
          <mxGeometry relative="1" as="geometry">
            <mxPoint x="-925" y="238" as="targetPoint" />
            <mxPoint x="-1060" y="260" as="sourcePoint" />
            <Array as="points">
              <mxPoint x="-1045" y="260" />
            </Array>
          </mxGeometry>
        </mxCell>
        <mxCell id="Xnj83cRvs6DByZSezMd7-486" style="edgeStyle=orthogonalEdgeStyle;rounded=0;orthogonalLoop=1;jettySize=auto;html=1;exitX=1;exitY=0.5;exitDx=0;exitDy=0;entryX=0.5;entryY=0;entryDx=0;entryDy=0;endArrow=none;endFill=0;dashed=1;" edge="1" parent="1" source="Xnj83cRvs6DByZSezMd7-31" target="l63NLzGvEjnrkUhpd7Kd-27">
          <mxGeometry relative="1" as="geometry">
            <mxPoint x="-615" y="-252" as="targetPoint" />
            <mxPoint x="-680" y="-277" as="sourcePoint" />
            <Array as="points">
              <mxPoint x="-640" y="-319" />
            </Array>
          </mxGeometry>
        </mxCell>
        <mxCell id="Xnj83cRvs6DByZSezMd7-487" style="edgeStyle=orthogonalEdgeStyle;rounded=0;orthogonalLoop=1;jettySize=auto;html=1;exitX=0.5;exitY=0;exitDx=0;exitDy=0;entryX=0;entryY=0.5;entryDx=0;entryDy=0;endArrow=none;endFill=0;dashed=1;" edge="1" parent="1" source="Xnj83cRvs6DByZSezMd7-68">
          <mxGeometry relative="1" as="geometry">
            <mxPoint x="-840" y="-277" as="targetPoint" />
            <mxPoint x="-900" y="-260" as="sourcePoint" />
            <Array as="points">
              <mxPoint x="-920" y="-277" />
            </Array>
          </mxGeometry>
        </mxCell>
        <mxCell id="l63NLzGvEjnrkUhpd7Kd-228" value="GRUPA" style="shape=table;startSize=30;container=1;collapsible=1;childLayout=tableLayout;fixedRows=1;rowLines=0;fontStyle=1;align=center;resizeLast=1;html=1;fillColor=#6a00ff;strokeColor=#3700CC;swimlaneFillColor=default;fontColor=#ffffff;" parent="1" vertex="1">
          <mxGeometry x="360" y="100" width="180" height="210" as="geometry" />
        </mxCell>
        <mxCell id="l63NLzGvEjnrkUhpd7Kd-229" value="" style="shape=tableRow;horizontal=0;startSize=0;swimlaneHead=0;swimlaneBody=0;fillColor=none;collapsible=0;dropTarget=0;points=[[0,0.5],[1,0.5]];portConstraint=eastwest;top=0;left=0;right=0;bottom=1;" parent="l63NLzGvEjnrkUhpd7Kd-228" vertex="1">
          <mxGeometry y="30" width="180" height="30" as="geometry" />
        </mxCell>
        <mxCell id="l63NLzGvEjnrkUhpd7Kd-230" value="PK" style="shape=partialRectangle;connectable=0;fillColor=none;top=0;left=0;bottom=0;right=0;fontStyle=1;overflow=hidden;whiteSpace=wrap;html=1;" parent="l63NLzGvEjnrkUhpd7Kd-229" vertex="1">
          <mxGeometry width="30" height="30" as="geometry">
            <mxRectangle width="30" height="30" as="alternateBounds" />
          </mxGeometry>
        </mxCell>
        <mxCell id="l63NLzGvEjnrkUhpd7Kd-231" value="*GRUPA_ID" style="shape=partialRectangle;connectable=0;fillColor=none;top=0;left=0;bottom=0;right=0;align=left;spacingLeft=6;fontStyle=5;overflow=hidden;whiteSpace=wrap;html=1;" parent="l63NLzGvEjnrkUhpd7Kd-229" vertex="1">
          <mxGeometry x="30" width="150" height="30" as="geometry">
            <mxRectangle width="150" height="30" as="alternateBounds" />
          </mxGeometry>
        </mxCell>
        <mxCell id="l63NLzGvEjnrkUhpd7Kd-232" value="" style="shape=tableRow;horizontal=0;startSize=0;swimlaneHead=0;swimlaneBody=0;fillColor=none;collapsible=0;dropTarget=0;points=[[0,0.5],[1,0.5]];portConstraint=eastwest;top=0;left=0;right=0;bottom=0;" parent="l63NLzGvEjnrkUhpd7Kd-228" vertex="1">
          <mxGeometry y="60" width="180" height="30" as="geometry" />
        </mxCell>
        <mxCell id="l63NLzGvEjnrkUhpd7Kd-233" value="" style="shape=partialRectangle;connectable=0;fillColor=none;top=0;left=0;bottom=0;right=0;editable=1;overflow=hidden;whiteSpace=wrap;html=1;" parent="l63NLzGvEjnrkUhpd7Kd-232" vertex="1">
          <mxGeometry width="30" height="30" as="geometry">
            <mxRectangle width="30" height="30" as="alternateBounds" />
          </mxGeometry>
        </mxCell>
        <mxCell id="l63NLzGvEjnrkUhpd7Kd-234" value="* naziv" style="shape=partialRectangle;connectable=0;fillColor=none;top=0;left=0;bottom=0;right=0;align=left;spacingLeft=6;overflow=hidden;whiteSpace=wrap;html=1;" parent="l63NLzGvEjnrkUhpd7Kd-232" vertex="1">
          <mxGeometry x="30" width="150" height="30" as="geometry">
            <mxRectangle width="150" height="30" as="alternateBounds" />
          </mxGeometry>
        </mxCell>
        <mxCell id="l63NLzGvEjnrkUhpd7Kd-235" value="" style="shape=tableRow;horizontal=0;startSize=0;swimlaneHead=0;swimlaneBody=0;fillColor=none;collapsible=0;dropTarget=0;points=[[0,0.5],[1,0.5]];portConstraint=eastwest;top=0;left=0;right=0;bottom=0;" parent="l63NLzGvEjnrkUhpd7Kd-228" vertex="1">
          <mxGeometry y="90" width="180" height="30" as="geometry" />
        </mxCell>
        <mxCell id="l63NLzGvEjnrkUhpd7Kd-236" value="" style="shape=partialRectangle;connectable=0;fillColor=none;top=0;left=0;bottom=0;right=0;editable=1;overflow=hidden;whiteSpace=wrap;html=1;" parent="l63NLzGvEjnrkUhpd7Kd-235" vertex="1">
          <mxGeometry width="30" height="30" as="geometry">
            <mxRectangle width="30" height="30" as="alternateBounds" />
          </mxGeometry>
        </mxCell>
        <mxCell id="l63NLzGvEjnrkUhpd7Kd-237" value="* opis" style="shape=partialRectangle;connectable=0;fillColor=none;top=0;left=0;bottom=0;right=0;align=left;spacingLeft=6;overflow=hidden;whiteSpace=wrap;html=1;" parent="l63NLzGvEjnrkUhpd7Kd-235" vertex="1">
          <mxGeometry x="30" width="150" height="30" as="geometry">
            <mxRectangle width="150" height="30" as="alternateBounds" />
          </mxGeometry>
        </mxCell>
        <mxCell id="Xnj83cRvs6DByZSezMd7-505" value="" style="shape=tableRow;horizontal=0;startSize=0;swimlaneHead=0;swimlaneBody=0;fillColor=none;collapsible=0;dropTarget=0;points=[[0,0.5],[1,0.5]];portConstraint=eastwest;top=0;left=0;right=0;bottom=0;" vertex="1" parent="l63NLzGvEjnrkUhpd7Kd-228">
          <mxGeometry y="120" width="180" height="30" as="geometry" />
        </mxCell>
        <mxCell id="Xnj83cRvs6DByZSezMd7-506" value="" style="shape=partialRectangle;connectable=0;fillColor=none;top=0;left=0;bottom=0;right=0;editable=1;overflow=hidden;whiteSpace=wrap;html=1;" vertex="1" parent="Xnj83cRvs6DByZSezMd7-505">
          <mxGeometry width="30" height="30" as="geometry">
            <mxRectangle width="30" height="30" as="alternateBounds" />
          </mxGeometry>
        </mxCell>
        <mxCell id="Xnj83cRvs6DByZSezMd7-507" value="*cilj" style="shape=partialRectangle;connectable=0;fillColor=none;top=0;left=0;bottom=0;right=0;align=left;spacingLeft=6;overflow=hidden;whiteSpace=wrap;html=1;" vertex="1" parent="Xnj83cRvs6DByZSezMd7-505">
          <mxGeometry x="30" width="150" height="30" as="geometry">
            <mxRectangle width="150" height="30" as="alternateBounds" />
          </mxGeometry>
        </mxCell>
        <mxCell id="Xnj83cRvs6DByZSezMd7-518" value="" style="shape=tableRow;horizontal=0;startSize=0;swimlaneHead=0;swimlaneBody=0;fillColor=none;collapsible=0;dropTarget=0;points=[[0,0.5],[1,0.5]];portConstraint=eastwest;top=0;left=0;right=0;bottom=0;" vertex="1" parent="l63NLzGvEjnrkUhpd7Kd-228">
          <mxGeometry y="150" width="180" height="30" as="geometry" />
        </mxCell>
        <mxCell id="Xnj83cRvs6DByZSezMd7-519" value="" style="shape=partialRectangle;connectable=0;fillColor=none;top=0;left=0;bottom=0;right=0;editable=1;overflow=hidden;whiteSpace=wrap;html=1;" vertex="1" parent="Xnj83cRvs6DByZSezMd7-518">
          <mxGeometry width="30" height="30" as="geometry">
            <mxRectangle width="30" height="30" as="alternateBounds" />
          </mxGeometry>
        </mxCell>
        <mxCell id="Xnj83cRvs6DByZSezMd7-520" value="*max_broj_polaznika" style="shape=partialRectangle;connectable=0;fillColor=none;top=0;left=0;bottom=0;right=0;align=left;spacingLeft=6;overflow=hidden;whiteSpace=wrap;html=1;" vertex="1" parent="Xnj83cRvs6DByZSezMd7-518">
          <mxGeometry x="30" width="150" height="30" as="geometry">
            <mxRectangle width="150" height="30" as="alternateBounds" />
          </mxGeometry>
        </mxCell>
        <mxCell id="l63NLzGvEjnrkUhpd7Kd-238" value="" style="shape=tableRow;horizontal=0;startSize=0;swimlaneHead=0;swimlaneBody=0;fillColor=none;collapsible=0;dropTarget=0;points=[[0,0.5],[1,0.5]];portConstraint=eastwest;top=0;left=0;right=0;bottom=0;" parent="l63NLzGvEjnrkUhpd7Kd-228" vertex="1">
          <mxGeometry y="180" width="180" height="30" as="geometry" />
        </mxCell>
        <mxCell id="l63NLzGvEjnrkUhpd7Kd-239" value="FK" style="shape=partialRectangle;connectable=0;fillColor=none;top=0;left=0;bottom=0;right=0;editable=1;overflow=hidden;whiteSpace=wrap;html=1;" parent="l63NLzGvEjnrkUhpd7Kd-238" vertex="1">
          <mxGeometry width="30" height="30" as="geometry">
            <mxRectangle width="30" height="30" as="alternateBounds" />
          </mxGeometry>
        </mxCell>
        <mxCell id="l63NLzGvEjnrkUhpd7Kd-240" value="*ID_trenera" style="shape=partialRectangle;connectable=0;fillColor=none;top=0;left=0;bottom=0;right=0;align=left;spacingLeft=6;overflow=hidden;whiteSpace=wrap;html=1;" parent="l63NLzGvEjnrkUhpd7Kd-238" vertex="1">
          <mxGeometry x="30" width="150" height="30" as="geometry">
            <mxRectangle width="150" height="30" as="alternateBounds" />
          </mxGeometry>
        </mxCell>
        <mxCell id="Xnj83cRvs6DByZSezMd7-510" value="pripada" style="rhombus;whiteSpace=wrap;html=1;" vertex="1" parent="1">
          <mxGeometry x="-780" y="170" width="80" height="80" as="geometry" />
        </mxCell>
        <mxCell id="Xnj83cRvs6DByZSezMd7-512" value="" style="endArrow=none;html=1;rounded=0;entryX=0.5;entryY=1;entryDx=0;entryDy=0;exitX=0.5;exitY=0;exitDx=0;exitDy=0;" edge="1" parent="1" source="l63NLzGvEjnrkUhpd7Kd-73" target="Xnj83cRvs6DByZSezMd7-510">
          <mxGeometry width="50" height="50" relative="1" as="geometry">
            <mxPoint x="-720" y="430" as="sourcePoint" />
            <mxPoint x="-670" y="380" as="targetPoint" />
          </mxGeometry>
        </mxCell>
        <mxCell id="Xnj83cRvs6DByZSezMd7-515" style="edgeStyle=orthogonalEdgeStyle;rounded=0;orthogonalLoop=1;jettySize=auto;html=1;exitX=1;exitY=0.5;exitDx=0;exitDy=0;entryX=0.5;entryY=0;entryDx=0;entryDy=0;endArrow=none;endFill=0;dashed=1;" edge="1" parent="1" target="Xnj83cRvs6DByZSezMd7-510">
          <mxGeometry relative="1" as="geometry">
            <mxPoint x="-640" y="-67" as="targetPoint" />
            <mxPoint x="-690" y="-229.00000000000023" as="sourcePoint" />
            <Array as="points">
              <mxPoint x="-680" y="-140" />
              <mxPoint x="-710" y="-140" />
              <mxPoint x="-710" y="-120" />
              <mxPoint x="-740" y="-120" />
            </Array>
          </mxGeometry>
        </mxCell>
        <mxCell id="Xnj83cRvs6DByZSezMd7-516" value="n" style="text;html=1;align=center;verticalAlign=middle;resizable=0;points=[];autosize=1;strokeColor=none;fillColor=none;" vertex="1" parent="1">
          <mxGeometry x="-715" y="-170" width="30" height="30" as="geometry" />
        </mxCell>
        <mxCell id="Xnj83cRvs6DByZSezMd7-530" value="SURADNJA" style="shape=table;startSize=30;container=1;collapsible=1;childLayout=tableLayout;fixedRows=1;rowLines=0;fontStyle=1;align=center;resizeLast=1;html=1;fillColor=#6a00ff;strokeColor=#3700CC;swimlaneFillColor=default;fontColor=#ffffff;" vertex="1" parent="1">
          <mxGeometry x="600" y="-254" width="180" height="297" as="geometry" />
        </mxCell>
        <mxCell id="Xnj83cRvs6DByZSezMd7-531" value="" style="shape=tableRow;horizontal=0;startSize=0;swimlaneHead=0;swimlaneBody=0;fillColor=none;collapsible=0;dropTarget=0;points=[[0,0.5],[1,0.5]];portConstraint=eastwest;top=0;left=0;right=0;bottom=1;strokeColor=default;swimlaneLine=1;swimlaneFillColor=none;strokeWidth=0;" vertex="1" parent="Xnj83cRvs6DByZSezMd7-530">
          <mxGeometry y="30" width="180" height="30" as="geometry" />
        </mxCell>
        <mxCell id="Xnj83cRvs6DByZSezMd7-532" value="PK,FK" style="shape=partialRectangle;connectable=0;fillColor=none;top=0;left=0;bottom=0;right=0;fontStyle=1;overflow=hidden;whiteSpace=wrap;html=1;" vertex="1" parent="Xnj83cRvs6DByZSezMd7-531">
          <mxGeometry width="40" height="30" as="geometry">
            <mxRectangle width="40" height="30" as="alternateBounds" />
          </mxGeometry>
        </mxCell>
        <mxCell id="Xnj83cRvs6DByZSezMd7-533" value="*ID_trenera" style="shape=partialRectangle;connectable=0;fillColor=none;top=0;left=0;bottom=0;right=0;align=left;spacingLeft=6;fontStyle=5;overflow=hidden;whiteSpace=wrap;html=1;" vertex="1" parent="Xnj83cRvs6DByZSezMd7-531">
          <mxGeometry x="40" width="140" height="30" as="geometry">
            <mxRectangle width="140" height="30" as="alternateBounds" />
          </mxGeometry>
        </mxCell>
        <mxCell id="Xnj83cRvs6DByZSezMd7-619" value="" style="shape=tableRow;horizontal=0;startSize=0;swimlaneHead=0;swimlaneBody=0;fillColor=none;collapsible=0;dropTarget=0;points=[[0,0.5],[1,0.5]];portConstraint=eastwest;top=0;left=0;right=0;bottom=1;strokeColor=default;swimlaneLine=1;swimlaneFillColor=none;strokeWidth=0;" vertex="1" parent="Xnj83cRvs6DByZSezMd7-530">
          <mxGeometry y="60" width="180" height="30" as="geometry" />
        </mxCell>
        <mxCell id="Xnj83cRvs6DByZSezMd7-620" value="PK,FK" style="shape=partialRectangle;connectable=0;fillColor=none;top=0;left=0;bottom=0;right=0;fontStyle=1;overflow=hidden;whiteSpace=wrap;html=1;" vertex="1" parent="Xnj83cRvs6DByZSezMd7-619">
          <mxGeometry width="40" height="30" as="geometry">
            <mxRectangle width="40" height="30" as="alternateBounds" />
          </mxGeometry>
        </mxCell>
        <mxCell id="Xnj83cRvs6DByZSezMd7-621" value="*ID_trenera" style="shape=partialRectangle;connectable=0;fillColor=none;top=0;left=0;bottom=0;right=0;align=left;spacingLeft=6;fontStyle=5;overflow=hidden;whiteSpace=wrap;html=1;" vertex="1" parent="Xnj83cRvs6DByZSezMd7-619">
          <mxGeometry x="40" width="140" height="30" as="geometry">
            <mxRectangle width="140" height="30" as="alternateBounds" />
          </mxGeometry>
        </mxCell>
        <mxCell id="Xnj83cRvs6DByZSezMd7-616" value="" style="shape=tableRow;horizontal=0;startSize=0;swimlaneHead=0;swimlaneBody=0;fillColor=none;collapsible=0;dropTarget=0;points=[[0,0.5],[1,0.5]];portConstraint=eastwest;top=0;left=0;right=0;bottom=1;" vertex="1" parent="Xnj83cRvs6DByZSezMd7-530">
          <mxGeometry y="90" width="180" height="30" as="geometry" />
        </mxCell>
        <mxCell id="Xnj83cRvs6DByZSezMd7-617" value="PK,FK" style="shape=partialRectangle;connectable=0;fillColor=none;top=0;left=0;bottom=0;right=0;fontStyle=1;overflow=hidden;whiteSpace=wrap;html=1;" vertex="1" parent="Xnj83cRvs6DByZSezMd7-616">
          <mxGeometry width="40" height="30" as="geometry">
            <mxRectangle width="40" height="30" as="alternateBounds" />
          </mxGeometry>
        </mxCell>
        <mxCell id="Xnj83cRvs6DByZSezMd7-618" value="*ID_klijenta" style="shape=partialRectangle;connectable=0;fillColor=none;top=0;left=0;bottom=0;right=0;align=left;spacingLeft=6;fontStyle=5;overflow=hidden;whiteSpace=wrap;html=1;" vertex="1" parent="Xnj83cRvs6DByZSezMd7-616">
          <mxGeometry x="40" width="140" height="30" as="geometry">
            <mxRectangle width="140" height="30" as="alternateBounds" />
          </mxGeometry>
        </mxCell>
        <mxCell id="Xnj83cRvs6DByZSezMd7-540" value="" style="shape=tableRow;horizontal=0;startSize=0;swimlaneHead=0;swimlaneBody=0;fillColor=none;collapsible=0;dropTarget=0;points=[[0,0.5],[1,0.5]];portConstraint=eastwest;top=0;left=0;right=0;bottom=0;" vertex="1" parent="Xnj83cRvs6DByZSezMd7-530">
          <mxGeometry y="120" width="180" height="30" as="geometry" />
        </mxCell>
        <mxCell id="Xnj83cRvs6DByZSezMd7-541" value="" style="shape=partialRectangle;connectable=0;fillColor=none;top=0;left=0;bottom=0;right=0;editable=1;overflow=hidden;whiteSpace=wrap;html=1;" vertex="1" parent="Xnj83cRvs6DByZSezMd7-540">
          <mxGeometry width="40" height="30" as="geometry">
            <mxRectangle width="40" height="30" as="alternateBounds" />
          </mxGeometry>
        </mxCell>
        <mxCell id="Xnj83cRvs6DByZSezMd7-542" value="*datum_pocetka" style="shape=partialRectangle;connectable=0;fillColor=none;top=0;left=0;bottom=0;right=0;align=left;spacingLeft=6;overflow=hidden;whiteSpace=wrap;html=1;" vertex="1" parent="Xnj83cRvs6DByZSezMd7-540">
          <mxGeometry x="40" width="140" height="30" as="geometry">
            <mxRectangle width="140" height="30" as="alternateBounds" />
          </mxGeometry>
        </mxCell>
        <mxCell id="Xnj83cRvs6DByZSezMd7-543" value="" style="shape=tableRow;horizontal=0;startSize=0;swimlaneHead=0;swimlaneBody=0;fillColor=none;collapsible=0;dropTarget=0;points=[[0,0.5],[1,0.5]];portConstraint=eastwest;top=0;left=0;right=0;bottom=0;" vertex="1" parent="Xnj83cRvs6DByZSezMd7-530">
          <mxGeometry y="150" width="180" height="30" as="geometry" />
        </mxCell>
        <mxCell id="Xnj83cRvs6DByZSezMd7-544" value="" style="shape=partialRectangle;connectable=0;fillColor=none;top=0;left=0;bottom=0;right=0;editable=1;overflow=hidden;whiteSpace=wrap;html=1;" vertex="1" parent="Xnj83cRvs6DByZSezMd7-543">
          <mxGeometry width="40" height="30" as="geometry">
            <mxRectangle width="40" height="30" as="alternateBounds" />
          </mxGeometry>
        </mxCell>
        <mxCell id="Xnj83cRvs6DByZSezMd7-545" value="° datum_zavrsetka" style="shape=partialRectangle;connectable=0;fillColor=none;top=0;left=0;bottom=0;right=0;align=left;spacingLeft=6;overflow=hidden;whiteSpace=wrap;html=1;" vertex="1" parent="Xnj83cRvs6DByZSezMd7-543">
          <mxGeometry x="40" width="140" height="30" as="geometry">
            <mxRectangle width="140" height="30" as="alternateBounds" />
          </mxGeometry>
        </mxCell>
        <mxCell id="Xnj83cRvs6DByZSezMd7-546" value="" style="shape=tableRow;horizontal=0;startSize=0;swimlaneHead=0;swimlaneBody=0;fillColor=none;collapsible=0;dropTarget=0;points=[[0,0.5],[1,0.5]];portConstraint=eastwest;top=0;left=0;right=0;bottom=0;" vertex="1" parent="Xnj83cRvs6DByZSezMd7-530">
          <mxGeometry y="180" width="180" height="29" as="geometry" />
        </mxCell>
        <mxCell id="Xnj83cRvs6DByZSezMd7-547" value="" style="shape=partialRectangle;connectable=0;fillColor=none;top=0;left=0;bottom=0;right=0;editable=1;overflow=hidden;whiteSpace=wrap;html=1;" vertex="1" parent="Xnj83cRvs6DByZSezMd7-546">
          <mxGeometry width="40" height="29" as="geometry">
            <mxRectangle width="40" height="29" as="alternateBounds" />
          </mxGeometry>
        </mxCell>
        <mxCell id="Xnj83cRvs6DByZSezMd7-548" value="*vrsta_suradnje" style="shape=partialRectangle;connectable=0;fillColor=none;top=0;left=0;bottom=0;right=0;align=left;spacingLeft=6;overflow=hidden;whiteSpace=wrap;html=1;" vertex="1" parent="Xnj83cRvs6DByZSezMd7-546">
          <mxGeometry x="40" width="140" height="29" as="geometry">
            <mxRectangle width="140" height="29" as="alternateBounds" />
          </mxGeometry>
        </mxCell>
        <mxCell id="Xnj83cRvs6DByZSezMd7-549" value="" style="shape=tableRow;horizontal=0;startSize=0;swimlaneHead=0;swimlaneBody=0;fillColor=none;collapsible=0;dropTarget=0;points=[[0,0.5],[1,0.5]];portConstraint=eastwest;top=0;left=0;right=0;bottom=0;" vertex="1" parent="Xnj83cRvs6DByZSezMd7-530">
          <mxGeometry y="209" width="180" height="30" as="geometry" />
        </mxCell>
        <mxCell id="Xnj83cRvs6DByZSezMd7-550" value="" style="shape=partialRectangle;connectable=0;fillColor=none;top=0;left=0;bottom=0;right=0;editable=1;overflow=hidden;whiteSpace=wrap;html=1;" vertex="1" parent="Xnj83cRvs6DByZSezMd7-549">
          <mxGeometry width="40" height="30" as="geometry">
            <mxRectangle width="40" height="30" as="alternateBounds" />
          </mxGeometry>
        </mxCell>
        <mxCell id="Xnj83cRvs6DByZSezMd7-551" value="*status" style="shape=partialRectangle;connectable=0;fillColor=none;top=0;left=0;bottom=0;right=0;align=left;spacingLeft=6;overflow=hidden;whiteSpace=wrap;html=1;" vertex="1" parent="Xnj83cRvs6DByZSezMd7-549">
          <mxGeometry x="40" width="140" height="30" as="geometry">
            <mxRectangle width="140" height="30" as="alternateBounds" />
          </mxGeometry>
        </mxCell>
        <mxCell id="Xnj83cRvs6DByZSezMd7-753" value="" style="shape=tableRow;horizontal=0;startSize=0;swimlaneHead=0;swimlaneBody=0;fillColor=none;collapsible=0;dropTarget=0;points=[[0,0.5],[1,0.5]];portConstraint=eastwest;top=0;left=0;right=0;bottom=0;" vertex="1" parent="Xnj83cRvs6DByZSezMd7-530">
          <mxGeometry y="239" width="180" height="29" as="geometry" />
        </mxCell>
        <mxCell id="Xnj83cRvs6DByZSezMd7-754" value="" style="shape=partialRectangle;connectable=0;fillColor=none;top=0;left=0;bottom=0;right=0;editable=1;overflow=hidden;whiteSpace=wrap;html=1;" vertex="1" parent="Xnj83cRvs6DByZSezMd7-753">
          <mxGeometry width="40" height="29" as="geometry">
            <mxRectangle width="40" height="29" as="alternateBounds" />
          </mxGeometry>
        </mxCell>
        <mxCell id="Xnj83cRvs6DByZSezMd7-755" value="° dodatne_biljeske" style="shape=partialRectangle;connectable=0;fillColor=none;top=0;left=0;bottom=0;right=0;align=left;spacingLeft=6;overflow=hidden;whiteSpace=wrap;html=1;" vertex="1" parent="Xnj83cRvs6DByZSezMd7-753">
          <mxGeometry x="40" width="140" height="29" as="geometry">
            <mxRectangle width="140" height="29" as="alternateBounds" />
          </mxGeometry>
        </mxCell>
        <mxCell id="Xnj83cRvs6DByZSezMd7-761" value="" style="shape=tableRow;horizontal=0;startSize=0;swimlaneHead=0;swimlaneBody=0;fillColor=none;collapsible=0;dropTarget=0;points=[[0,0.5],[1,0.5]];portConstraint=eastwest;top=0;left=0;right=0;bottom=0;" vertex="1" parent="Xnj83cRvs6DByZSezMd7-530">
          <mxGeometry y="268" width="180" height="29" as="geometry" />
        </mxCell>
        <mxCell id="Xnj83cRvs6DByZSezMd7-762" value="" style="shape=partialRectangle;connectable=0;fillColor=none;top=0;left=0;bottom=0;right=0;editable=1;overflow=hidden;whiteSpace=wrap;html=1;" vertex="1" parent="Xnj83cRvs6DByZSezMd7-761">
          <mxGeometry width="40" height="29" as="geometry">
            <mxRectangle width="40" height="29" as="alternateBounds" />
          </mxGeometry>
        </mxCell>
        <mxCell id="Xnj83cRvs6DByZSezMd7-763" value="° napredak" style="shape=partialRectangle;connectable=0;fillColor=none;top=0;left=0;bottom=0;right=0;align=left;spacingLeft=6;overflow=hidden;whiteSpace=wrap;html=1;" vertex="1" parent="Xnj83cRvs6DByZSezMd7-761">
          <mxGeometry x="40" width="140" height="29" as="geometry">
            <mxRectangle width="140" height="29" as="alternateBounds" />
          </mxGeometry>
        </mxCell>
        <mxCell id="Xnj83cRvs6DByZSezMd7-552" value="PROGRAM_TRENING" style="shape=table;startSize=30;container=1;collapsible=1;childLayout=tableLayout;fixedRows=1;rowLines=0;fontStyle=1;align=center;resizeLast=1;html=1;fillColor=#6a00ff;strokeColor=#3700CC;swimlaneFillColor=default;fontColor=#ffffff;" vertex="1" parent="1">
          <mxGeometry x="1330" y="313" width="180" height="90" as="geometry" />
        </mxCell>
        <mxCell id="Xnj83cRvs6DByZSezMd7-553" value="" style="shape=tableRow;horizontal=0;startSize=0;swimlaneHead=0;swimlaneBody=0;fillColor=none;collapsible=0;dropTarget=0;points=[[0,0.5],[1,0.5]];portConstraint=eastwest;top=0;left=0;right=0;bottom=1;strokeColor=inherit;strokeWidth=0;" vertex="1" parent="Xnj83cRvs6DByZSezMd7-552">
          <mxGeometry y="30" width="180" height="30" as="geometry" />
        </mxCell>
        <mxCell id="Xnj83cRvs6DByZSezMd7-554" value="PK,FK" style="shape=partialRectangle;connectable=0;fillColor=none;top=0;left=0;bottom=0;right=0;fontStyle=1;overflow=hidden;whiteSpace=wrap;html=1;" vertex="1" parent="Xnj83cRvs6DByZSezMd7-553">
          <mxGeometry width="50.00000000000023" height="30" as="geometry">
            <mxRectangle width="50.00000000000023" height="30" as="alternateBounds" />
          </mxGeometry>
        </mxCell>
        <mxCell id="Xnj83cRvs6DByZSezMd7-555" value="*ID_programa" style="shape=partialRectangle;connectable=0;fillColor=none;top=0;left=0;bottom=0;right=0;align=left;spacingLeft=6;fontStyle=5;overflow=hidden;whiteSpace=wrap;html=1;" vertex="1" parent="Xnj83cRvs6DByZSezMd7-553">
          <mxGeometry x="50.00000000000023" width="129.99999999999977" height="30" as="geometry">
            <mxRectangle width="129.99999999999977" height="30" as="alternateBounds" />
          </mxGeometry>
        </mxCell>
        <mxCell id="Xnj83cRvs6DByZSezMd7-556" value="" style="shape=tableRow;horizontal=0;startSize=0;swimlaneHead=0;swimlaneBody=0;fillColor=none;collapsible=0;dropTarget=0;points=[[0,0.5],[1,0.5]];portConstraint=eastwest;top=0;left=0;right=0;bottom=1;" vertex="1" parent="Xnj83cRvs6DByZSezMd7-552">
          <mxGeometry y="60" width="180" height="30" as="geometry" />
        </mxCell>
        <mxCell id="Xnj83cRvs6DByZSezMd7-557" value="PK,FK" style="shape=partialRectangle;connectable=0;fillColor=none;top=0;left=0;bottom=0;right=0;fontStyle=1;overflow=hidden;whiteSpace=wrap;html=1;" vertex="1" parent="Xnj83cRvs6DByZSezMd7-556">
          <mxGeometry width="50.00000000000023" height="30" as="geometry">
            <mxRectangle width="50.00000000000023" height="30" as="alternateBounds" />
          </mxGeometry>
        </mxCell>
        <mxCell id="Xnj83cRvs6DByZSezMd7-558" value="*ID_treninga" style="shape=partialRectangle;connectable=0;fillColor=none;top=0;left=0;bottom=0;right=0;align=left;spacingLeft=6;fontStyle=5;overflow=hidden;whiteSpace=wrap;html=1;" vertex="1" parent="Xnj83cRvs6DByZSezMd7-556">
          <mxGeometry x="50.00000000000023" width="129.99999999999977" height="30" as="geometry">
            <mxRectangle width="129.99999999999977" height="30" as="alternateBounds" />
          </mxGeometry>
        </mxCell>
        <mxCell id="Xnj83cRvs6DByZSezMd7-559" value="" style="endArrow=none;html=1;rounded=0;entryX=0;entryY=0.5;entryDx=0;entryDy=0;exitX=1;exitY=0.5;exitDx=0;exitDy=0;" edge="1" parent="1" source="l63NLzGvEjnrkUhpd7Kd-143" target="fb7B25jU6JOEQ9ZOqQDt-22">
          <mxGeometry width="50" height="50" relative="1" as="geometry">
            <mxPoint x="-880" y="630" as="sourcePoint" />
            <mxPoint x="-830" y="580" as="targetPoint" />
          </mxGeometry>
        </mxCell>
        <mxCell id="Xnj83cRvs6DByZSezMd7-561" value="" style="endArrow=none;html=1;rounded=0;entryX=1;entryY=0.5;entryDx=0;entryDy=0;exitX=0.5;exitY=0;exitDx=0;exitDy=0;" edge="1" parent="1" source="fb7B25jU6JOEQ9ZOqQDt-22" target="l63NLzGvEjnrkUhpd7Kd-149">
          <mxGeometry width="50" height="50" relative="1" as="geometry">
            <mxPoint x="-880" y="630" as="sourcePoint" />
            <mxPoint x="-830" y="580" as="targetPoint" />
          </mxGeometry>
        </mxCell>
        <mxCell id="Xnj83cRvs6DByZSezMd7-562" value="TRENING" style="shape=table;startSize=30;container=1;collapsible=1;childLayout=tableLayout;fixedRows=1;rowLines=0;fontStyle=1;align=center;resizeLast=1;html=1;fillColor=#6a00ff;strokeColor=#3700CC;swimlaneFillColor=default;fontColor=#ffffff;" vertex="1" parent="1">
          <mxGeometry x="1080" y="100" width="180" height="205" as="geometry" />
        </mxCell>
        <mxCell id="Xnj83cRvs6DByZSezMd7-563" value="" style="shape=tableRow;horizontal=0;startSize=0;swimlaneHead=0;swimlaneBody=0;fillColor=none;collapsible=0;dropTarget=0;points=[[0,0.5],[1,0.5]];portConstraint=eastwest;top=0;left=0;right=0;bottom=1;" vertex="1" parent="Xnj83cRvs6DByZSezMd7-562">
          <mxGeometry y="30" width="180" height="30" as="geometry" />
        </mxCell>
        <mxCell id="Xnj83cRvs6DByZSezMd7-564" value="PK" style="shape=partialRectangle;connectable=0;fillColor=none;top=0;left=0;bottom=0;right=0;fontStyle=1;overflow=hidden;whiteSpace=wrap;html=1;" vertex="1" parent="Xnj83cRvs6DByZSezMd7-563">
          <mxGeometry width="30" height="30" as="geometry">
            <mxRectangle width="30" height="30" as="alternateBounds" />
          </mxGeometry>
        </mxCell>
        <mxCell id="Xnj83cRvs6DByZSezMd7-565" value="*ID_treninga" style="shape=partialRectangle;connectable=0;fillColor=none;top=0;left=0;bottom=0;right=0;align=left;spacingLeft=6;fontStyle=5;overflow=hidden;whiteSpace=wrap;html=1;" vertex="1" parent="Xnj83cRvs6DByZSezMd7-563">
          <mxGeometry x="30" width="150" height="30" as="geometry">
            <mxRectangle width="150" height="30" as="alternateBounds" />
          </mxGeometry>
        </mxCell>
        <mxCell id="Xnj83cRvs6DByZSezMd7-566" value="" style="shape=tableRow;horizontal=0;startSize=0;swimlaneHead=0;swimlaneBody=0;fillColor=none;collapsible=0;dropTarget=0;points=[[0,0.5],[1,0.5]];portConstraint=eastwest;top=0;left=0;right=0;bottom=0;" vertex="1" parent="Xnj83cRvs6DByZSezMd7-562">
          <mxGeometry y="60" width="180" height="30" as="geometry" />
        </mxCell>
        <mxCell id="Xnj83cRvs6DByZSezMd7-567" value="" style="shape=partialRectangle;connectable=0;fillColor=none;top=0;left=0;bottom=0;right=0;editable=1;overflow=hidden;whiteSpace=wrap;html=1;" vertex="1" parent="Xnj83cRvs6DByZSezMd7-566">
          <mxGeometry width="30" height="30" as="geometry">
            <mxRectangle width="30" height="30" as="alternateBounds" />
          </mxGeometry>
        </mxCell>
        <mxCell id="Xnj83cRvs6DByZSezMd7-568" value="* naziv" style="shape=partialRectangle;connectable=0;fillColor=none;top=0;left=0;bottom=0;right=0;align=left;spacingLeft=6;overflow=hidden;whiteSpace=wrap;html=1;" vertex="1" parent="Xnj83cRvs6DByZSezMd7-566">
          <mxGeometry x="30" width="150" height="30" as="geometry">
            <mxRectangle width="150" height="30" as="alternateBounds" />
          </mxGeometry>
        </mxCell>
        <mxCell id="Xnj83cRvs6DByZSezMd7-572" value="" style="shape=tableRow;horizontal=0;startSize=0;swimlaneHead=0;swimlaneBody=0;fillColor=none;collapsible=0;dropTarget=0;points=[[0,0.5],[1,0.5]];portConstraint=eastwest;top=0;left=0;right=0;bottom=0;" vertex="1" parent="Xnj83cRvs6DByZSezMd7-562">
          <mxGeometry y="90" width="180" height="30" as="geometry" />
        </mxCell>
        <mxCell id="Xnj83cRvs6DByZSezMd7-573" value="" style="shape=partialRectangle;connectable=0;fillColor=none;top=0;left=0;bottom=0;right=0;editable=1;overflow=hidden;whiteSpace=wrap;html=1;" vertex="1" parent="Xnj83cRvs6DByZSezMd7-572">
          <mxGeometry width="30" height="30" as="geometry">
            <mxRectangle width="30" height="30" as="alternateBounds" />
          </mxGeometry>
        </mxCell>
        <mxCell id="Xnj83cRvs6DByZSezMd7-574" value="* opis" style="shape=partialRectangle;connectable=0;fillColor=none;top=0;left=0;bottom=0;right=0;align=left;spacingLeft=6;overflow=hidden;whiteSpace=wrap;html=1;" vertex="1" parent="Xnj83cRvs6DByZSezMd7-572">
          <mxGeometry x="30" width="150" height="30" as="geometry">
            <mxRectangle width="150" height="30" as="alternateBounds" />
          </mxGeometry>
        </mxCell>
        <mxCell id="Xnj83cRvs6DByZSezMd7-575" value="" style="shape=tableRow;horizontal=0;startSize=0;swimlaneHead=0;swimlaneBody=0;fillColor=none;collapsible=0;dropTarget=0;points=[[0,0.5],[1,0.5]];portConstraint=eastwest;top=0;left=0;right=0;bottom=0;" vertex="1" parent="Xnj83cRvs6DByZSezMd7-562">
          <mxGeometry y="120" width="180" height="30" as="geometry" />
        </mxCell>
        <mxCell id="Xnj83cRvs6DByZSezMd7-576" value="" style="shape=partialRectangle;connectable=0;fillColor=none;top=0;left=0;bottom=0;right=0;editable=1;overflow=hidden;whiteSpace=wrap;html=1;" vertex="1" parent="Xnj83cRvs6DByZSezMd7-575">
          <mxGeometry width="30" height="30" as="geometry">
            <mxRectangle width="30" height="30" as="alternateBounds" />
          </mxGeometry>
        </mxCell>
        <mxCell id="Xnj83cRvs6DByZSezMd7-577" value="*nivo_tezine" style="shape=partialRectangle;connectable=0;fillColor=none;top=0;left=0;bottom=0;right=0;align=left;spacingLeft=6;overflow=hidden;whiteSpace=wrap;html=1;" vertex="1" parent="Xnj83cRvs6DByZSezMd7-575">
          <mxGeometry x="30" width="150" height="30" as="geometry">
            <mxRectangle width="150" height="30" as="alternateBounds" />
          </mxGeometry>
        </mxCell>
        <mxCell id="Xnj83cRvs6DByZSezMd7-578" value="" style="shape=tableRow;horizontal=0;startSize=0;swimlaneHead=0;swimlaneBody=0;fillColor=none;collapsible=0;dropTarget=0;points=[[0,0.5],[1,0.5]];portConstraint=eastwest;top=0;left=0;right=0;bottom=0;" vertex="1" parent="Xnj83cRvs6DByZSezMd7-562">
          <mxGeometry y="150" width="180" height="25" as="geometry" />
        </mxCell>
        <mxCell id="Xnj83cRvs6DByZSezMd7-579" value="" style="shape=partialRectangle;connectable=0;fillColor=none;top=0;left=0;bottom=0;right=0;editable=1;overflow=hidden;whiteSpace=wrap;html=1;" vertex="1" parent="Xnj83cRvs6DByZSezMd7-578">
          <mxGeometry width="30" height="25" as="geometry">
            <mxRectangle width="30" height="25" as="alternateBounds" />
          </mxGeometry>
        </mxCell>
        <mxCell id="Xnj83cRvs6DByZSezMd7-580" value="*trajanje" style="shape=partialRectangle;connectable=0;fillColor=none;top=0;left=0;bottom=0;right=0;align=left;spacingLeft=6;overflow=hidden;whiteSpace=wrap;html=1;" vertex="1" parent="Xnj83cRvs6DByZSezMd7-578">
          <mxGeometry x="30" width="150" height="25" as="geometry">
            <mxRectangle width="150" height="25" as="alternateBounds" />
          </mxGeometry>
        </mxCell>
        <mxCell id="Xnj83cRvs6DByZSezMd7-603" value="" style="shape=tableRow;horizontal=0;startSize=0;swimlaneHead=0;swimlaneBody=0;fillColor=none;collapsible=0;dropTarget=0;points=[[0,0.5],[1,0.5]];portConstraint=eastwest;top=0;left=0;right=0;bottom=0;" vertex="1" parent="Xnj83cRvs6DByZSezMd7-562">
          <mxGeometry y="175" width="180" height="30" as="geometry" />
        </mxCell>
        <mxCell id="Xnj83cRvs6DByZSezMd7-604" value="" style="shape=partialRectangle;connectable=0;fillColor=none;top=0;left=0;bottom=0;right=0;editable=1;overflow=hidden;whiteSpace=wrap;html=1;" vertex="1" parent="Xnj83cRvs6DByZSezMd7-603">
          <mxGeometry width="30" height="30" as="geometry">
            <mxRectangle width="30" height="30" as="alternateBounds" />
          </mxGeometry>
        </mxCell>
        <mxCell id="Xnj83cRvs6DByZSezMd7-605" value="° potrebni_rekviziti" style="shape=partialRectangle;connectable=0;fillColor=none;top=0;left=0;bottom=0;right=0;align=left;spacingLeft=6;overflow=hidden;whiteSpace=wrap;html=1;" vertex="1" parent="Xnj83cRvs6DByZSezMd7-603">
          <mxGeometry x="30" width="150" height="30" as="geometry">
            <mxRectangle width="150" height="30" as="alternateBounds" />
          </mxGeometry>
        </mxCell>
        <mxCell id="Xnj83cRvs6DByZSezMd7-723" value="OSOBNI_NAPREDAK" style="shape=table;startSize=30;container=1;collapsible=1;childLayout=tableLayout;fixedRows=1;rowLines=0;fontStyle=1;align=center;resizeLast=1;html=1;fillColor=#6a00ff;strokeColor=#3700CC;swimlaneFillColor=default;fontColor=#ffffff;" vertex="1" parent="1">
          <mxGeometry x="1040" y="-254" width="220" height="299" as="geometry" />
        </mxCell>
        <mxCell id="Xnj83cRvs6DByZSezMd7-724" value="" style="shape=tableRow;horizontal=0;startSize=0;swimlaneHead=0;swimlaneBody=0;fillColor=none;collapsible=0;dropTarget=0;points=[[0,0.5],[1,0.5]];portConstraint=eastwest;top=0;left=0;right=0;bottom=1;strokeColor=default;swimlaneLine=1;swimlaneFillColor=none;strokeWidth=0;" vertex="1" parent="Xnj83cRvs6DByZSezMd7-723">
          <mxGeometry y="30" width="220" height="30" as="geometry" />
        </mxCell>
        <mxCell id="Xnj83cRvs6DByZSezMd7-725" value="PK,FK" style="shape=partialRectangle;connectable=0;fillColor=none;top=0;left=0;bottom=0;right=0;fontStyle=1;overflow=hidden;whiteSpace=wrap;html=1;" vertex="1" parent="Xnj83cRvs6DByZSezMd7-724">
          <mxGeometry width="40" height="30" as="geometry">
            <mxRectangle width="40" height="30" as="alternateBounds" />
          </mxGeometry>
        </mxCell>
        <mxCell id="Xnj83cRvs6DByZSezMd7-726" value="*ID_klijenta" style="shape=partialRectangle;connectable=0;fillColor=none;top=0;left=0;bottom=0;right=0;align=left;spacingLeft=6;fontStyle=5;overflow=hidden;whiteSpace=wrap;html=1;" vertex="1" parent="Xnj83cRvs6DByZSezMd7-724">
          <mxGeometry x="40" width="180" height="30" as="geometry">
            <mxRectangle width="180" height="30" as="alternateBounds" />
          </mxGeometry>
        </mxCell>
        <mxCell id="Xnj83cRvs6DByZSezMd7-727" value="" style="shape=tableRow;horizontal=0;startSize=0;swimlaneHead=0;swimlaneBody=0;fillColor=none;collapsible=0;dropTarget=0;points=[[0,0.5],[1,0.5]];portConstraint=eastwest;top=0;left=0;right=0;bottom=1;" vertex="1" parent="Xnj83cRvs6DByZSezMd7-723">
          <mxGeometry y="60" width="220" height="30" as="geometry" />
        </mxCell>
        <mxCell id="Xnj83cRvs6DByZSezMd7-728" value="PK,FK" style="shape=partialRectangle;connectable=0;fillColor=none;top=0;left=0;bottom=0;right=0;fontStyle=1;overflow=hidden;whiteSpace=wrap;html=1;" vertex="1" parent="Xnj83cRvs6DByZSezMd7-727">
          <mxGeometry width="40" height="30" as="geometry">
            <mxRectangle width="40" height="30" as="alternateBounds" />
          </mxGeometry>
        </mxCell>
        <mxCell id="Xnj83cRvs6DByZSezMd7-729" value="*ID_odradenog_programa" style="shape=partialRectangle;connectable=0;fillColor=none;top=0;left=0;bottom=0;right=0;align=left;spacingLeft=6;fontStyle=5;overflow=hidden;whiteSpace=wrap;html=1;" vertex="1" parent="Xnj83cRvs6DByZSezMd7-727">
          <mxGeometry x="40" width="180" height="30" as="geometry">
            <mxRectangle width="180" height="30" as="alternateBounds" />
          </mxGeometry>
        </mxCell>
        <mxCell id="Xnj83cRvs6DByZSezMd7-730" value="" style="shape=tableRow;horizontal=0;startSize=0;swimlaneHead=0;swimlaneBody=0;fillColor=none;collapsible=0;dropTarget=0;points=[[0,0.5],[1,0.5]];portConstraint=eastwest;top=0;left=0;right=0;bottom=1;" vertex="1" parent="Xnj83cRvs6DByZSezMd7-723">
          <mxGeometry y="90" width="220" height="30" as="geometry" />
        </mxCell>
        <mxCell id="Xnj83cRvs6DByZSezMd7-731" value="PK" style="shape=partialRectangle;connectable=0;fillColor=none;top=0;left=0;bottom=0;right=0;fontStyle=1;overflow=hidden;whiteSpace=wrap;html=1;" vertex="1" parent="Xnj83cRvs6DByZSezMd7-730">
          <mxGeometry width="40" height="30" as="geometry">
            <mxRectangle width="40" height="30" as="alternateBounds" />
          </mxGeometry>
        </mxCell>
        <mxCell id="Xnj83cRvs6DByZSezMd7-732" value="*ID_napretka" style="shape=partialRectangle;connectable=0;fillColor=none;top=0;left=0;bottom=0;right=0;align=left;spacingLeft=6;fontStyle=5;overflow=hidden;whiteSpace=wrap;html=1;" vertex="1" parent="Xnj83cRvs6DByZSezMd7-730">
          <mxGeometry x="40" width="180" height="30" as="geometry">
            <mxRectangle width="180" height="30" as="alternateBounds" />
          </mxGeometry>
        </mxCell>
        <mxCell id="Xnj83cRvs6DByZSezMd7-733" value="" style="shape=tableRow;horizontal=0;startSize=0;swimlaneHead=0;swimlaneBody=0;fillColor=none;collapsible=0;dropTarget=0;points=[[0,0.5],[1,0.5]];portConstraint=eastwest;top=0;left=0;right=0;bottom=0;" vertex="1" parent="Xnj83cRvs6DByZSezMd7-723">
          <mxGeometry y="120" width="220" height="30" as="geometry" />
        </mxCell>
        <mxCell id="Xnj83cRvs6DByZSezMd7-734" value="" style="shape=partialRectangle;connectable=0;fillColor=none;top=0;left=0;bottom=0;right=0;editable=1;overflow=hidden;whiteSpace=wrap;html=1;" vertex="1" parent="Xnj83cRvs6DByZSezMd7-733">
          <mxGeometry width="40" height="30" as="geometry">
            <mxRectangle width="40" height="30" as="alternateBounds" />
          </mxGeometry>
        </mxCell>
        <mxCell id="Xnj83cRvs6DByZSezMd7-735" value="*&lt;span style=&quot;text-align: center;&quot;&gt;datum_mjerenja&lt;/span&gt;" style="shape=partialRectangle;connectable=0;fillColor=none;top=0;left=0;bottom=0;right=0;align=left;spacingLeft=6;overflow=hidden;whiteSpace=wrap;html=1;" vertex="1" parent="Xnj83cRvs6DByZSezMd7-733">
          <mxGeometry x="40" width="180" height="30" as="geometry">
            <mxRectangle width="180" height="30" as="alternateBounds" />
          </mxGeometry>
        </mxCell>
        <mxCell id="Xnj83cRvs6DByZSezMd7-736" value="" style="shape=tableRow;horizontal=0;startSize=0;swimlaneHead=0;swimlaneBody=0;fillColor=none;collapsible=0;dropTarget=0;points=[[0,0.5],[1,0.5]];portConstraint=eastwest;top=0;left=0;right=0;bottom=0;" vertex="1" parent="Xnj83cRvs6DByZSezMd7-723">
          <mxGeometry y="150" width="220" height="30" as="geometry" />
        </mxCell>
        <mxCell id="Xnj83cRvs6DByZSezMd7-737" value="" style="shape=partialRectangle;connectable=0;fillColor=none;top=0;left=0;bottom=0;right=0;editable=1;overflow=hidden;whiteSpace=wrap;html=1;" vertex="1" parent="Xnj83cRvs6DByZSezMd7-736">
          <mxGeometry width="40" height="30" as="geometry">
            <mxRectangle width="40" height="30" as="alternateBounds" />
          </mxGeometry>
        </mxCell>
        <mxCell id="Xnj83cRvs6DByZSezMd7-738" value="*&lt;span style=&quot;text-align: center;&quot;&gt;težina&lt;/span&gt;" style="shape=partialRectangle;connectable=0;fillColor=none;top=0;left=0;bottom=0;right=0;align=left;spacingLeft=6;overflow=hidden;whiteSpace=wrap;html=1;" vertex="1" parent="Xnj83cRvs6DByZSezMd7-736">
          <mxGeometry x="40" width="180" height="30" as="geometry">
            <mxRectangle width="180" height="30" as="alternateBounds" />
          </mxGeometry>
        </mxCell>
        <mxCell id="Xnj83cRvs6DByZSezMd7-739" value="" style="shape=tableRow;horizontal=0;startSize=0;swimlaneHead=0;swimlaneBody=0;fillColor=none;collapsible=0;dropTarget=0;points=[[0,0.5],[1,0.5]];portConstraint=eastwest;top=0;left=0;right=0;bottom=0;" vertex="1" parent="Xnj83cRvs6DByZSezMd7-723">
          <mxGeometry y="180" width="220" height="29" as="geometry" />
        </mxCell>
        <mxCell id="Xnj83cRvs6DByZSezMd7-740" value="" style="shape=partialRectangle;connectable=0;fillColor=none;top=0;left=0;bottom=0;right=0;editable=1;overflow=hidden;whiteSpace=wrap;html=1;" vertex="1" parent="Xnj83cRvs6DByZSezMd7-739">
          <mxGeometry width="40" height="29" as="geometry">
            <mxRectangle width="40" height="29" as="alternateBounds" />
          </mxGeometry>
        </mxCell>
        <mxCell id="Xnj83cRvs6DByZSezMd7-741" value="*&lt;span style=&quot;text-align: center;&quot;&gt;postotak_masti&lt;/span&gt;" style="shape=partialRectangle;connectable=0;fillColor=none;top=0;left=0;bottom=0;right=0;align=left;spacingLeft=6;overflow=hidden;whiteSpace=wrap;html=1;" vertex="1" parent="Xnj83cRvs6DByZSezMd7-739">
          <mxGeometry x="40" width="180" height="29" as="geometry">
            <mxRectangle width="180" height="29" as="alternateBounds" />
          </mxGeometry>
        </mxCell>
        <mxCell id="Xnj83cRvs6DByZSezMd7-742" value="" style="shape=tableRow;horizontal=0;startSize=0;swimlaneHead=0;swimlaneBody=0;fillColor=none;collapsible=0;dropTarget=0;points=[[0,0.5],[1,0.5]];portConstraint=eastwest;top=0;left=0;right=0;bottom=0;" vertex="1" parent="Xnj83cRvs6DByZSezMd7-723">
          <mxGeometry y="209" width="220" height="30" as="geometry" />
        </mxCell>
        <mxCell id="Xnj83cRvs6DByZSezMd7-743" value="" style="shape=partialRectangle;connectable=0;fillColor=none;top=0;left=0;bottom=0;right=0;editable=1;overflow=hidden;whiteSpace=wrap;html=1;" vertex="1" parent="Xnj83cRvs6DByZSezMd7-742">
          <mxGeometry width="40" height="30" as="geometry">
            <mxRectangle width="40" height="30" as="alternateBounds" />
          </mxGeometry>
        </mxCell>
        <mxCell id="Xnj83cRvs6DByZSezMd7-744" value="*&lt;span style=&quot;text-align: center;&quot;&gt;obujam_struka&lt;/span&gt;" style="shape=partialRectangle;connectable=0;fillColor=none;top=0;left=0;bottom=0;right=0;align=left;spacingLeft=6;overflow=hidden;whiteSpace=wrap;html=1;" vertex="1" parent="Xnj83cRvs6DByZSezMd7-742">
          <mxGeometry x="40" width="180" height="30" as="geometry">
            <mxRectangle width="180" height="30" as="alternateBounds" />
          </mxGeometry>
        </mxCell>
        <mxCell id="Xnj83cRvs6DByZSezMd7-745" value="" style="shape=tableRow;horizontal=0;startSize=0;swimlaneHead=0;swimlaneBody=0;fillColor=none;collapsible=0;dropTarget=0;points=[[0,0.5],[1,0.5]];portConstraint=eastwest;top=0;left=0;right=0;bottom=0;" vertex="1" parent="Xnj83cRvs6DByZSezMd7-723">
          <mxGeometry y="239" width="220" height="30" as="geometry" />
        </mxCell>
        <mxCell id="Xnj83cRvs6DByZSezMd7-746" value="" style="shape=partialRectangle;connectable=0;fillColor=none;top=0;left=0;bottom=0;right=0;editable=1;overflow=hidden;whiteSpace=wrap;html=1;" vertex="1" parent="Xnj83cRvs6DByZSezMd7-745">
          <mxGeometry width="40" height="30" as="geometry">
            <mxRectangle width="40" height="30" as="alternateBounds" />
          </mxGeometry>
        </mxCell>
        <mxCell id="Xnj83cRvs6DByZSezMd7-747" value="*&lt;span style=&quot;text-align: center;&quot;&gt;obujam_prsa&lt;/span&gt;" style="shape=partialRectangle;connectable=0;fillColor=none;top=0;left=0;bottom=0;right=0;align=left;spacingLeft=6;overflow=hidden;whiteSpace=wrap;html=1;" vertex="1" parent="Xnj83cRvs6DByZSezMd7-745">
          <mxGeometry x="40" width="180" height="30" as="geometry">
            <mxRectangle width="180" height="30" as="alternateBounds" />
          </mxGeometry>
        </mxCell>
        <mxCell id="Xnj83cRvs6DByZSezMd7-748" value="" style="shape=tableRow;horizontal=0;startSize=0;swimlaneHead=0;swimlaneBody=0;fillColor=none;collapsible=0;dropTarget=0;points=[[0,0.5],[1,0.5]];portConstraint=eastwest;top=0;left=0;right=0;bottom=0;" vertex="1" parent="Xnj83cRvs6DByZSezMd7-723">
          <mxGeometry y="269" width="220" height="30" as="geometry" />
        </mxCell>
        <mxCell id="Xnj83cRvs6DByZSezMd7-749" value="" style="shape=partialRectangle;connectable=0;fillColor=none;top=0;left=0;bottom=0;right=0;editable=1;overflow=hidden;whiteSpace=wrap;html=1;" vertex="1" parent="Xnj83cRvs6DByZSezMd7-748">
          <mxGeometry width="40" height="30" as="geometry">
            <mxRectangle width="40" height="30" as="alternateBounds" />
          </mxGeometry>
        </mxCell>
        <mxCell id="Xnj83cRvs6DByZSezMd7-750" value="*&lt;span style=&quot;text-align: center;&quot;&gt;obujam_bokova&lt;/span&gt;" style="shape=partialRectangle;connectable=0;fillColor=none;top=0;left=0;bottom=0;right=0;align=left;spacingLeft=6;overflow=hidden;whiteSpace=wrap;html=1;" vertex="1" parent="Xnj83cRvs6DByZSezMd7-748">
          <mxGeometry x="40" width="180" height="30" as="geometry">
            <mxRectangle width="180" height="30" as="alternateBounds" />
          </mxGeometry>
        </mxCell>
        <mxCell id="Xnj83cRvs6DByZSezMd7-764" value="SURADNJA_PROGRAM" style="shape=table;startSize=30;container=1;collapsible=1;childLayout=tableLayout;fixedRows=1;rowLines=0;fontStyle=1;align=center;resizeLast=1;html=1;fillColor=#6a00ff;strokeColor=#3700CC;swimlaneFillColor=default;fontColor=#ffffff;" vertex="1" parent="1">
          <mxGeometry x="590" y="131" width="180" height="180" as="geometry" />
        </mxCell>
        <mxCell id="Xnj83cRvs6DByZSezMd7-765" value="" style="shape=tableRow;horizontal=0;startSize=0;swimlaneHead=0;swimlaneBody=0;fillColor=none;collapsible=0;dropTarget=0;points=[[0,0.5],[1,0.5]];portConstraint=eastwest;top=0;left=0;right=0;bottom=1;strokeColor=default;swimlaneLine=1;swimlaneFillColor=none;strokeWidth=0;" vertex="1" parent="Xnj83cRvs6DByZSezMd7-764">
          <mxGeometry y="30" width="180" height="30" as="geometry" />
        </mxCell>
        <mxCell id="Xnj83cRvs6DByZSezMd7-766" value="PK,FK" style="shape=partialRectangle;connectable=0;fillColor=none;top=0;left=0;bottom=0;right=0;fontStyle=1;overflow=hidden;whiteSpace=wrap;html=1;" vertex="1" parent="Xnj83cRvs6DByZSezMd7-765">
          <mxGeometry width="40" height="30" as="geometry">
            <mxRectangle width="40" height="30" as="alternateBounds" />
          </mxGeometry>
        </mxCell>
        <mxCell id="Xnj83cRvs6DByZSezMd7-767" value="*ID_trenera" style="shape=partialRectangle;connectable=0;fillColor=none;top=0;left=0;bottom=0;right=0;align=left;spacingLeft=6;fontStyle=5;overflow=hidden;whiteSpace=wrap;html=1;" vertex="1" parent="Xnj83cRvs6DByZSezMd7-765">
          <mxGeometry x="40" width="140" height="30" as="geometry">
            <mxRectangle width="140" height="30" as="alternateBounds" />
          </mxGeometry>
        </mxCell>
        <mxCell id="Xnj83cRvs6DByZSezMd7-768" value="" style="shape=tableRow;horizontal=0;startSize=0;swimlaneHead=0;swimlaneBody=0;fillColor=none;collapsible=0;dropTarget=0;points=[[0,0.5],[1,0.5]];portConstraint=eastwest;top=0;left=0;right=0;bottom=1;strokeColor=default;swimlaneLine=1;swimlaneFillColor=none;strokeWidth=0;" vertex="1" parent="Xnj83cRvs6DByZSezMd7-764">
          <mxGeometry y="60" width="180" height="30" as="geometry" />
        </mxCell>
        <mxCell id="Xnj83cRvs6DByZSezMd7-769" value="PK,FK" style="shape=partialRectangle;connectable=0;fillColor=none;top=0;left=0;bottom=0;right=0;fontStyle=1;overflow=hidden;whiteSpace=wrap;html=1;" vertex="1" parent="Xnj83cRvs6DByZSezMd7-768">
          <mxGeometry width="40" height="30" as="geometry">
            <mxRectangle width="40" height="30" as="alternateBounds" />
          </mxGeometry>
        </mxCell>
        <mxCell id="Xnj83cRvs6DByZSezMd7-770" value="*ID_trenera" style="shape=partialRectangle;connectable=0;fillColor=none;top=0;left=0;bottom=0;right=0;align=left;spacingLeft=6;fontStyle=5;overflow=hidden;whiteSpace=wrap;html=1;" vertex="1" parent="Xnj83cRvs6DByZSezMd7-768">
          <mxGeometry x="40" width="140" height="30" as="geometry">
            <mxRectangle width="140" height="30" as="alternateBounds" />
          </mxGeometry>
        </mxCell>
        <mxCell id="Xnj83cRvs6DByZSezMd7-771" value="" style="shape=tableRow;horizontal=0;startSize=0;swimlaneHead=0;swimlaneBody=0;fillColor=none;collapsible=0;dropTarget=0;points=[[0,0.5],[1,0.5]];portConstraint=eastwest;top=0;left=0;right=0;bottom=1;" vertex="1" parent="Xnj83cRvs6DByZSezMd7-764">
          <mxGeometry y="90" width="180" height="30" as="geometry" />
        </mxCell>
        <mxCell id="Xnj83cRvs6DByZSezMd7-772" value="PK,FK" style="shape=partialRectangle;connectable=0;fillColor=none;top=0;left=0;bottom=0;right=0;fontStyle=1;overflow=hidden;whiteSpace=wrap;html=1;" vertex="1" parent="Xnj83cRvs6DByZSezMd7-771">
          <mxGeometry width="40" height="30" as="geometry">
            <mxRectangle width="40" height="30" as="alternateBounds" />
          </mxGeometry>
        </mxCell>
        <mxCell id="Xnj83cRvs6DByZSezMd7-773" value="*ID_klijenta" style="shape=partialRectangle;connectable=0;fillColor=none;top=0;left=0;bottom=0;right=0;align=left;spacingLeft=6;fontStyle=5;overflow=hidden;whiteSpace=wrap;html=1;" vertex="1" parent="Xnj83cRvs6DByZSezMd7-771">
          <mxGeometry x="40" width="140" height="30" as="geometry">
            <mxRectangle width="140" height="30" as="alternateBounds" />
          </mxGeometry>
        </mxCell>
        <mxCell id="Xnj83cRvs6DByZSezMd7-774" value="" style="shape=tableRow;horizontal=0;startSize=0;swimlaneHead=0;swimlaneBody=0;fillColor=none;collapsible=0;dropTarget=0;points=[[0,0.5],[1,0.5]];portConstraint=eastwest;top=0;left=0;right=0;bottom=1;" vertex="1" parent="Xnj83cRvs6DByZSezMd7-764">
          <mxGeometry y="120" width="180" height="30" as="geometry" />
        </mxCell>
        <mxCell id="Xnj83cRvs6DByZSezMd7-775" value="PK" style="shape=partialRectangle;connectable=0;fillColor=none;top=0;left=0;bottom=0;right=0;fontStyle=1;overflow=hidden;whiteSpace=wrap;html=1;" vertex="1" parent="Xnj83cRvs6DByZSezMd7-774">
          <mxGeometry width="40" height="30" as="geometry">
            <mxRectangle width="40" height="30" as="alternateBounds" />
          </mxGeometry>
        </mxCell>
        <mxCell id="Xnj83cRvs6DByZSezMd7-776" value="*ID_suradnje" style="shape=partialRectangle;connectable=0;fillColor=none;top=0;left=0;bottom=0;right=0;align=left;spacingLeft=6;fontStyle=5;overflow=hidden;whiteSpace=wrap;html=1;" vertex="1" parent="Xnj83cRvs6DByZSezMd7-774">
          <mxGeometry x="40" width="140" height="30" as="geometry">
            <mxRectangle width="140" height="30" as="alternateBounds" />
          </mxGeometry>
        </mxCell>
        <mxCell id="Xnj83cRvs6DByZSezMd7-777" value="" style="shape=tableRow;horizontal=0;startSize=0;swimlaneHead=0;swimlaneBody=0;fillColor=none;collapsible=0;dropTarget=0;points=[[0,0.5],[1,0.5]];portConstraint=eastwest;top=0;left=0;right=0;bottom=0;" vertex="1" parent="Xnj83cRvs6DByZSezMd7-764">
          <mxGeometry y="150" width="180" height="30" as="geometry" />
        </mxCell>
        <mxCell id="Xnj83cRvs6DByZSezMd7-778" value="" style="shape=partialRectangle;connectable=0;fillColor=none;top=0;left=0;bottom=0;right=0;editable=1;overflow=hidden;whiteSpace=wrap;html=1;" vertex="1" parent="Xnj83cRvs6DByZSezMd7-777">
          <mxGeometry width="40" height="30" as="geometry">
            <mxRectangle width="40" height="30" as="alternateBounds" />
          </mxGeometry>
        </mxCell>
        <mxCell id="Xnj83cRvs6DByZSezMd7-779" value="*cijena_svake_suradnje" style="shape=partialRectangle;connectable=0;fillColor=none;top=0;left=0;bottom=0;right=0;align=left;spacingLeft=6;overflow=hidden;whiteSpace=wrap;html=1;" vertex="1" parent="Xnj83cRvs6DByZSezMd7-777">
          <mxGeometry x="40" width="140" height="30" as="geometry">
            <mxRectangle width="140" height="30" as="alternateBounds" />
          </mxGeometry>
        </mxCell>
      </root>
    </mxGraphModel>
  </diagram>
</mxfile>
